<svg width="500" height="336" viewBox="0 0 500 336" fill="none" xmlns="http://www.w3.org/2000/svg">
<path d="M452.751 334.445H346.734V331.493C346.734 328.931 347.856 326.473 349.853 324.661C351.851 322.849 354.56 321.831 357.384 321.831H442.1C444.925 321.831 447.634 322.849 449.631 324.661C451.629 326.473 452.751 328.931 452.751 331.493V334.445V334.445Z" fill="#E6E6E6"/>
<path d="M397.261 322.42L400.485 321.242C366.751 245.282 370.001 149.452 398.517 67.2477C401.904 57.7231 402.149 47.508 399.22 37.8591C396.291 28.2102 390.317 19.5484 382.032 12.9394C365.481 -0.459751 342.662 -3.7239 322.477 4.41991C302.554 12.4598 299.808 26.464 299.808 40.4001H303.284C303.284 25.524 306.788 14.2023 323.89 7.30105C342.808 -0.331186 364.199 2.73011 379.718 15.2924C387.499 21.4997 393.11 29.6351 395.861 38.6978C398.612 47.7604 398.383 57.3549 395.201 66.3008C366.356 149.455 363.297 245.942 397.261 322.42Z" fill="#D9D9D9"/>
<path d="M302.415 86.9108C309.134 86.9108 314.581 81.9696 314.581 75.8743C314.581 69.779 309.134 64.8378 302.415 64.8378C295.696 64.8378 290.249 69.779 290.249 75.8743C290.249 81.9696 295.696 86.9108 302.415 86.9108Z" fill="#E6E6E6"/>
<path d="M283.678 95.1146V74.2031H287.262V95.1146C288.29 95.4919 289.142 96.1819 289.671 97.0662C290.2 97.9506 290.373 98.9743 290.161 99.9619C289.949 100.949 289.365 101.839 288.51 102.479C287.654 103.119 286.579 103.469 285.47 103.469C284.361 103.469 283.286 103.119 282.431 102.479C281.575 101.839 280.991 100.949 280.779 99.9619C280.567 98.9743 280.74 97.9506 281.269 97.0662C281.798 96.1819 282.65 95.4919 283.678 95.1146Z" fill="#E6E6E6"/>
<path d="M219.826 170.419C223.141 131.939 240.093 113.605 229.238 102.107C218.841 91.0943 189.554 93.3693 170.745 103.937C120.013 132.441 101.427 246.047 166.711 301.552C228.747 354.296 346.318 337.403 372.446 294.233C378.542 284.16 383.386 266.502 374.463 255.808C352.311 229.257 271.771 277.347 235.962 247.269C214.74 229.443 218.006 191.536 219.826 170.419Z" fill="#3F3D56"/>
<path d="M258.605 151.301C257.373 151.815 256.411 152.745 255.923 153.893C255.435 155.041 255.46 156.317 255.993 157.448C256.106 157.677 256.239 157.896 256.391 158.105L245.502 171.294L250.935 178.661L263.699 159.13C264.603 158.491 265.248 157.597 265.534 156.59C265.82 155.583 265.73 154.518 265.278 153.561C265.016 153.019 264.638 152.53 264.167 152.12C263.695 151.711 263.14 151.39 262.532 151.175C261.924 150.96 261.275 150.857 260.622 150.869C259.97 150.882 259.327 151.011 258.729 151.25C258.688 151.266 258.646 151.283 258.605 151.301Z" fill="#FFB6B6"/>
<path d="M258.596 174.042C259.309 174.615 257.332 175.323 255.241 174.206C254.643 173.883 254.388 173.749 254.32 173.834C254.152 174.048 255.134 175.621 254.872 179.116C254.71 181.202 250.891 185.124 246.555 188.948C240.692 194.12 233.875 199.109 233.875 199.109L231.481 197.371L206.383 179.116L202.147 173.798C202.535 171.697 203.117 169.631 203.888 167.619C204.95 164.835 206.213 162.117 207.667 159.483C208.447 158.05 209.247 156.683 210.013 155.427L223.46 168.87L234.728 180.129C234.728 180.129 238.009 175.335 240.551 174.029C240.875 173.842 241.244 173.727 241.627 173.694C244.195 173.584 244.35 172.316 241.371 169.553C238.393 166.79 242.151 169.37 244.8 168.626C247.449 167.881 244.8 168.626 245.358 166.765C245.916 164.905 253.345 161.172 253.345 161.172L253.655 161.422L259.269 165.918L260.876 167.205C260.876 167.205 259.121 171.572 258.637 172.493C258.153 173.413 257.89 173.462 258.596 174.042Z" fill="#6C63FF"/>
<path d="M406.59 258.77L406.863 252.042L378.389 247.883L377.985 257.812L406.59 258.77Z" fill="#FFB6B6"/>
<path d="M401.421 260.795L401.151 250.023L406.227 250.193L414.422 240.235C414.827 239.743 415.394 239.381 416.041 239.203C416.689 239.024 417.382 239.038 418.02 239.242C418.658 239.446 419.207 239.83 419.588 240.337C419.969 240.845 420.16 241.449 420.135 242.063L419.615 254.859L414.504 256.896L419.49 257.925L419.294 262.75L401.421 260.795Z" fill="#2F2E41"/>
<path d="M246.332 261.389L336.521 263.464C336.521 263.464 375.468 265.504 384.606 260.112L394.242 259.008L394.764 246.168C394.764 246.168 388.872 246.207 385.484 244.775C382.096 243.343 384.451 241.591 381.22 243.314C377.99 245.037 378.332 245.244 375.834 244.452C373.337 243.66 258.814 227.825 258.814 227.825L246.332 261.389Z" fill="#2F2E41"/>
<path d="M365.177 255.817L370.422 251.054L352.665 230.437L344.925 237.467L365.177 255.817Z" fill="#FFB6B6"/>
<path d="M359.869 251.673L367.747 243.609L371.341 246.866L384.815 244.622C385.48 244.511 386.167 244.596 386.776 244.865C387.384 245.133 387.882 245.571 388.197 246.114C388.511 246.657 388.627 247.278 388.525 247.885C388.424 248.491 388.111 249.053 387.633 249.487L377.658 258.547L372.384 256.887L375.267 260.718L371.506 264.134L359.869 251.673Z" fill="#2F2E41"/>
<path d="M210.749 216.581L211.646 235.488C212.701 257.746 239.722 271.218 260.675 259.596C261.061 259.382 261.448 259.16 261.837 258.931C261.837 258.931 269.78 256.996 269.539 253.931C269.298 250.866 271.238 249.375 272.956 250.211C274.673 251.046 297.157 222.099 297.157 222.099C297.157 222.099 343.872 243.238 354.178 248.215C354.178 248.215 363.867 234.471 363.165 234.615C362.462 234.759 305.373 198.511 305.373 198.511C305.373 198.511 296.072 189.972 284.535 195.61C284.295 196.438 284.5 196.467 284.5 196.467L246.389 224.638L241.004 215.361L210.749 216.581Z" fill="#2F2E41"/>
<path d="M246.683 192.944C246.61 193.817 246.473 194.685 246.273 195.542C245.998 196.782 245.555 197.987 244.955 199.128C244.955 199.128 244.955 200.403 242.265 204.673C239.576 208.942 242.938 207.112 244.955 210.284C246.972 213.449 244.955 211.992 242.716 214.029C242.071 214.622 241.614 215.36 241.39 216.168C241.167 216.976 241.186 217.823 241.445 218.622C241.445 218.622 212.562 218.64 207.183 216.81C201.804 214.98 200.581 204.673 205.401 203.654C210.215 202.636 203.942 201.623 201.112 199.275C198.281 196.927 203.942 193.084 203.942 193.084C203.942 193.084 201.609 189.431 201.804 177.165C201.832 176.037 201.946 174.912 202.147 173.798C202.535 171.698 203.117 169.631 203.888 167.62C204.95 164.836 206.213 162.118 207.667 159.484C208.447 158.05 209.247 156.684 210.013 155.428C210.134 155.232 210.249 155.043 210.37 154.854C211.829 152.512 213.16 150.597 214.041 149.371C214.72 148.42 215.13 147.883 215.13 147.883L220.024 140.161L236.362 147.108L235.434 158.471L238.252 167.04L239.549 170.987L240.551 174.03L242.097 178.745C242.097 178.745 241.674 178.763 242.178 179.391C244.5 182.192 246.006 185.48 246.555 188.949C246.748 190.273 246.791 191.612 246.683 192.944V192.944Z" fill="#6C63FF"/>
<path d="M293.864 194.168L293.558 194.078L254.454 182.654L268.863 139.77C269.15 138.916 269.647 138.132 270.317 137.478C270.986 136.823 271.81 136.315 272.728 135.992C273.645 135.668 274.631 135.538 275.612 135.611C276.593 135.683 277.543 135.957 278.39 136.411L303.379 149.804C305.357 150.863 306.862 152.519 307.631 154.483C308.4 156.446 308.384 158.592 307.585 160.546L293.864 194.168Z" fill="#2F2E41"/>
<path d="M294.023 196.895L254.605 185.38L269.014 142.495C269.301 141.641 269.798 140.857 270.467 140.203C271.137 139.548 271.961 139.04 272.879 138.717C273.796 138.393 274.782 138.263 275.763 138.336C276.744 138.409 277.694 138.682 278.541 139.136L304.723 150.995C308.656 153.102 308.564 158.557 306.738 163.033L294.023 196.895Z" fill="#6C63FF"/>
<path d="M290.077 199.998C289.169 200.463 288.165 200.751 287.128 200.845C286.09 200.938 285.043 200.835 284.052 200.542L258.857 193.181C256.924 192.608 255.315 191.372 254.372 189.738C253.43 188.103 253.23 186.198 253.815 184.431L266.447 146.838C266.699 146.087 267.114 145.389 267.668 144.785C268.221 144.182 268.902 143.684 269.67 143.323C270.439 142.961 271.279 142.742 272.141 142.679C273.004 142.615 273.872 142.709 274.694 142.954L300.805 150.731C302.049 151.102 303.198 151.695 304.185 152.475C305.173 153.255 305.978 154.207 306.553 155.274C307.127 156.342 307.461 157.502 307.533 158.689C307.605 159.875 307.414 161.062 306.972 162.18L293.466 196.338C292.86 197.889 291.656 199.189 290.077 199.998V199.998Z" fill="#3F3D56"/>
<path d="M235.439 140.293C245.405 140.293 253.485 132.963 253.485 123.922C253.485 114.881 245.405 107.551 235.439 107.551C225.472 107.551 217.393 114.881 217.393 123.922C217.393 132.963 225.472 140.293 235.439 140.293Z" fill="#FFB6B6"/>
<path d="M174.415 140.539C176.071 143.451 178.787 145.754 182.101 147.057C183.424 147.604 184.814 148.003 186.243 148.246C186.646 146.794 187.293 145.406 188.159 144.13C187.871 145.568 187.871 147.04 188.159 148.478C190.335 148.639 192.525 148.393 194.592 147.753C196.621 147.127 198.462 146.081 199.968 144.697C201.474 143.312 202.604 141.629 203.268 139.78C204.705 135.44 203.157 130.806 203.035 126.276C202.909 121.746 205.28 116.328 210.237 115.768C214.013 115.34 213.546 115.672 216.258 118.091C212.464 121.915 221.714 138.851 226.678 138.102C229.484 137.679 231.549 135.658 232.104 135.728C234.946 142.042 226.397 150.997 233.178 153.937L232.675 153.333C229.125 148.014 239.628 139.03 236.078 133.711C235.089 132.223 234.06 130.479 234.672 128.833C235.253 127.267 238.196 126.772 238.817 128.197C237.807 124.932 240.625 121.1 244.367 120.766C247.691 120.469 247.499 121.329 250.669 122.113C251.074 120.874 251.657 119.689 252.404 118.589C252.152 119.844 252.12 121.128 252.312 122.392C253.455 122.515 254.612 122.293 255.601 121.76C258.528 120.168 258.615 116.059 256.605 113.559C254.59 111.058 251.216 109.823 247.961 108.888C247.931 102.643 229.408 99.6536 226.001 105.46C225.651 100.759 219.711 97.5918 214.593 98.3904C209.476 99.189 205.439 102.911 202.978 107.06C200.517 111.206 199.295 115.848 197.494 120.264C195.692 124.68 193.117 129.083 188.803 131.703C184.49 134.319 178.08 134.557 174.478 131.165C173.657 132.614 173.223 134.217 173.212 135.846C173.201 137.474 173.613 139.082 174.415 140.539V140.539Z" fill="#2F2E41"/>
<path d="M192.932 215.402C193.306 215.132 193.711 214.899 194.14 214.708C201.047 211.59 222.528 203.495 239.323 203.827C271.64 204.466 312.767 236.82 303.195 258.548C295.912 275.08 259.704 284.486 233.272 276.963C196.244 266.424 181.629 223.578 192.932 215.402Z" fill="#3F3D56"/>
<path d="M58.7725 334.506C48.2128 332.699 38.8655 289.542 59.6415 268.287C66.7597 261.005 75.6387 257.835 87.4493 254.885C155.428 237.908 207.276 254.088 214.244 258.039C221.195 261.98 233.383 321.369 217.798 329.776C209.03 334.506 191.65 336.871 183.039 331.353C170.368 323.233 191.636 302.172 182.17 287.995C171.427 271.907 114.861 266.489 86.5016 282.477C56.2447 299.534 118.654 344.754 58.7725 334.506Z" fill="#D9D9D9"/>
<path d="M129.373 261.13H89.0314C79.0726 252.472 71.9521 244.128 77.6529 237.202C77.6529 235.211 78.5247 233.301 80.0766 231.893C81.6286 230.485 83.7334 229.695 85.9281 229.695H132.477C134.671 229.695 136.776 230.485 138.328 231.893C139.88 233.301 140.752 235.211 140.752 237.202C142.922 245.094 139.045 253.071 129.373 261.13Z" fill="#CCCCCC"/>
<path d="M122.128 220.244C121.746 220.26 121.367 220.169 121.043 219.983C120.719 219.797 120.466 219.525 120.319 219.205C120.171 218.884 120.135 218.53 120.217 218.19C120.298 217.85 120.493 217.542 120.774 217.306L120.902 216.844C120.885 216.807 120.868 216.77 120.851 216.733C120.466 215.907 119.82 215.202 118.994 214.708C118.168 214.214 117.2 213.952 116.211 213.955C115.222 213.959 114.256 214.227 113.435 214.727C112.613 215.227 111.973 215.935 111.594 216.764C110.08 220.072 108.152 223.386 107.678 226.884C107.469 228.43 107.557 229.997 107.938 231.516C104.382 224.479 102.536 216.83 102.524 209.089C102.523 207.146 102.642 205.205 102.88 203.275C103.077 201.692 103.35 200.121 103.699 198.561C105.605 190.096 109.698 182.162 115.64 175.41C118.516 173.986 120.842 171.797 122.304 169.137C122.834 168.181 123.209 167.161 123.416 166.107C123.092 166.146 122.193 161.663 122.437 161.388C121.985 160.766 121.176 160.457 120.682 159.849C118.226 156.829 114.843 157.356 113.076 161.461C109.303 163.188 109.266 166.054 111.582 168.809C113.055 170.562 113.257 172.935 114.55 174.812C114.417 174.966 114.278 175.116 114.145 175.27C111.715 178.105 109.596 181.15 107.82 184.361C108.252 180.764 107.737 177.126 106.316 173.745C104.876 170.595 102.178 167.941 99.8019 165.218C96.9477 161.946 91.0948 163.374 90.592 167.521C90.5871 167.561 90.5823 167.601 90.5777 167.642C90.9307 167.822 91.2762 168.014 91.6142 168.217C92.0389 168.474 92.3679 168.842 92.5583 169.272C92.7486 169.702 92.7914 170.174 92.6809 170.626C92.5704 171.079 92.3119 171.49 91.9392 171.807C91.5665 172.124 91.097 172.331 90.5922 172.402L90.5405 172.409C90.6662 173.563 90.8885 174.706 91.2053 175.83C88.1569 186.524 94.7382 190.419 104.135 190.594C104.343 190.691 104.545 190.787 104.752 190.879C102.968 195.466 101.849 200.245 101.423 205.094C101.182 207.955 101.196 210.828 101.465 213.687L101.449 213.586C100.769 210.407 98.8992 207.539 96.1571 205.465C92.0845 202.43 86.3306 201.313 81.9369 198.873C81.4699 198.601 80.927 198.456 80.3721 198.455C79.8172 198.454 79.2735 198.596 78.8051 198.866C78.3367 199.136 77.9631 199.522 77.7285 199.978C77.4938 200.434 77.4079 200.942 77.4808 201.441C77.4867 201.476 77.4927 201.512 77.4988 201.547C78.1537 201.789 78.7914 202.068 79.4082 202.382C79.7611 202.563 80.1066 202.754 80.4447 202.957C80.8693 203.215 81.1984 203.582 81.3887 204.012C81.579 204.442 81.6218 204.914 81.5113 205.367C81.4008 205.819 81.1423 206.231 80.7696 206.547C80.3969 206.864 79.9274 207.071 79.4227 207.142L79.3709 207.149C79.3337 207.154 79.3018 207.159 79.2646 207.164C80.3837 209.588 81.9544 211.819 83.9079 213.759C85.814 223.095 94.0007 223.981 102.758 221.262H102.763C103.724 225.05 105.116 228.737 106.917 232.264H121.757C121.81 232.114 121.858 231.96 121.906 231.81C120.532 231.888 119.153 231.814 117.799 231.588C118.9 230.363 120.001 229.127 121.102 227.902C121.127 227.879 121.15 227.855 121.172 227.829C121.73 227.202 122.294 226.58 122.852 225.952L122.853 225.952C122.882 224.029 122.639 222.111 122.129 220.244L122.128 220.244Z" fill="#CCCCCC"/>
<path d="M172.744 259.169C172.99 259.819 173.457 260.382 174.077 260.776C174.698 261.17 175.44 261.376 176.198 261.364L190.997 261.018C191.76 261.005 192.498 260.768 193.1 260.342C193.703 259.917 194.137 259.326 194.338 258.658L196.433 238.343C197.176 238.648 197.985 238.799 198.8 238.784C200.231 238.751 201.589 238.205 202.576 237.264C203.562 236.323 204.096 235.065 204.06 233.767C204.024 232.468 203.421 231.236 202.384 230.341C201.347 229.447 199.96 228.962 198.529 228.995C198.203 228.994 197.878 229.024 197.559 229.086C197.213 228.746 196.791 228.475 196.322 228.292C195.853 228.108 195.347 228.016 194.837 228.02L172.071 228.554C171.883 228.56 171.695 228.581 171.51 228.617C171.011 228.701 170.537 228.882 170.121 229.146C169.705 229.411 169.357 229.753 169.099 230.15C168.841 230.546 168.68 230.989 168.626 231.447C168.572 231.905 168.627 232.368 168.788 232.805L172.744 259.169ZM196.862 236.963L198.352 232.122C198.522 231.563 198.526 230.973 198.364 230.412C198.436 230.412 198.5 230.381 198.572 230.381C199.594 230.362 200.582 230.711 201.32 231.352C202.059 231.993 202.487 232.873 202.511 233.8C202.535 234.727 202.152 235.624 201.448 236.296C200.744 236.968 199.775 237.358 198.753 237.383C198.092 237.402 197.439 237.257 196.862 236.963V236.963Z" fill="#CCCCCC"/>
<path d="M171.509 228.617C171.994 231.133 177.447 232.901 184.004 232.594C190.033 232.342 194.963 230.421 195.866 228.145C195.532 228.056 195.184 228.013 194.836 228.021L172.071 228.554C171.882 228.56 171.694 228.581 171.509 228.617V228.617Z" fill="white"/>
<path d="M0.792587 335.459L499.207 335.644C499.418 335.644 499.619 335.568 499.768 335.434C499.916 335.299 500 335.116 500 334.925C500 334.735 499.916 334.552 499.768 334.417C499.619 334.282 499.418 334.206 499.207 334.206L0.792587 334.021C0.582379 334.021 0.380783 334.096 0.232143 334.231C0.0835032 334.366 0 334.549 0 334.74C0 334.93 0.0835032 335.113 0.232143 335.248C0.380783 335.383 0.582379 335.459 0.792587 335.459V335.459Z" fill="#CACACA"/>
<path d="M280.338 174.767C278.982 174.812 277.7 175.335 276.763 176.224C275.826 177.114 275.309 178.3 275.321 179.53C275.328 179.781 275.358 180.03 275.41 180.275L259.768 188.653L261.661 197.349L281.721 183.771C282.827 183.496 283.802 182.896 284.492 182.066C285.183 181.236 285.552 180.221 285.54 179.181C285.527 178.589 285.386 178.005 285.124 177.463C284.863 176.921 284.486 176.43 284.016 176.02C283.545 175.61 282.991 175.288 282.383 175.072C281.775 174.856 281.127 174.751 280.474 174.763C280.429 174.764 280.383 174.765 280.338 174.767Z" fill="#FFB6B6"/>
<path d="M267.524 194.739C267.106 194.23 266.926 194.017 266.831 194.076C266.586 194.21 266.821 196.006 265.099 199.138C262.673 203.537 237.245 210.274 237.245 210.274L234.114 205.075L220.343 182.225L215.596 163.909C215.43 163.271 215.35 162.616 215.356 161.96C219.588 159.259 224.083 156.912 228.783 154.949C230.662 155.915 232.094 157.463 232.818 159.309L242.297 183.421L246.08 193.048C246.08 193.048 252.753 188.719 255.173 189.514C257.589 190.313 258.276 189.192 256.697 185.604C255.117 182.015 257.488 185.709 260.247 185.944C263.012 186.182 260.247 185.944 261.553 184.421C262.859 182.899 271.301 182.042 271.301 182.042L271.481 182.382L274.752 188.487L275.689 190.241C275.689 190.241 272.22 193.655 271.384 194.335C270.543 195.021 270.283 194.973 270.695 195.754C271.101 196.531 268.977 196.496 267.524 194.739Z" fill="#6C63FF"/>
<path d="M267.361 55.9537C267.367 51.1466 269.475 46.538 273.222 43.1389C276.969 39.7398 282.049 37.8277 287.348 37.8223H320.37C325.671 37.8223 330.754 39.7325 334.502 43.1328C338.251 46.5331 340.357 51.1449 340.357 55.9537C340.357 60.7624 338.251 65.3742 334.502 68.7745C330.754 72.1748 325.671 74.085 320.37 74.085H287.348C282.049 74.0796 276.969 72.1676 273.222 68.7684C269.475 65.3693 267.367 60.7607 267.361 55.9537V55.9537Z" fill="#6C63FF"/>
</svg>
