<svg width="600" height="600" viewBox="0 0 600 600" fill="none" xmlns="http://www.w3.org/2000/svg">
<path d="M110.592 165.6C194.676 69.9241 339.036 54.0001 403.392 84.7321C428.398 96.5814 451.529 112.038 472.044 130.608C474.732 133.008 477.344 135.476 479.88 138.012C487.798 145.812 495.225 154.096 502.116 162.816C510.375 173.248 517.825 184.296 524.4 195.864C533.821 212.325 541.283 229.832 546.636 248.028C550.177 259.967 552.501 272.233 553.572 284.64C555.408 307.932 553.812 331.44 550.68 354.54C550.392 356.748 550.08 358.956 549.744 361.164C549.66 361.776 549.576 362.364 549.48 363C546.036 386.004 541.164 409.212 530.28 429.276C518.4 451.2 476.952 512.028 432 513.6C408.684 514.428 388.092 499.2 366.96 488.4C333.36 471.264 295.332 467.904 258.252 466.908C221.172 465.912 183.636 466.98 147.504 457.788C111.372 448.596 75.9477 427.488 57.4797 392.4C51.2037 380.472 46.4397 363.288 46.4277 349.536C46.4277 308.964 53.0517 273.48 64.6197 242.652C68.2931 232.822 72.5775 223.231 77.4477 213.936C84.5813 200.306 92.9867 187.381 102.552 175.332L110.592 165.6Z" fill="#8078BF"/>
<g opacity="0.7">
<path d="M110.592 165.6C194.676 69.9241 339.036 54.0001 403.392 84.7321C428.398 96.5814 451.529 112.038 472.044 130.608C474.732 133.008 477.344 135.476 479.88 138.012C487.798 145.812 495.225 154.096 502.116 162.816C510.375 173.248 517.825 184.296 524.4 195.864C533.821 212.325 541.283 229.832 546.636 248.028C550.177 259.967 552.501 272.233 553.572 284.64C555.408 307.932 553.812 331.44 550.68 354.54C550.392 356.748 550.08 358.956 549.744 361.164C549.66 361.776 549.576 362.364 549.48 363C546.036 386.004 541.164 409.212 530.28 429.276C518.4 451.2 476.952 512.028 432 513.6C408.684 514.428 388.092 499.2 366.96 488.4C333.36 471.264 295.332 467.904 258.252 466.908C221.172 465.912 183.636 466.98 147.504 457.788C111.372 448.596 75.9477 427.488 57.4797 392.4C51.2037 380.472 46.4397 363.288 46.4277 349.536C46.4277 308.964 53.0517 273.48 64.6197 242.652C68.2931 232.822 72.5775 223.231 77.4477 213.936C84.5813 200.306 92.9867 187.381 102.552 175.332L110.592 165.6Z" fill="white"/>
</g>
<path d="M46.4277 512.208H562.488" stroke="#263238" stroke-linecap="round" stroke-linejoin="round"/>
<path d="M443.579 338.124V338.256C443.579 338.472 443.627 338.7 443.723 338.94C444.26 341.57 444.66 344.225 444.923 346.896C445.151 349.188 445.331 351.804 445.379 354.72C445.493 361.459 445.032 368.196 443.999 374.856C443.735 376.608 443.423 378.456 443.051 380.304C442.463 383.352 441.743 386.544 440.855 389.844C440.459 391.38 440.003 392.952 439.523 394.536L438.959 396.468C438.743 397.248 438.527 398.028 438.323 398.868C436.944 404.199 435.842 409.599 435.023 415.044C434.003 421.824 433.367 428.556 433.019 434.928C432.551 443.424 432.575 451.272 432.779 457.728C432.773 457.836 432.773 457.944 432.779 458.052C432.995 464.616 433.403 469.764 433.679 472.692C433.835 474.408 433.943 475.38 433.955 475.44" stroke="#263238" stroke-linecap="round" stroke-linejoin="round"/>
<path d="M443.615 338.292C441.819 336.695 439.654 335.57 437.315 335.016Z" fill="white"/>
<path d="M443.615 338.292C441.819 336.695 439.654 335.57 437.315 335.016" stroke="#263238" stroke-linecap="round" stroke-linejoin="round"/>
<path d="M444.96 346.932L448.152 344.04" stroke="#263238" stroke-linecap="round" stroke-linejoin="round"/>
<path d="M440.891 389.856C440.724 389.014 440.475 388.19 440.147 387.396C439.674 386.232 439.031 385.144 438.239 384.168C437.648 383.435 436.976 382.77 436.235 382.188" stroke="#263238" stroke-linecap="round" stroke-linejoin="round"/>
<path d="M438.336 398.856C438.788 397.735 439.466 396.719 440.326 395.871C441.187 395.023 442.213 394.36 443.34 393.924" stroke="#263238" stroke-linecap="round" stroke-linejoin="round"/>
<path d="M432.792 443.496C433.86 442.2 434.664 437.292 435.096 434.652C435.204 434.028 435.288 433.452 435.372 433.104" fill="white"/>
<path d="M432.792 443.496C433.86 442.2 434.664 437.292 435.096 434.652C435.204 434.028 435.288 433.452 435.372 433.104" stroke="#263238" stroke-linecap="round" stroke-linejoin="round"/>
<path d="M424.571 452.4C424.926 452.364 425.284 452.364 425.639 452.4C427.211 452.553 428.712 453.131 429.98 454.071C431.248 455.012 432.237 456.28 432.839 457.74" fill="white"/>
<path d="M424.571 452.4C424.926 452.364 425.284 452.364 425.639 452.4C427.211 452.553 428.712 453.131 429.98 454.071C431.248 455.012 432.237 456.28 432.839 457.74" stroke="#263238" stroke-linecap="round" stroke-linejoin="round"/>
<path d="M443.088 380.4C443.088 380.4 443.652 360.924 432.96 353.856" stroke="#263238" stroke-linecap="round" stroke-linejoin="round"/>
<path d="M444 422.148C445.404 426.696 435.6 435.348 435.6 435.348C435.6 435.348 422.652 433.728 421.2 429.192C419.748 424.656 423.072 417.192 429.36 415.272C435.648 413.352 442.644 417.6 444 422.148Z" fill="#8078BF"/>
<path d="M454.908 367.032C453.708 371.832 444.396 375.276 444.396 375.276C444.396 375.276 438 367.8 439.2 362.976C440.4 358.152 445.572 352.848 449.916 353.964C454.26 355.08 456.156 362.208 454.908 367.032Z" fill="#8078BF"/>
<path d="M417.72 439.116C423.54 441.372 427.104 451.668 427.104 451.668C427.104 451.668 417.504 456.84 411.696 454.572C405.888 452.304 399.696 445.92 401.376 441.66C403.056 437.4 411.9 436.8 417.72 439.116Z" fill="#8078BF"/>
<path d="M430.476 382.476C431.654 383.467 433.004 384.231 434.46 384.732C435.19 384.969 435.972 385 436.719 384.822C437.466 384.644 438.15 384.264 438.696 383.724C439.896 382.296 439.608 380.124 438.828 378.336C437.268 374.916 431.532 369.096 427.128 370.764C420.768 373.2 427.644 380.4 430.476 382.476Z" fill="#8078BF"/>
<path d="M443.496 391.2C442.656 392.232 441.768 393.54 442.236 394.8C442.497 395.329 442.926 395.758 443.455 396.018C443.985 396.278 444.585 396.356 445.164 396.24C446.315 395.967 447.39 395.438 448.308 394.692C450.552 393.132 455.16 389.892 452.22 386.808C449.28 383.724 445.2 389.028 443.496 391.2Z" fill="#8078BF"/>
<path d="M424.715 347.676C424.231 347.704 423.768 347.884 423.391 348.19C423.014 348.495 422.743 348.912 422.615 349.38C422.423 350.496 423.347 351.468 424.235 352.152C426.467 353.88 433.175 358.512 434.663 354.036C436.079 349.812 427.667 347.352 424.715 347.676Z" fill="#8078BF"/>
<path d="M437.064 332.964C435.684 333.096 434.304 332.592 432.912 332.676C431.52 332.76 429.996 333.876 430.296 335.244C430.596 336.612 432.144 336.912 433.416 336.984C435.606 337.125 437.805 336.975 439.956 336.54C440.465 336.492 440.937 336.251 441.276 335.868C441.84 335.04 440.952 333.936 439.992 333.648C439.006 333.517 438.037 333.284 437.1 332.952L437.064 332.964Z" fill="#8078BF"/>
<path d="M450.576 342.48C451.956 342.48 453.3 341.928 454.692 341.916C456.084 341.904 457.692 342.924 457.464 344.316C457.236 345.708 455.748 346.104 454.476 346.26C452.301 346.548 450.098 346.548 447.924 346.26C447.409 346.248 446.919 346.037 446.556 345.672C445.944 344.892 446.76 343.728 447.684 343.368C448.662 343.185 449.616 342.891 450.528 342.492L450.576 342.48Z" fill="#8078BF"/>
<path d="M449.208 444.744C449.526 444.412 449.951 444.204 450.408 444.156C450.716 444.185 451.005 444.321 451.224 444.54C451.443 444.759 451.578 445.048 451.608 445.356C451.674 445.949 451.6 446.549 451.392 447.108C450.444 450.264 439.884 473.052 437.448 468.96C436.02 466.56 439.548 458.532 440.592 456.264C442.584 451.839 445.526 447.906 449.208 444.744V444.744Z" fill="#8078BF"/>
<path d="M444.06 339.6C444.06 339.6 443.424 334.068 444.756 333.6" stroke="#263238" stroke-linecap="round" stroke-linejoin="round"/>
<path d="M442.884 333.828C443.564 331.875 444.738 330.13 446.292 328.764C447.96 327.564 450.636 327.468 451.848 329.136C453.204 330.996 451.848 333.816 449.772 334.812C447.696 335.808 445.248 335.508 442.968 335.184C442.968 334.848 442.968 334.512 442.968 334.176L442.884 333.828Z" fill="#8078BF"/>
<path d="M448.572 511.932C437.259 513.84 425.708 513.84 414.396 511.932V511.932L401.1 472.704H461.868L448.572 511.932Z" fill="white" stroke="#263238" stroke-linecap="round" stroke-linejoin="round"/>
<path d="M216.66 228.516V228.648C216.708 228.864 216.756 229.092 216.804 229.332C217.347 231.96 217.748 234.616 218.004 237.288C218.232 239.58 218.4 242.196 218.46 245.112C218.583 251.834 218.133 258.554 217.116 265.2C216.852 266.952 216.54 268.8 216.168 270.648C215.58 273.696 214.848 276.888 213.972 280.188C213.564 281.724 213.12 283.296 212.64 284.88C212.448 285.528 212.256 286.164 212.076 286.812C211.896 287.46 211.632 288.372 211.428 289.212" stroke="#263238" stroke-linecap="round" stroke-linejoin="round"/>
<path d="M216.683 228.684C215.822 227.93 214.88 227.274 213.875 226.728C212.767 226.144 211.589 225.7 210.371 225.408" fill="white"/>
<path d="M216.683 228.684C215.822 227.93 214.88 227.274 213.875 226.728C212.767 226.144 211.589 225.7 210.371 225.408" stroke="#263238" stroke-linecap="round" stroke-linejoin="round"/>
<path d="M218.027 237.324L221.231 234.432" stroke="#263238" stroke-linecap="round" stroke-linejoin="round"/>
<path d="M213.972 280.248C213.8 279.405 213.547 278.582 213.216 277.788C212.743 276.624 212.1 275.536 211.308 274.56C210.716 273.827 210.044 273.163 209.304 272.58" stroke="#263238" stroke-linecap="round" stroke-linejoin="round"/>
<path d="M211.416 289.2C211.864 288.079 212.538 287.062 213.397 286.213C214.256 285.364 215.281 284.702 216.408 284.268" stroke="#263238" stroke-linecap="round" stroke-linejoin="round"/>
<path d="M205.859 333.888C206.927 332.592 207.743 327.684 208.175 325.044C208.271 324.42 208.367 323.844 208.439 323.496" fill="white"/>
<path d="M205.859 333.888C206.927 332.592 207.743 327.684 208.175 325.044C208.271 324.42 208.367 323.844 208.439 323.496" stroke="#263238" stroke-linecap="round" stroke-linejoin="round"/>
<path d="M197.64 342.744C197.999 342.708 198.361 342.708 198.72 342.744C200.29 342.901 201.789 343.48 203.057 344.42C204.325 345.36 205.314 346.627 205.92 348.084" fill="white"/>
<path d="M197.64 342.744C197.999 342.708 198.361 342.708 198.72 342.744C200.29 342.901 201.789 343.48 203.057 344.42C204.325 345.36 205.314 346.627 205.92 348.084" stroke="#263238" stroke-linecap="round" stroke-linejoin="round"/>
<path d="M216.155 270.744C216.155 270.744 216.731 251.268 206.027 244.2" stroke="#263238" stroke-linecap="round" stroke-linejoin="round"/>
<path d="M217.127 312.54C218.519 317.088 208.727 325.74 208.727 325.74C208.727 325.74 195.767 324.12 194.327 319.584C192.887 315.048 196.211 307.584 202.487 305.664C208.763 303.744 215.723 308.004 217.127 312.54Z" fill="#8078BF"/>
<path d="M227.999 257.424C226.799 262.224 217.487 265.668 217.487 265.668C217.487 265.668 211.019 258.192 212.267 253.368C213.515 248.544 218.627 243.24 222.971 244.356C227.315 245.472 229.199 252.6 227.999 257.424Z" fill="#8078BF"/>
<path d="M190.8 329.508C196.62 331.776 200.196 342.06 200.196 342.06C200.196 342.06 190.596 347.232 184.776 344.964C178.956 342.696 172.776 336.312 174.468 332.052C176.16 327.792 184.968 327.24 190.8 329.508Z" fill="#8078BF"/>
<path d="M203.555 272.868C204.729 273.858 206.076 274.623 207.527 275.124C208.258 275.361 209.039 275.392 209.787 275.214C210.534 275.036 211.217 274.656 211.763 274.116C212.963 272.688 212.675 270.516 211.895 268.728C210.335 265.308 204.611 259.488 200.195 261.156C193.847 263.568 200.711 270.768 203.555 272.868Z" fill="#8078BF"/>
<path d="M216.564 281.604C215.736 282.636 214.848 284.004 215.304 285.204C215.565 285.733 215.993 286.162 216.523 286.422C217.052 286.682 217.653 286.76 218.232 286.644C219.384 286.373 220.459 285.844 221.376 285.096C223.62 283.548 228.228 280.296 225.288 277.212C222.348 274.128 218.328 279.42 216.564 281.604Z" fill="#8078BF"/>
<path d="M197.784 238.068C197.3 238.098 196.837 238.278 196.461 238.584C196.084 238.889 195.813 239.305 195.684 239.772C195.492 240.888 196.416 241.86 197.316 242.544C199.548 244.272 206.244 248.904 207.744 244.428C209.148 240.204 200.748 237.744 197.784 238.068Z" fill="#8078BF"/>
<path d="M210.132 223.356C208.752 223.488 207.372 222.984 205.992 223.068C204.612 223.152 203.063 224.268 203.375 225.636C203.687 227.004 205.212 227.304 206.496 227.376C208.682 227.516 210.877 227.367 213.024 226.932C213.536 226.884 214.012 226.644 214.356 226.26C214.908 225.432 214.02 224.328 213.072 224.04C212.082 223.909 211.109 223.676 210.168 223.344L210.132 223.356Z" fill="#8078BF"/>
<path d="M223.643 232.872C225.035 232.872 226.379 232.32 227.759 232.308C229.139 232.296 230.759 233.316 230.543 234.708C230.327 236.1 228.815 236.496 227.543 236.652C225.369 236.94 223.166 236.94 220.991 236.652C220.476 236.64 219.986 236.429 219.623 236.064C219.011 235.284 219.827 234.12 220.763 233.76C221.741 233.574 222.694 233.28 223.607 232.884L223.643 232.872Z" fill="#8078BF"/>
<path d="M222.275 335.136C222.594 334.806 223.019 334.598 223.475 334.548C223.781 334.584 224.066 334.722 224.284 334.94C224.502 335.157 224.64 335.442 224.675 335.748C224.737 336.342 224.659 336.942 224.447 337.5C223.511 340.656 212.939 363.444 210.515 359.352C209.075 356.952 212.603 348.924 213.647 346.656C215.643 342.229 218.589 338.296 222.275 335.136V335.136Z" fill="#8078BF"/>
<path d="M217.128 230.016C217.128 230.016 216.492 224.484 217.836 224.016" stroke="#263238" stroke-linecap="round" stroke-linejoin="round"/>
<path d="M216 224.22C216.672 222.262 217.847 220.515 219.408 219.156C221.076 217.956 223.74 217.86 224.952 219.528C226.308 221.388 224.952 224.208 222.876 225.204C220.8 226.2 218.364 225.9 216.084 225.576C216.084 225.24 216.084 224.904 216.084 224.568L216 224.22Z" fill="#8078BF"/>
<path d="M64.6201 361.164V242.592" stroke="#263238" stroke-linecap="round" stroke-linejoin="round"/>
<path d="M434.82 361.164H420.168" stroke="#263238" stroke-linecap="round" stroke-linejoin="round"/>
<path d="M549.72 361.164H519.876" stroke="#263238" stroke-linecap="round" stroke-linejoin="round"/>
<path d="M418.824 181.032H471.708V130.656" stroke="#263238" stroke-linecap="round" stroke-linejoin="round"/>
<path d="M110.592 165.648H166.776V206.628H228.36" stroke="#263238" stroke-linecap="round" stroke-linejoin="round"/>
<path d="M77.4482 304.428V213.876" stroke="#263238" stroke-linecap="round" stroke-linejoin="round"/>
<path d="M102.552 174.576V245.544" stroke="#263238" stroke-linecap="round" stroke-linejoin="round"/>
<path d="M127.645 174.576V237.312" stroke="#263238" stroke-linecap="round" stroke-linejoin="round"/>
<path d="M152.736 174.576V284.316" stroke="#263238" stroke-linecap="round" stroke-linejoin="round"/>
<path d="M272.94 159.012V86.856H375.096V159.012" stroke="#263238" stroke-linecap="round" stroke-linejoin="round"/>
<path d="M280.428 122.7V95.4241H299.316" stroke="#263238" stroke-linecap="round" stroke-linejoin="round"/>
<path d="M303.468 122.7V95.4241H322.356" stroke="#263238" stroke-linecap="round" stroke-linejoin="round"/>
<path d="M326.508 122.7V95.4241H345.396" stroke="#263238" stroke-linecap="round" stroke-linejoin="round"/>
<path d="M349.548 122.7V95.4241H368.436" stroke="#263238" stroke-linecap="round" stroke-linejoin="round"/>
<path d="M280.428 159.012V131.736H299.316" stroke="#263238" stroke-linecap="round" stroke-linejoin="round"/>
<path d="M303.468 159.012V131.736H322.356" stroke="#263238" stroke-linecap="round" stroke-linejoin="round"/>
<path d="M326.508 159.012V131.736H345.396" stroke="#263238" stroke-linecap="round" stroke-linejoin="round"/>
<path d="M349.548 159.012V131.736H368.436" stroke="#263238" stroke-linecap="round" stroke-linejoin="round"/>
<path d="M479.893 136.896V227.316" stroke="#263238" stroke-linecap="round" stroke-linejoin="round"/>
<path d="M516.984 354.54H519.876" stroke="#263238" stroke-linecap="round" stroke-linejoin="round"/>
<path d="M502.128 162.864V264.096" stroke="#263238" stroke-linecap="round" stroke-linejoin="round"/>
<path d="M524.376 328.692V354.54H542.124" stroke="#263238" stroke-linecap="round" stroke-linejoin="round"/>
<path d="M524.376 195.864V264.612" stroke="#263238" stroke-linecap="round" stroke-linejoin="round"/>
<path d="M546.612 248.028V354.54H550.656" stroke="#263238" stroke-linecap="round" stroke-linejoin="round"/>
<path d="M275.628 363.336H46.4277V512.208H275.628V363.336Z" fill="white" stroke="#263238" stroke-linecap="round" stroke-linejoin="round"/>
<path d="M46.4277 363.336L161.028 437.772L275.628 363.336H46.4277Z" fill="white" stroke="#263238" stroke-linecap="round" stroke-linejoin="round"/>
<path d="M126.576 415.392L46.4277 512.208" stroke="#263238" stroke-linecap="round" stroke-linejoin="round"/>
<path d="M196.104 415.392L276.252 512.208" stroke="#263238" stroke-linecap="round" stroke-linejoin="round"/>
<path d="M398.28 173.376H345C343.466 173.378 341.96 173.791 340.639 174.572C339.318 175.352 338.23 176.473 337.488 177.816V177.816C336.179 180.179 334.261 182.148 331.934 183.52C329.606 184.891 326.954 185.614 324.252 185.614C321.551 185.614 318.899 184.891 316.571 183.52C314.244 182.148 312.326 180.179 311.016 177.816V177.816C310.281 176.455 309.191 175.319 307.862 174.526C306.534 173.734 305.015 173.316 303.468 173.316H250.248C248.788 173.297 247.337 173.566 245.98 174.108C244.623 174.649 243.387 175.453 242.34 176.472C241.294 177.492 240.459 178.708 239.882 180.05C239.306 181.392 238.999 182.835 238.98 184.296V484.8C239.022 487.749 240.231 490.562 242.344 492.621C244.456 494.679 247.299 495.815 250.248 495.78H398.28C401.231 495.815 404.075 494.679 406.19 492.621C408.304 490.563 409.516 487.751 409.56 484.8V184.356C409.519 181.405 408.308 178.59 406.193 176.531C404.078 174.473 401.232 173.338 398.28 173.376Z" fill="#8078BF"/>
<path d="M414.756 181.032C414.763 179.008 414.369 177.002 413.599 175.13C412.829 173.258 411.696 171.557 410.267 170.123C408.838 168.689 407.14 167.552 405.27 166.776C403.401 166 401.396 165.6 399.372 165.6H249.168C247.148 165.599 245.148 165.995 243.282 166.767C241.415 167.539 239.719 168.671 238.291 170.098C236.862 171.526 235.729 173.221 234.955 175.087C234.182 176.953 233.784 178.952 233.784 180.972V180.972V496.8C233.784 500.877 235.404 504.787 238.287 507.67C241.169 510.553 245.079 512.172 249.156 512.172H399.372C403.45 512.172 407.361 510.553 410.246 507.67C413.131 504.788 414.753 500.878 414.756 496.8V496.8V181.032ZM409.56 484.8C409.516 487.75 408.304 490.563 406.189 492.621C404.075 494.679 401.231 495.815 398.28 495.78H250.248C247.299 495.815 244.456 494.679 242.343 492.62C240.231 490.562 239.021 487.749 238.98 484.8V184.356C238.999 182.895 239.305 181.452 239.882 180.11C240.458 178.768 241.294 177.552 242.34 176.532C243.386 175.513 244.623 174.709 245.98 174.168C247.337 173.626 248.787 173.357 250.248 173.376H303.492C305.038 173.376 306.554 173.794 307.881 174.586C309.208 175.378 310.296 176.515 311.028 177.876V177.876C312.337 180.239 314.255 182.208 316.583 183.58C318.911 184.951 321.563 185.674 324.264 185.674C326.966 185.674 329.618 184.951 331.945 183.58C334.273 182.208 336.191 180.239 337.5 177.876C338.24 176.531 339.327 175.409 340.649 174.628C341.97 173.847 343.477 173.435 345.012 173.436H398.292C399.753 173.417 401.203 173.686 402.56 174.228C403.917 174.769 405.154 175.573 406.2 176.592C407.247 177.612 408.082 178.828 408.659 180.17C409.235 181.512 409.541 182.955 409.56 184.416V484.8Z" fill="#263238"/>
<path opacity="0.2" d="M363.72 165.648L263.94 512.196L303.564 512.16L399.648 165.648H363.72Z" fill="white"/>
<path opacity="0.2" d="M348.841 165.648L243.349 512.208L249.121 512.172L352.633 165.648H348.841Z" fill="white"/>
<path d="M351.18 423.276C351.253 426.711 350.639 430.126 349.373 433.32C348.106 436.514 346.213 439.422 343.806 441.874C341.398 444.325 338.524 446.269 335.354 447.593C332.183 448.916 328.78 449.592 325.344 449.58C318.333 449.554 311.611 446.788 306.611 441.873C301.612 436.959 298.731 430.285 298.584 423.276C298.512 419.842 299.127 416.428 300.395 413.236C301.662 410.043 303.555 407.136 305.962 404.687C308.37 402.237 311.243 400.293 314.413 398.97C317.583 397.647 320.985 396.972 324.42 396.984C331.429 397.008 338.152 399.771 343.152 404.683C348.151 409.596 351.033 416.268 351.18 423.276V423.276Z" fill="white" stroke="#263238" stroke-linecap="round" stroke-linejoin="round"/>
<path d="M316.26 442.908C313.818 442.005 311.579 440.626 309.672 438.852C307.75 437.006 306.263 434.756 305.316 432.264C304.238 429.471 303.704 426.498 303.744 423.504C303.729 420.952 304.181 418.418 305.076 416.028C305.89 413.821 307.111 411.785 308.676 410.028C311.761 406.654 315.745 404.231 320.16 403.044C322.328 402.46 324.563 402.165 326.808 402.168C328.672 402.16 330.53 402.381 332.34 402.828C334.087 403.257 335.758 403.949 337.296 404.88C338.82 405.795 340.185 406.95 341.34 408.3C342.544 409.756 343.464 411.425 344.052 413.22C344.725 415.268 345.058 417.413 345.036 419.568C345.011 423.734 343.51 427.756 340.8 430.92C339.635 432.241 338.256 433.357 336.72 434.22C335.396 434.98 333.902 435.392 332.376 435.42C331.323 435.434 330.294 435.101 329.448 434.472C329.024 434.158 328.678 433.749 328.439 433.279C328.199 432.808 328.072 432.288 328.068 431.76C327.281 432.957 326.201 433.933 324.93 434.594C323.659 435.256 322.24 435.582 320.808 435.54C319.682 435.59 318.558 435.388 317.52 434.948C316.482 434.508 315.555 433.841 314.808 432.996C313.31 431.255 312.518 429.016 312.588 426.72C312.598 424.831 312.927 422.956 313.56 421.176C314.191 419.382 315.085 417.692 316.212 416.16C317.336 414.655 318.768 413.407 320.412 412.5C322.056 411.572 323.913 411.089 325.8 411.096C327.113 411.083 328.407 411.396 329.568 412.008C330.695 412.609 331.609 413.544 332.184 414.684L332.424 413.88C332.616 413.317 333.022 412.853 333.556 412.59C334.089 412.326 334.705 412.286 335.268 412.476C335.486 412.55 335.692 412.655 335.88 412.788C336.059 412.931 336.201 413.114 336.295 413.323C336.389 413.532 336.432 413.76 336.42 413.988C336.421 414.213 336.384 414.436 336.312 414.648L332.424 427.584C332.081 428.57 331.86 429.593 331.764 430.632C331.728 430.826 331.741 431.026 331.801 431.214C331.86 431.402 331.966 431.572 332.107 431.709C332.248 431.847 332.421 431.948 332.61 432.003C332.799 432.058 332.999 432.065 333.192 432.024C334.568 431.936 335.857 431.322 336.792 430.308C338.089 429.027 339.085 427.473 339.708 425.76C340.453 423.889 340.836 421.894 340.836 419.88C340.852 418.107 340.593 416.342 340.068 414.648C339.627 413.188 338.928 411.818 338.004 410.604C337.129 409.499 336.07 408.553 334.872 407.808C333.679 407.055 332.375 406.492 331.008 406.14C329.606 405.772 328.162 405.586 326.712 405.588C324.873 405.591 323.044 405.849 321.276 406.356C319.456 406.872 317.722 407.652 316.128 408.672C314.522 409.686 313.067 410.922 311.808 412.344C310.511 413.842 309.502 415.567 308.832 417.432C308.079 419.463 307.7 421.614 307.716 423.78C307.677 426.346 308.142 428.894 309.084 431.28C309.897 433.346 311.179 435.195 312.828 436.68C314.422 438.064 316.262 439.134 318.252 439.836C320.352 440.579 322.565 440.952 324.792 440.94C327.173 440.94 329.54 440.58 331.812 439.872C332.039 439.791 332.279 439.75 332.52 439.752C332.745 439.749 332.969 439.793 333.175 439.882C333.382 439.971 333.568 440.102 333.72 440.268C333.873 440.428 333.994 440.616 334.074 440.822C334.154 441.027 334.193 441.247 334.188 441.468C334.217 441.817 334.119 442.165 333.912 442.447C333.704 442.729 333.402 442.927 333.06 443.004C330.228 443.87 327.286 444.323 324.324 444.348C321.573 444.345 318.843 443.857 316.26 442.908V442.908ZM326.172 430.464C327.359 429.612 328.238 428.4 328.68 427.008L331.188 418.188L331.02 417.828C330.864 417.539 330.675 417.269 330.456 417.024C330.156 416.677 329.826 416.356 329.472 416.064C329.023 415.705 328.515 415.425 327.972 415.236C326.552 414.74 324.997 414.796 323.616 415.392C322.86 415.713 322.165 416.163 321.564 416.724C320.94 417.307 320.384 417.959 319.908 418.668C319.432 419.407 319.03 420.19 318.708 421.008C318.371 421.826 318.11 422.674 317.928 423.54C317.747 424.364 317.654 425.205 317.652 426.048C317.642 426.59 317.674 427.132 317.748 427.668C317.804 428.146 317.908 428.616 318.06 429.072C318.192 429.496 318.382 429.9 318.624 430.272C318.842 430.607 319.118 430.9 319.44 431.136C319.784 431.385 320.17 431.568 320.58 431.676C321.059 431.817 321.557 431.881 322.056 431.868C323.558 431.887 325.022 431.405 326.22 430.5L326.172 430.464Z" fill="#8078BF" stroke="#263238" stroke-linecap="round" stroke-linejoin="round"/>
<path d="M350.592 333.12C350.664 336.554 350.049 339.968 348.782 343.16C347.515 346.353 345.622 349.26 343.214 351.71C340.807 354.16 337.933 356.103 334.764 357.426C331.594 358.749 328.191 359.424 324.756 359.412C317.747 359.389 311.025 356.626 306.025 351.713C301.025 346.801 298.144 340.128 297.996 333.12C297.921 329.685 298.534 326.269 299.8 323.074C301.066 319.88 302.959 316.971 305.367 314.519C307.775 312.068 310.649 310.123 313.82 308.8C316.992 307.477 320.396 306.802 323.832 306.816C330.843 306.843 337.565 309.608 342.565 314.523C347.565 319.437 350.445 326.111 350.592 333.12V333.12Z" fill="white" stroke="#263238" stroke-linecap="round" stroke-linejoin="round"/>
<path d="M340.8 330.72C332.556 325.32 316.392 325.32 308.532 330.72C307.095 330.99 305.802 331.767 304.89 332.91C303.978 334.054 303.507 335.487 303.564 336.948C303.684 340.44 318.192 340.44 318.072 336.948C318.001 335.488 317.444 334.094 316.488 332.988C321.929 331.812 327.559 331.812 333 332.988C332.115 334.114 331.656 335.517 331.704 336.948C331.824 340.44 346.332 340.44 346.2 336.948C346.132 335.454 345.562 334.026 344.582 332.896C343.602 331.766 342.27 330.999 340.8 330.72V330.72Z" fill="#8078BF" stroke="#263238" stroke-linecap="round" stroke-linejoin="round"/>
<path d="M350.592 245.544C350.736 252.012 347.208 257.796 341.544 261.648V277.356L330.276 266.076C328.454 266.402 326.607 266.562 324.756 266.556C310.236 266.556 298.248 257.148 297.996 245.544C297.744 233.94 309.3 224.544 323.832 224.544C338.364 224.544 350.4 234 350.592 245.544Z" fill="white" stroke="#263238" stroke-linecap="round" stroke-linejoin="round"/>
<path d="M313.092 245.544C313.095 246.219 312.897 246.879 312.524 247.441C312.151 248.003 311.619 248.441 310.997 248.701C310.374 248.961 309.689 249.03 309.027 248.9C308.365 248.77 307.757 248.446 307.279 247.97C306.801 247.494 306.475 246.887 306.343 246.225C306.21 245.564 306.277 244.878 306.535 244.255C306.792 243.631 307.229 243.098 307.79 242.723C308.35 242.348 309.01 242.148 309.684 242.148C310.586 242.148 311.451 242.505 312.09 243.142C312.729 243.779 313.089 244.642 313.092 245.544V245.544Z" fill="#8078BF" stroke="#263238" stroke-linecap="round" stroke-linejoin="round"/>
<path d="M327.672 245.544C327.675 246.219 327.477 246.879 327.104 247.441C326.731 248.003 326.199 248.441 325.577 248.701C324.954 248.961 324.269 249.03 323.607 248.9C322.945 248.77 322.337 248.446 321.859 247.97C321.381 247.494 321.055 246.887 320.923 246.225C320.79 245.564 320.857 244.878 321.115 244.255C321.372 243.631 321.809 243.098 322.37 242.723C322.93 242.348 323.59 242.148 324.264 242.148C325.166 242.148 326.031 242.505 326.67 243.142C327.309 243.779 327.669 244.642 327.672 245.544V245.544Z" fill="#8078BF" stroke="#263238" stroke-linecap="round" stroke-linejoin="round"/>
<path d="M342.252 245.544C342.255 246.219 342.057 246.879 341.684 247.441C341.311 248.003 340.78 248.441 340.157 248.701C339.535 248.961 338.849 249.03 338.187 248.9C337.525 248.77 336.917 248.446 336.439 247.97C335.961 247.494 335.635 246.887 335.503 246.225C335.37 245.564 335.437 244.878 335.695 244.255C335.952 243.631 336.389 243.098 336.95 242.723C337.511 242.348 338.17 242.148 338.844 242.148C339.746 242.148 340.611 242.505 341.25 243.142C341.889 243.779 342.249 244.642 342.252 245.544V245.544Z" fill="#8078BF" stroke="#263238" stroke-linecap="round" stroke-linejoin="round"/>
<path d="M177.36 293.436C176.934 294.228 176.32 294.904 175.572 295.404C170.036 299.82 164.372 304.056 158.58 308.112C156.456 309.6 154.248 311.136 152.196 312.804C139.86 321.06 147.396 323.076 139.86 340.548C138.084 344.724 138.408 365.184 138.408 365.184H137.796C136.351 363.758 134.816 362.428 133.2 361.2V361.2C132.976 361.05 132.744 360.913 132.504 360.792V360.792C132.278 360.676 132.035 360.599 131.784 360.564C130.584 360.492 126.012 361.044 121.392 360.744L120.192 360.648C119.52 360.576 118.86 360.492 118.2 360.372C117.54 360.252 116.904 360.12 116.292 359.952C111.907 358.546 107.608 356.887 103.416 354.984V354.984L101.328 354.084L100.296 353.64L99.3597 353.232L98.6877 352.944L98.0397 352.668C96.9477 352.212 95.9277 351.792 94.9917 351.468C94.5627 351.314 94.1261 351.182 93.6837 351.072C93.6837 352.056 93.5277 353.064 93.3957 354.048C92.8197 358.74 91.5357 363.072 89.2437 363.648C89.1965 363.66 89.1469 363.66 89.0997 363.648C88.8978 363.686 88.6931 363.706 88.4877 363.708H88.3077C87.8 363.698 87.2973 363.605 86.8197 363.432V363.432C84.7396 362.544 83.0397 360.951 82.0197 358.932C81.5639 358.081 81.3094 357.137 81.2757 356.172C81.2757 352.68 80.3037 332.076 80.3037 326.076C80.3037 320.076 81.5037 309.576 84.4917 305.676C85.6594 304.022 87.1342 302.609 88.8357 301.512C91.0251 299.687 93.5362 298.287 96.2397 297.384C99.4317 296.34 106.572 293.676 111.552 291.792L104.028 294.696C105.936 297.96 110.028 303.096 117.408 303.756C124.344 304.344 128.64 298.068 130.836 293.484C131.028 293.556 143.1 291.264 145.896 291.396C155.004 291.792 162.432 286.86 165.792 284.904C166.805 284.298 167.942 283.93 169.118 283.825C170.295 283.721 171.479 283.884 172.583 284.302C173.687 284.719 174.683 285.381 175.496 286.238C176.308 287.094 176.917 288.123 177.276 289.248V289.356C177.801 290.66 177.831 292.111 177.36 293.436V293.436Z" fill="#8078BF" stroke="#263238" stroke-linecap="round" stroke-linejoin="round"/>
<path d="M130.703 293.556L130.151 293.364L130.703 293.556Z" fill="white" stroke="#263238" stroke-linecap="round" stroke-linejoin="round"/>
<path d="M140.94 370.464C140.946 370.512 140.946 370.56 140.94 370.608C140.891 370.724 140.817 370.827 140.723 370.911C140.629 370.994 140.517 371.056 140.397 371.09C140.276 371.125 140.148 371.132 140.024 371.111C139.9 371.089 139.783 371.041 139.68 370.968C139.128 370.656 138.276 368.652 138.276 368.652L137.328 367.668L136.704 367.008C136.8 367.248 137.556 369.084 137.16 369.936C137.14 369.994 137.107 370.048 137.064 370.092C136.799 370.446 136.455 370.734 136.059 370.932C135.663 371.13 135.227 371.232 134.784 371.232V371.232C134.268 371.232 132.756 371.412 131.436 371.496H131.292C130.892 371.518 130.492 371.518 130.092 371.496C129.027 371.359 127.999 371.012 127.068 370.476C124.957 370.166 122.877 369.672 120.852 369L120.492 368.808L120.168 368.616C119.955 368.487 119.758 368.334 119.58 368.16C118.849 367.55 118.228 366.82 117.744 366V366C117.744 366 112.872 365.796 106.332 365.292C103.932 365.112 101.34 364.884 98.6522 364.62C94.5242 364.2 91.1162 364.224 88.4402 363.852H88.2482C87.7202 363.78 87.2282 363.684 86.7602 363.576C85.6181 363.353 84.562 362.812 83.713 362.016C82.8641 361.22 82.2566 360.201 81.9602 359.076C81.803 358.543 81.6749 358.002 81.5762 357.456L83.6642 353.856C84.7524 352.983 85.9661 352.279 87.2642 351.768C89.2781 350.925 91.502 350.72 93.6362 351.18C94.0785 351.29 94.5151 351.422 94.9442 351.576C95.8802 351.936 96.9002 352.356 97.9922 352.776L98.6522 353.052L99.3242 353.34L100.26 353.748C105.6 355.956 111.972 358.8 116.232 360C117.512 360.335 118.816 360.568 120.132 360.696L121.332 360.792C125.952 361.092 130.512 360.54 131.724 360.612C132.936 360.684 135.9 363.504 137.796 365.244C138.312 365.724 138.768 366.12 139.08 366.36L139.224 366.48L139.332 366.576C140.019 367.281 140.501 368.161 140.724 369.12C140.724 369.12 140.724 369.12 140.724 369.12C140.819 369.441 140.883 369.771 140.916 370.104C140.938 370.223 140.946 370.343 140.94 370.464V370.464Z" fill="white" stroke="#263238" stroke-linecap="round" stroke-linejoin="round"/>
<path d="M140.94 370.464C140.946 370.512 140.946 370.56 140.94 370.608C140.89 370.723 140.815 370.825 140.72 370.907C140.626 370.99 140.514 371.05 140.393 371.083C140.272 371.116 140.145 371.122 140.022 371.1C139.899 371.078 139.782 371.029 139.68 370.956C139.086 370.267 138.612 369.485 138.276 368.64L137.328 367.668L136.704 367.02C136.788 367.212 137.568 369.084 137.172 369.948C137.152 370.006 137.119 370.06 137.076 370.104C136.943 370.281 136.79 370.442 136.62 370.584C136.102 371 135.46 371.228 134.796 371.232V371.232C134.268 371.232 132.768 371.4 131.46 371.496H131.292C130.892 371.518 130.492 371.518 130.092 371.496C129.033 371.355 128.011 371.012 127.08 370.488C124.969 370.172 122.889 369.674 120.864 369L120.516 368.832L120.192 368.64C119.984 368.503 119.788 368.351 119.604 368.184C118.862 367.569 118.232 366.83 117.744 366V366C117.744 366 113.016 365.796 106.608 365.304C104.208 365.124 101.436 364.884 98.6518 364.608C94.8598 364.236 91.7278 364.128 89.1958 363.732L88.4158 363.588L87.5158 363.384C87.3083 361.913 87.4607 360.415 87.9598 359.016C88.425 357.836 89.1464 356.774 90.0719 355.906C90.9974 355.039 92.1041 354.388 93.3118 354V354C94.8107 353.449 96.3465 353.004 97.9078 352.668L98.5558 352.944L99.2278 353.232L100.164 353.64C105.6 355.98 111.9 358.812 116.172 359.976C117.45 360.313 118.755 360.542 120.072 360.66L121.272 360.756C125.892 361.068 130.452 360.516 131.664 360.588C132.876 360.66 135.828 363.468 137.664 365.208C138.08 365.606 138.517 365.982 138.972 366.336L139.116 366.444L139.224 366.54C139.924 367.235 140.408 368.119 140.616 369.084C140.71 369.405 140.775 369.735 140.808 370.068C140.869 370.194 140.914 370.327 140.94 370.464V370.464Z" fill="white" stroke="#263238" stroke-linecap="round" stroke-linejoin="round"/>
<path d="M126.576 367.272C126.576 367.272 129.3 368.688 130.38 369.18C131.46 369.672 131.364 371.652 131.364 371.652" fill="white"/>
<path d="M126.576 367.272C126.576 367.272 129.3 368.688 130.38 369.18C131.46 369.672 131.364 371.652 131.364 371.652" stroke="#263238" stroke-linecap="round" stroke-linejoin="round"/>
<path d="M129.492 365.352C131.206 366.575 132.856 367.885 134.436 369.276C134.667 369.547 134.817 369.877 134.87 370.229C134.924 370.581 134.877 370.941 134.736 371.268" fill="white"/>
<path d="M129.492 365.352C131.206 366.575 132.856 367.885 134.436 369.276C134.667 369.547 134.817 369.877 134.87 370.229C134.924 370.581 134.877 370.941 134.736 371.268" stroke="#263238" stroke-linecap="round" stroke-linejoin="round"/>
<path d="M136.668 366.996C135.248 365.475 133.746 364.033 132.168 362.676Z" fill="white"/>
<path d="M136.668 366.996C135.248 365.475 133.746 364.033 132.168 362.676" stroke="#263238" stroke-linecap="round" stroke-linejoin="round"/>
<path d="M130.692 293.58C128.52 298.152 124.212 304.38 117.276 303.84C109.932 303.216 105.804 298.044 103.896 294.768C106.536 293.76 109.212 292.728 111.408 291.864C111.408 289.632 111.336 286.956 111.096 284.304C111.096 283.728 110.976 283.104 110.916 282.564C110.856 282.024 110.784 281.64 110.712 281.196H124.668C124.668 281.196 124.584 281.748 124.476 282.672C124.392 283.5 124.284 284.604 124.2 285.852C124.092 287.508 124.02 289.452 124.068 291.288C124.74 291.516 125.424 291.768 126.108 292.032L127.428 292.488C127.956 292.68 128.472 292.848 129.024 293.028L130.224 293.388C130.383 293.442 130.54 293.506 130.692 293.58V293.58Z" fill="white" stroke="#263238" stroke-linecap="round" stroke-linejoin="round"/>
<path d="M110.916 282.516C110.916 282.516 113.52 289.284 117.3 290.436C121.08 291.588 124.5 282.672 124.5 282.672C124.5 282.672 119.172 288.36 117.192 287.472C115.212 286.584 110.94 282.564 110.94 282.564" fill="#263238"/>
<path d="M108.672 245.136C105.145 248.311 102.349 252.212 100.476 256.572C98.7596 260.172 97.3076 264.312 98.6276 268.08C99.4175 269.951 100.535 271.666 101.928 273.144C104.52 276.252 108.156 284.928 110.748 288.036C110.916 282.504 106.284 273.564 106.776 268.92C107.371 265.332 108.551 261.866 110.268 258.66C112.013 254.455 114.296 250.494 117.06 246.876C118.632 244.98 123.684 241.608 118.584 241.2C115.2 240.924 111.228 243.036 108.672 245.136Z" fill="#263238" stroke="#263238" stroke-linecap="round" stroke-linejoin="round"/>
<path d="M105.408 264C105.408 264 103.62 260.532 101.736 263.82C100.38 266.22 102.336 270 103.176 271.404C103.455 271.804 103.832 272.124 104.272 272.335C104.711 272.545 105.198 272.638 105.684 272.604L105.408 264Z" fill="white" stroke="#263238" stroke-linecap="round" stroke-linejoin="round"/>
<path d="M128.904 276.528C127.757 278.794 126.263 280.867 124.476 282.672L123.396 283.788C121.164 285.996 118.752 287.748 117.168 287.388C115.788 287.112 113.988 285.696 112.224 283.884C111.78 283.44 111.348 282.96 110.916 282.48C108.995 280.379 107.347 278.044 106.008 275.532C105.636 274.59 105.398 273.6 105.3 272.592C104.997 269.586 104.893 266.564 104.988 263.544C104.988 262.476 104.988 261.624 104.988 261.144C104.988 259.056 112.812 251.796 112.812 251.796C113.023 251.719 113.25 251.694 113.472 251.724C114.818 251.969 116.115 252.431 117.312 253.092C122.052 255.396 128.664 259.968 129.144 261.708C129.876 264.24 129.6 274.272 128.904 276.528Z" fill="white" stroke="#263238" stroke-linecap="round" stroke-linejoin="round"/>
<path d="M113.364 266.904C113.364 267.744 113.052 268.428 112.704 268.428C112.356 268.428 112.008 267.768 112.008 266.904C112.008 266.04 112.32 265.356 112.704 265.356C113.088 265.356 113.364 266.064 113.364 266.904Z" fill="#263238"/>
<path d="M122.303 265.368C122.687 265.368 122.999 266.052 122.999 266.904C122.999 267.756 122.687 268.428 122.303 268.428C121.919 268.428 121.607 267.744 121.607 266.904C121.607 266.064 121.919 265.368 122.303 265.368Z" fill="#263238"/>
<path d="M108.899 263.124C108.899 263.124 110.099 260.724 114.347 261.456" stroke="#263238" stroke-linecap="round" stroke-linejoin="round"/>
<path d="M126.252 263.124C126.252 263.124 125.052 260.724 120.804 261.456" stroke="#263238" stroke-linecap="round" stroke-linejoin="round"/>
<path d="M118.392 272.772C118.823 272.745 119.235 272.58 119.565 272.301C119.896 272.023 120.128 271.645 120.228 271.224C120.228 271.224 117.9 267.624 118.608 264.096" stroke="#263238" stroke-linecap="round" stroke-linejoin="round"/>
<path d="M103.895 255.6C102.929 256.912 102.198 258.382 101.735 259.944" stroke="white" stroke-linecap="round" stroke-linejoin="round"/>
<path d="M113.927 246C113.927 246 112.595 248.208 106.727 252.708C106.349 252.981 105.989 253.278 105.647 253.596" stroke="white" stroke-linecap="round" stroke-linejoin="round"/>
<path d="M95.1119 316.356C94.3119 327.764 93.5119 339.18 92.7119 350.604V349.728" fill="#263238"/>
<path d="M95.1119 316.356C94.3119 327.764 93.5119 339.18 92.7119 350.604V349.728" stroke="#263238" stroke-linecap="round" stroke-linejoin="round"/>
<path d="M170.916 278.688C172.001 278.264 173.173 278.113 174.33 278.246C175.486 278.38 176.593 278.796 177.552 279.456C179.466 280.811 180.859 282.78 181.5 285.036C182.265 287.282 182.188 289.73 181.284 291.924C180.816 293.006 180.063 293.94 179.106 294.627C178.149 295.313 177.022 295.727 175.848 295.824C174.098 295.802 172.406 295.189 171.048 294.084C166.56 290.724 164.316 281.532 170.916 278.688Z" fill="white" stroke="#263238" stroke-linecap="round" stroke-linejoin="round"/>
<path d="M180.852 240.372C180.852 240.516 180.852 241.464 180.936 241.632C181.356 243.48 182.244 248.1 180 249.036C180.852 252.072 182.94 271.908 182.664 282.024C182.592 285.048 182.064 288.636 179.352 289.932C174.78 292.104 170.436 286.812 170.952 282.672C171.756 277.02 171.48 271.26 172.152 265.548C172.884 259.62 174.228 253.548 172.752 247.752C172.392 247.356 170.088 242.784 169.332 241.524C168.993 240.986 168.726 240.404 168.54 239.796C168.244 237.725 168.1 235.636 168.108 233.544C168.792 232.248 169.68 233.448 170.148 234.3C170.529 235.339 170.661 236.453 170.532 237.552C170.487 237.821 170.525 238.097 170.64 238.344C170.74 238.485 170.877 238.598 171.035 238.669C171.193 238.741 171.367 238.769 171.54 238.752C173.016 238.536 172.956 237.3 172.932 236.352C172.932 233.172 172.932 229.992 172.932 226.836C172.932 226.308 173.1 224.88 173.604 224.832C174.108 224.784 174.864 225.192 174.936 226.884C175.02 228.792 175.02 234.672 175.02 234.672C175.067 234.72 175.126 234.756 175.192 234.775C175.257 234.794 175.326 234.795 175.392 234.78C175.512 234.78 175.56 234.564 175.608 234.444C176.316 231.492 177.036 228.54 177.744 225.588C177.828 225.24 178.344 224.52 178.716 224.52C179.604 224.52 179.628 225.552 179.676 225.852C179.988 227.436 177.768 233.964 177.396 235.452C177.396 235.716 177.396 236.112 177.672 236.04L181.152 229.02C181.313 228.61 181.567 228.243 181.894 227.947C182.221 227.651 182.612 227.435 183.036 227.316C183.094 227.298 183.157 227.298 183.216 227.316C183.278 227.352 183.329 227.407 183.36 227.472C183.696 228.072 183.36 228.9 183.168 229.56C182.976 230.22 180.372 235.068 179.448 237.024C179.316 237.3 179.1 237.924 179.364 238.224C179.628 238.524 180.108 237.948 180.3 237.552C180.888 236.352 181.44 235.224 181.98 234.048C182.148 233.7 182.4 233.208 182.796 233.292C185.136 233.796 181.812 238.704 180.852 240.372Z" fill="white" stroke="#263238" stroke-linecap="round" stroke-linejoin="round"/>
<path d="M174.396 239.34C175.604 240.297 176.653 241.439 177.504 242.724C177.923 243.37 178.204 244.096 178.328 244.856C178.452 245.617 178.416 246.394 178.224 247.14C178.165 247.335 178.089 247.523 177.996 247.704" fill="white"/>
<path d="M174.396 239.34C175.604 240.297 176.653 241.439 177.504 242.724C177.923 243.37 178.204 244.096 178.328 244.856C178.452 245.617 178.416 246.394 178.224 247.14C178.165 247.335 178.089 247.523 177.996 247.704" stroke="#263238" stroke-linecap="round" stroke-linejoin="round"/>
<path d="M140.592 314.304C141.862 316.865 142.716 319.611 143.124 322.44C143.472 325.272 143.58 327.492 141.648 335.448" stroke="#263238" stroke-linecap="round" stroke-linejoin="round"/>
<path d="M113.508 249.996C113.344 250.486 113.303 251.01 113.388 251.52C113.616 252.162 114.035 252.719 114.588 253.116C118.424 256.477 122.714 259.281 127.332 261.444C127.911 261.595 128.413 261.956 128.74 262.458C129.066 262.96 129.193 263.565 129.096 264.156V273.432C129.155 274.389 129.062 275.349 128.82 276.276C128.148 278.436 126.66 280.176 125.58 282.168C124.482 284.057 123.926 286.212 123.972 288.396C123.672 286.104 131.688 281.664 133.86 272.64C134.16 271.368 140.4 263.796 136.656 254.904C133.056 246.372 127.392 242.7 125.484 242.256C124.189 241.877 122.822 241.813 121.497 242.067C120.172 242.322 118.927 242.888 117.864 243.72C115.767 245.282 114.238 247.485 113.508 249.996V249.996Z" fill="#263238" stroke="#263238" stroke-linecap="round" stroke-linejoin="round"/>
<path d="M121.368 276C120.684 276.144 119.988 276.276 119.292 276.36C116.892 276.66 114.324 276.288 112.752 274.536C112.872 276.108 113.952 282.048 117.18 282.216C120.408 282.384 121.368 276 121.368 276Z" stroke="#263238" stroke-linecap="round" stroke-linejoin="round"/>
<path d="M118.248 246.372C119.632 249.514 121.837 252.225 124.632 254.22C126.66 255.672 128.976 256.716 130.836 258.372C133.236 260.568 134.808 264.048 133.884 267.204" stroke="white" stroke-linecap="round" stroke-linejoin="round"/>
<path d="M143.327 294.852C141.016 296.707 139.493 299.37 139.067 302.304C138.654 304.839 138.966 307.439 139.967 309.804" stroke="#263238" stroke-linecap="round" stroke-linejoin="round"/>
<path d="M98.628 314.652C98.436 317.796 96.48 320.52 94.584 323.052Z" fill="#263238"/>
<path d="M98.628 314.652C98.436 317.796 96.48 320.52 94.584 323.052" stroke="#263238" stroke-linecap="round" stroke-linejoin="round"/>
<path d="M93.9473 338.688C94.9004 340.284 96.1761 341.663 97.6928 342.737C99.2095 343.812 100.934 344.558 102.755 344.928" stroke="#263238" stroke-linecap="round" stroke-linejoin="round"/>
<path d="M139.86 340.56C139.86 340.56 136.632 345.36 125.664 346.368" stroke="#263238" stroke-linecap="round" stroke-linejoin="round"/>
<path d="M461.16 298.5C461.16 298.5 419.34 311.46 411.468 301.224L412.536 249.012H418.884L426.348 285.792L460.62 279.516C460.62 279.516 465.012 293.124 461.16 298.5Z" fill="white"/>
<path d="M443.544 300.324C441.146 301.277 438.857 302.484 436.716 303.924C439.548 304.824 442.572 303.684 445.404 302.784C449.144 301.636 452.956 300.738 456.816 300.096C456.996 299.028 455.616 296.592 455.076 295.644C454.092 293.988 453.876 293.844 452.22 294.66C449.208 296.172 446.64 298.8 443.544 300.324Z" fill="#8078BF"/>
<path d="M461.16 298.5C461.16 298.5 419.34 311.46 411.468 301.224L412.536 249.012H418.884L426.348 285.792L460.62 279.516C460.62 279.516 465.012 293.124 461.16 298.5Z" stroke="#263238" stroke-linecap="round" stroke-linejoin="round"/>
<path d="M457.055 299.868L464.399 345.084C464.207 374.388 478.187 369.984 487.895 369.9C499.115 369.804 516.143 358.68 507.791 341.364L511.007 278.688L491.459 277.2C485.015 276.696 458.615 277.524 456.515 280.896C451.067 289.644 457.055 299.868 457.055 299.868Z" fill="white"/>
<path d="M458.208 303.6C462.57 320.1 473.03 334.329 487.476 343.416C485.912 343.169 484.384 342.729 482.928 342.108C481.463 341.477 479.821 341.388 478.296 341.856C477.928 341.989 477.589 342.193 477.3 342.457C477.011 342.72 476.776 343.039 476.61 343.393C476.444 343.747 476.35 344.131 476.332 344.522C476.315 344.913 476.374 345.304 476.508 345.672C476.858 346.234 477.335 346.707 477.9 347.052C480.283 348.727 482.888 350.06 485.64 351.012C483.226 350.764 480.788 350.951 478.44 351.564C478.008 353.652 480.336 355.164 482.172 356.184C485.101 357.911 487.61 360.268 489.516 363.084C483.073 363.098 476.635 363.466 470.232 364.188C469.388 364.377 468.505 364.293 467.712 363.948C466.881 363.33 466.322 362.414 466.152 361.392C464.725 356.4 463.895 351.256 463.68 346.068C463.56 343.152 463.68 340.212 463.296 337.32C462.987 335.04 462.562 332.777 462.024 330.54C460.16 321.884 458.732 313.16 457.74 304.368C457.296 304.404 458.208 303.6 458.208 303.6Z" fill="#8078BF"/>
<path d="M507.78 300C506.161 299.481 504.652 298.667 503.328 297.6C503.7 299.4 506.388 302.508 507.96 303.468C508.284 303.672 508.752 303.84 509.04 303.564C509.328 303.288 509.52 302.58 509.808 302.364L507.78 300Z" fill="#8078BF"/>
<path d="M457.055 299.868L464.399 345.084C464.207 374.388 478.187 369.984 487.895 369.9C499.115 369.804 516.143 358.68 507.791 341.364L511.007 278.688L491.459 277.2C485.015 276.696 458.615 277.524 456.515 280.896C451.067 289.644 457.055 299.868 457.055 299.868Z" stroke="#263238" stroke-linecap="round" stroke-linejoin="round"/>
<path d="M471.348 276.276C469.244 280.127 468.232 284.48 468.42 288.864C468.417 289.247 468.49 289.626 468.636 289.98C469.176 291.048 470.652 291.048 471.84 291.18C476.46 291.768 479.328 296.64 483.684 298.272C483.836 298.366 484.006 298.429 484.184 298.455C484.361 298.482 484.542 298.473 484.716 298.428C484.889 298.383 485.052 298.304 485.195 298.195C485.337 298.085 485.456 297.948 485.544 297.792C487.44 295.392 488.112 292.02 490.704 290.472C491.832 289.8 493.26 289.524 494.04 288.468C494.928 287.268 494.532 285.54 494.1 284.076C493.392 281.676 492.6 279.18 490.764 277.512C488.808 275.985 486.405 275.142 483.924 275.112C480.292 274.815 476.637 275.156 473.124 276.12C473.172 276.576 471.348 276.276 471.348 276.276Z" fill="#8078BF" stroke="#263238" stroke-linecap="round" stroke-linejoin="round"/>
<path d="M529.428 306.96C526.495 302.689 524.334 297.937 523.044 292.92C522.574 290.406 521.842 287.949 520.86 285.588C519.934 283.764 518.596 282.181 516.953 280.963C515.31 279.744 513.406 278.925 511.392 278.568C510.533 278.379 509.638 278.42 508.8 278.688C507.06 279.348 506.292 281.352 505.944 283.176C505.191 287.094 505.413 291.137 506.592 294.948C507.396 297.54 517.056 316.332 523.392 323.616C522.84 319.944 527.064 307.668 529.428 306.96Z" fill="white"/>
<path d="M510.48 303.276L516.408 314.448C517.26 316.044 518.22 317.748 519.876 318.444C518.834 314.753 518.242 310.949 518.112 307.116C518.177 305.19 517.955 303.265 517.452 301.404C517.212 301.608 516.96 300.744 516.96 300.744C516.696 301.236 516 301.248 515.46 301.14C511.584 300.324 508.92 296.868 506.616 293.652C506.316 294.729 506.269 295.861 506.477 296.96C506.685 298.059 507.143 299.095 507.816 299.988C507.816 299.988 510.288 302.904 510.48 303.276Z" fill="#8078BF"/>
<path d="M529.428 306.96C526.495 302.689 524.334 297.937 523.044 292.92C522.574 290.406 521.842 287.949 520.86 285.588C519.934 283.764 518.596 282.181 516.953 280.963C515.31 279.744 513.406 278.925 511.392 278.568C510.533 278.379 509.638 278.42 508.8 278.688C507.06 279.348 506.292 281.352 505.944 283.176C505.191 287.094 505.413 291.137 506.592 294.948C507.396 297.54 517.056 316.332 523.392 323.616C522.84 319.944 527.064 307.668 529.428 306.96Z" stroke="#263238" stroke-linecap="round" stroke-linejoin="round"/>
<path d="M521.1 320.4C514.644 308.028 517.764 279.516 517.572 274.932L526.092 274.476C526.944 274.476 530.892 298.788 533.58 308.88C535.98 318.072 533.676 327.372 529.428 327.372C525.9 327.372 522.456 323.004 521.1 320.4Z" fill="white" stroke="#263238" stroke-linecap="round" stroke-linejoin="round"/>
<path d="M444.168 288.276C450.168 279.516 461.94 278.82 461.94 278.82" stroke="#263238" stroke-linecap="round" stroke-linejoin="round"/>
<path d="M421.02 293.184C422.834 291.517 424.257 289.468 425.184 287.184Z" fill="white"/>
<path d="M421.02 293.184C422.834 291.517 424.257 289.468 425.184 287.184" stroke="#263238" stroke-linecap="round" stroke-linejoin="round"/>
<path d="M465.6 334.584C469.02 340.188 491.172 346.176 500.004 344.892" stroke="#263238" stroke-linecap="round" stroke-linejoin="round"/>
<path d="M471.863 350.4C478.244 351.498 484.784 351.249 491.063 349.668" stroke="#263238" stroke-linecap="round" stroke-linejoin="round"/>
<path d="M501.252 296.028L505.476 301.752C506.052 302.532 506.856 303.408 507.804 303.192" stroke="#263238" stroke-linecap="round" stroke-linejoin="round"/>
<path d="M532.644 513.156C532.272 514.68 532.152 516.492 533.244 517.632C534.336 518.772 535.92 518.748 537.396 518.724L542.472 518.628C544.43 518.726 546.386 518.419 548.22 517.728C549.137 517.371 549.923 516.742 550.47 515.924C551.018 515.106 551.3 514.14 551.28 513.156C551.155 512.395 550.912 511.658 550.56 510.972C550.104 509.988 549.648 508.992 549.204 508.008C543.6 495.66 535.044 503.172 532.644 513.156Z" fill="white" stroke="#263238" stroke-linecap="round" stroke-linejoin="round"/>
<path d="M525.492 498.6C525.669 504.268 525.194 509.937 524.076 515.496C523.812 516.756 524.076 518.664 525.276 518.544C525.746 518.472 526.174 518.228 526.476 517.86C530.886 513.51 534.041 508.05 535.608 502.056C535.844 501.433 535.953 500.77 535.931 500.105C535.908 499.439 535.753 498.785 535.476 498.18C535.147 497.694 534.742 497.265 534.276 496.908C530.208 493.656 525.12 490.428 525.492 498.6Z" fill="white" stroke="#263238" stroke-linecap="round" stroke-linejoin="round"/>
<path d="M511.56 353.556C511.56 353.556 517.884 364.548 519.24 367.104C520.596 369.66 549.24 407.304 554.736 434.712C555.768 439.92 534.636 498.168 534.636 498.168L529.836 495.456C529.836 495.456 533.172 442.332 532.356 437.916C531.54 433.5 510.456 400.908 510.456 400.908C510.456 400.908 498.684 392.256 493.836 382.2L511.56 353.556Z" fill="#263238"/>
<path d="M512.244 381.096C512.244 381.096 508.644 389.112 508.644 390.264C508.644 391.416 528.444 453.984 534.264 468.456C537.944 477.776 541.188 487.312 543.996 497.064C543.996 497.064 546.252 500.028 544.548 503.064C542.844 506.1 536.064 508.092 534.672 505.38C533.28 502.668 519.564 488.58 513.78 474.564C507.996 460.548 499.86 437.124 495.228 428.4C489.161 417.252 483.775 405.747 479.1 393.948C473.28 379.056 467.328 363 467.328 363C469.746 363.218 472.174 363.286 474.6 363.204C480.312 363.009 485.968 362.007 491.4 360.228C504.048 355.98 509.52 347.844 509.52 347.844C509.52 347.844 512.652 356.328 513.468 357.972L512.244 381.096Z" fill="#263238"/>
<path d="M552.624 440.076C551.384 442.2 549.717 444.043 547.728 445.488" stroke="white" stroke-linecap="round" stroke-linejoin="round"/>
<path d="M554.171 436.584C553.991 437.169 553.775 437.742 553.523 438.3" stroke="white" stroke-linecap="round" stroke-linejoin="round"/>
<path d="M500.808 362.4C504 367.896 506.988 375.804 506.508 382.14C506.25 383.291 505.847 384.404 505.308 385.452" stroke="white" stroke-linecap="round" stroke-linejoin="round"/>
<path d="M481.487 368.508C481.835 371.568 482.303 376.656 481.631 379.656C481.064 382.724 479.303 385.443 476.735 387.216" stroke="white" stroke-linecap="round" stroke-linejoin="round"/>
<path d="M508.704 356.928C509.401 357.797 509.967 358.763 510.384 359.796C511.197 361.28 512.314 362.575 513.662 363.597C515.011 364.618 516.56 365.343 518.208 365.724" stroke="white" stroke-linecap="round" stroke-linejoin="round"/>
<path d="M498.516 369.192C502.752 378.456 505.992 387.744 512.568 403.488" stroke="white" stroke-linecap="round" stroke-linejoin="round"/>
<path d="M496.26 364.452C496.62 365.172 496.968 365.892 497.316 366.612" stroke="white" stroke-linecap="round" stroke-linejoin="round"/>
<path d="M531.516 435.324C533.457 439.066 535.927 442.509 538.848 445.548" stroke="white" stroke-linecap="round" stroke-linejoin="round"/>
<path d="M533.52 438.78C534.791 444.652 537.112 450.245 540.372 455.292" stroke="white" stroke-linecap="round" stroke-linejoin="round"/>
<path d="M503.688 439.08C494.34 419.136 484.368 399.348 472.116 369.192" stroke="white" stroke-linecap="round" stroke-linejoin="round"/>
<path d="M505.8 444.876C505.572 444.18 505.332 443.484 505.08 442.776" stroke="white" stroke-linecap="round" stroke-linejoin="round"/>
<path d="M538.116 506.196C535.716 503.064 518.22 478.596 513.876 467.508C510.984 460.116 508.8 454.896 506.676 447.528" stroke="white" stroke-linecap="round" stroke-linejoin="round"/>
<path d="M531.516 459.108L539.832 483.552" stroke="white" stroke-linecap="round" stroke-linejoin="round"/>
<path d="M525.911 274.488L523.391 274.692C520.198 275.259 516.919 275.108 513.791 274.248C511.787 273.756 507.143 272.316 506.591 272.22C505.212 271.925 503.818 271.701 502.415 271.548C498.179 271.296 500.327 269.712 502.091 269.784C504.419 269.892 505.199 269.844 506.987 269.976C506.771 269.856 506.111 269.724 506.099 269.208C506.099 267.948 507.755 268.008 507.755 268.008C507.755 268.008 505.943 267.24 506.195 266.292C506.447 265.344 507.659 265.092 508.427 265.164C508.427 265.164 507.407 264.672 507.455 264.144C507.671 262.104 511.859 261.96 511.859 261.96C510.847 261.507 509.898 260.922 509.039 260.22C508.726 259.883 508.507 259.469 508.403 259.02C508.381 258.806 508.416 258.59 508.506 258.395C508.595 258.199 508.736 258.031 508.912 257.909C509.089 257.786 509.295 257.713 509.51 257.697C509.724 257.682 509.939 257.724 510.131 257.82C511.215 258.541 512.26 259.318 513.263 260.148C514.559 261.072 516.059 261.66 517.427 262.488C518.761 263.629 519.836 265.04 520.583 266.628C520.799 266.964 525.911 274.488 525.911 274.488Z" fill="white" stroke="#263238" stroke-linecap="round" stroke-linejoin="round"/>
<path d="M412.536 249.012V242.4C412.52 239.082 413.005 235.781 413.976 232.608C414.528 230.856 415.176 229.332 415.764 229.104C416.856 228.708 417.336 233.136 417.336 233.136C416.515 229.585 415.989 225.973 415.764 222.336C415.764 218.484 420.948 234.48 420.948 234.48L418.884 249.012H412.536Z" fill="white" stroke="#263238" stroke-linecap="round" stroke-linejoin="round"/>
<path d="M418.8 238.26C419.427 237.776 419.895 237.116 420.144 236.364Z" fill="white"/>
<path d="M418.8 238.26C419.427 237.776 419.895 237.116 420.144 236.364" stroke="#263238" stroke-linecap="round" stroke-linejoin="round"/>
<path d="M469.056 262.8C471.297 266.573 472.536 270.857 472.656 275.244C472.872 282.54 481.32 292.752 483.732 293.244C486.144 293.736 488.376 281.724 488.268 278.088C488.16 274.452 486.816 264.408 486.816 264.408C486.816 264.408 475.26 255.672 469.056 262.8Z" fill="white" stroke="#263238" stroke-linecap="round" stroke-linejoin="round"/>
<path d="M472.452 272.46C472.452 272.46 483.528 287.568 487.872 272.208C492.216 256.848 475.692 276.408 472.452 272.46Z" fill="#263238"/>
<path d="M491.147 261.6C490.559 270.564 486.467 275.604 481.751 276.492C477.443 277.284 471.143 272.892 467.999 266.376C467.759 266.22 463.931 263.568 463.019 262.92C462.543 262.587 462.155 262.143 461.887 261.627C461.62 261.111 461.481 260.537 461.483 259.956C461.514 259.398 461.711 258.862 462.049 258.417C462.387 257.973 462.85 257.639 463.379 257.46H463.487C464.028 257.342 464.59 257.384 465.107 257.58C464.315 254.52 463.667 251.412 463.175 248.28C463.403 241.08 465.791 235.2 473.471 234.624C481.151 234.048 487.571 238.344 487.871 241.44C488.087 243.84 488.867 250.188 489.563 256.752C489.755 258.456 491.279 259.584 491.147 261.6Z" fill="white" stroke="#263238" stroke-linecap="round" stroke-linejoin="round"/>
<path d="M487.872 251.232C487.872 251.232 482.928 248.964 483.768 256.332C483.936 257.784 486.636 259.932 486.636 259.932C486.636 259.932 485.94 262.104 484.656 262.104" fill="white"/>
<path d="M487.872 251.232C487.872 251.232 482.928 248.964 483.768 256.332C483.936 257.784 486.636 259.932 486.636 259.932C486.636 259.932 485.94 262.104 484.656 262.104" stroke="#263238" stroke-linecap="round" stroke-linejoin="round"/>
<path d="M478.319 253.752C478.319 253.752 475.799 252.216 474.071 253.164C473.17 253.556 472.403 254.203 471.863 255.024" fill="white"/>
<path d="M478.319 253.752C478.319 253.752 475.799 252.216 474.071 253.164C473.17 253.556 472.403 254.203 471.863 255.024" stroke="#263238" stroke-linecap="round" stroke-linejoin="round"/>
<path d="M476.879 258C477.071 258.888 476.879 259.68 476.363 259.788C475.847 259.896 475.343 259.248 475.163 258.36C474.983 257.472 475.163 256.68 475.691 256.572C476.219 256.464 476.699 257.1 476.879 258Z" fill="#263238"/>
<path d="M486.624 255.408C486.816 256.296 486.624 257.088 486.108 257.196C485.592 257.304 485.088 256.656 484.908 255.78C484.728 254.904 484.908 254.088 485.424 253.992C485.94 253.896 486.444 254.532 486.624 255.408Z" fill="#263238"/>
<path d="M462.6 238.98C461.722 239.84 461.114 240.936 460.848 242.136C460.129 244.673 459.921 247.328 460.237 249.946C460.552 252.564 461.384 255.094 462.684 257.388C463.484 257.29 464.294 257.322 465.084 257.484C465.924 257.7 467.004 259.14 467.4 259.884C467.747 260.677 467.946 261.527 467.988 262.392C467.796 260.112 467.616 257.844 467.424 255.564C467.295 254.652 467.336 253.725 467.544 252.828V252.828C468.132 250.956 467.484 246.54 467.652 242.592C472.632 248.676 479.868 247.596 482.268 247.392C485.868 247.092 488.94 243.408 488.748 240.78C488.556 238.152 487.848 231.384 475.98 230.688C473.365 230.41 470.729 230.96 468.444 232.26C467.719 232.737 467.104 233.363 466.639 234.095C466.174 234.827 465.869 235.649 465.744 236.508C465.576 237.612 465.996 237.708 465.156 238.248C464.316 238.788 463.428 238.272 462.6 238.98Z" fill="#263238" stroke="#263238" stroke-linecap="round" stroke-linejoin="round"/>
<path d="M478.319 266.328C478.319 266.328 480.083 268.272 483.767 266.988Z" fill="white"/>
<path d="M478.319 266.328C478.319 266.328 480.083 268.272 483.767 266.988" stroke="#263238" stroke-linecap="round" stroke-linejoin="round"/>
</svg>
