<svg width="432" height="382" viewBox="0 0 432 382" fill="none" xmlns="http://www.w3.org/2000/svg">
<path d="M391.177 380.231H299.578V376.875C299.578 373.962 300.547 371.168 302.273 369.108C303.999 367.048 306.339 365.891 308.78 365.891H381.975C384.415 365.891 386.756 367.048 388.482 369.108C390.207 371.168 391.177 373.962 391.177 376.875V380.231V380.231Z" fill="#E6E6E6"/>
<path d="M189.929 193.749C192.794 150.001 207.44 129.157 198.062 116.086C189.079 103.565 163.774 106.152 147.524 118.166C103.691 150.573 87.6329 279.731 144.038 342.835C197.637 402.8 299.219 383.594 321.793 334.514C327.061 323.062 331.245 302.987 323.536 290.828C304.397 260.643 234.81 315.317 203.871 281.12C185.535 260.855 188.357 217.758 189.929 193.749Z" fill="#3F3D56"/>
<path d="M223.435 172.015C222.37 172.599 221.539 173.657 221.117 174.962C220.696 176.267 220.718 177.717 221.178 179.004C221.275 179.263 221.39 179.513 221.522 179.75L212.114 194.745L216.808 203.121L227.836 180.916C228.617 180.189 229.175 179.173 229.422 178.028C229.668 176.883 229.591 175.672 229.201 174.585C228.974 173.969 228.647 173.412 228.24 172.946C227.833 172.481 227.353 172.116 226.827 171.872C226.302 171.628 225.742 171.509 225.178 171.524C224.614 171.539 224.058 171.686 223.542 171.956C223.506 171.975 223.471 171.995 223.435 172.015Z" fill="#FFB6B6"/>
<path d="M223.427 197.869C224.043 198.521 222.335 199.325 220.529 198.056C220.012 197.689 219.791 197.536 219.733 197.633C219.588 197.876 220.436 199.665 220.209 203.638C220.07 206.01 216.77 210.468 213.023 214.816C207.958 220.696 202.068 226.369 202.068 226.369L200 224.392L178.315 203.638L174.655 197.592C174.99 195.204 175.493 192.854 176.16 190.567C177.077 187.402 178.168 184.312 179.424 181.317C180.098 179.687 180.789 178.134 181.452 176.706L193.07 191.989L202.805 204.789C202.805 204.789 205.64 199.339 207.836 197.855C208.116 197.642 208.435 197.511 208.765 197.474C210.985 197.349 211.118 195.907 208.545 192.765C205.971 189.624 209.219 192.557 211.507 191.711C213.796 190.865 211.507 191.711 211.989 189.596C212.472 187.481 218.891 183.238 218.891 183.238L219.158 183.522L224.008 188.633L225.397 190.096C225.397 190.096 223.88 195.061 223.462 196.108C223.044 197.155 222.817 197.21 223.427 197.869Z" fill="#6C63FF"/>
<path d="M351.293 294.196L351.53 286.547L326.928 281.819L326.579 293.107L351.293 294.196Z" fill="#FFB6B6"/>
<path d="M346.827 296.499L346.594 284.252L350.98 284.446L358.06 273.124C358.41 272.565 358.9 272.154 359.459 271.951C360.019 271.748 360.618 271.763 361.169 271.995C361.72 272.227 362.195 272.664 362.524 273.241C362.853 273.818 363.018 274.505 362.997 275.202L362.547 289.75L358.131 292.067L362.439 293.237L362.27 298.722L346.827 296.499Z" fill="#2F2E41"/>
<path d="M212.831 297.174L290.754 299.532C290.754 299.532 324.404 301.853 332.299 295.722L340.625 294.467L341.076 279.869C341.076 279.869 335.985 279.913 333.058 278.285C330.131 276.657 332.165 274.665 329.374 276.624C326.584 278.583 326.878 278.818 324.721 277.918C322.563 277.018 223.615 259.015 223.615 259.015L212.831 297.174Z" fill="#2F2E41"/>
<path d="M315.513 290.839L320.044 285.424L304.703 261.984L298.015 269.976L315.513 290.839Z" fill="#FFB6B6"/>
<path d="M310.927 286.128L317.734 276.961L320.839 280.663L332.48 278.112C333.055 277.986 333.649 278.082 334.174 278.388C334.7 278.693 335.13 279.191 335.402 279.808C335.674 280.426 335.773 281.131 335.686 281.821C335.598 282.511 335.328 283.15 334.915 283.643L326.296 293.943L321.739 292.056L324.231 296.412L320.981 300.295L310.927 286.128Z" fill="#2F2E41"/>
<path d="M182.087 246.231L182.862 267.727C183.774 293.033 207.12 308.348 225.223 295.136C225.556 294.892 225.891 294.64 226.227 294.379C226.227 294.379 233.09 292.179 232.882 288.695C232.673 285.211 234.35 283.515 235.834 284.465C237.317 285.415 256.744 252.505 256.744 252.505C256.744 252.505 297.106 276.538 306.01 282.196C306.01 282.196 314.381 266.571 313.774 266.735C313.167 266.899 263.842 225.688 263.842 225.688C263.842 225.688 255.806 215.98 245.838 222.39C245.631 223.331 245.808 223.364 245.808 223.364L212.88 255.392L208.228 244.845L182.087 246.231Z" fill="#2F2E41"/>
<path d="M213.134 219.358C213.071 220.351 212.953 221.338 212.779 222.312C212.542 223.722 212.16 225.092 211.641 226.39C211.641 226.39 211.641 227.839 209.317 232.693C206.994 237.547 209.898 235.466 211.641 239.072C213.384 242.671 211.641 241.014 209.707 243.33C209.15 244.004 208.754 244.844 208.561 245.762C208.368 246.68 208.384 247.643 208.609 248.551C208.609 248.551 183.653 248.572 179.006 246.492C174.359 244.412 173.302 232.693 177.467 231.535C181.626 230.377 176.206 229.226 173.76 226.556C171.315 223.886 176.206 219.518 176.206 219.518C176.206 219.518 174.19 215.364 174.359 201.419C174.383 200.137 174.482 198.858 174.655 197.592C174.99 195.204 175.493 192.854 176.16 190.567C177.077 187.402 178.168 184.312 179.424 181.317C180.098 179.688 180.789 178.134 181.452 176.706C181.556 176.484 181.655 176.269 181.759 176.054C183.02 173.391 184.17 171.214 184.931 169.82C185.518 168.738 185.872 168.128 185.872 168.128L190.101 159.349L204.217 167.248L203.415 180.166L205.849 189.909L206.97 194.395L207.836 197.855L209.172 203.215C209.172 203.215 208.806 203.236 209.242 203.95C211.248 207.135 212.549 210.872 213.023 214.816C213.191 216.322 213.228 217.844 213.134 219.358V219.358Z" fill="#6C63FF"/>
<path d="M253.899 220.75L253.634 220.648L219.848 207.661L232.298 158.905C232.546 157.934 232.975 157.043 233.554 156.299C234.132 155.555 234.844 154.978 235.637 154.61C236.429 154.242 237.281 154.094 238.129 154.177C238.976 154.26 239.797 154.571 240.529 155.087L262.119 170.314C263.829 171.518 265.129 173.4 265.793 175.633C266.457 177.865 266.443 180.305 265.754 182.526L253.899 220.75Z" fill="#2F2E41"/>
<path d="M254.036 223.85L219.979 210.758L232.428 162.003C232.676 161.032 233.106 160.141 233.684 159.397C234.262 158.653 234.975 158.075 235.767 157.707C236.56 157.34 237.412 157.191 238.259 157.274C239.107 157.357 239.927 157.668 240.659 158.184L263.281 171.666C266.679 174.062 266.6 180.264 265.022 185.353L254.036 223.85Z" fill="#6C63FF"/>
<path d="M250.626 227.379C249.842 227.907 248.974 228.234 248.078 228.341C247.182 228.447 246.277 228.33 245.421 227.997L223.653 219.628C221.982 218.977 220.592 217.572 219.778 215.713C218.964 213.854 218.791 211.689 219.296 209.681L230.21 166.94C230.428 166.086 230.787 165.293 231.265 164.607C231.743 163.92 232.331 163.355 232.995 162.944C233.659 162.533 234.385 162.284 235.13 162.212C235.876 162.14 236.625 162.246 237.336 162.525L259.895 171.367C260.97 171.788 261.963 172.462 262.816 173.349C263.669 174.236 264.365 175.318 264.861 176.532C265.358 177.745 265.646 179.065 265.708 180.413C265.771 181.762 265.606 183.111 265.224 184.383L253.555 223.217C253.031 224.98 251.991 226.458 250.626 227.379V227.379Z" fill="#3F3D56"/>
<path d="M203.419 159.499C212.03 159.499 219.011 151.166 219.011 140.887C219.011 130.608 212.03 122.275 203.419 122.275C194.808 122.275 187.827 130.608 187.827 140.887C187.827 151.166 194.808 159.499 203.419 159.499Z" fill="#FFB6B6"/>
<path d="M150.695 159.78C152.126 163.09 154.472 165.708 157.335 167.19C158.478 167.811 159.679 168.265 160.914 168.542C161.262 166.89 161.821 165.312 162.57 163.862C162.32 165.497 162.32 167.171 162.57 168.805C164.45 168.989 166.342 168.708 168.127 167.982C169.881 167.27 171.471 166.08 172.772 164.506C174.074 162.933 175.05 161.019 175.623 158.916C176.865 153.983 175.527 148.714 175.422 143.564C175.313 138.414 177.362 132.254 181.645 131.617C184.907 131.131 184.504 131.508 186.847 134.259C183.569 138.606 191.561 157.86 195.85 157.009C198.274 156.528 200.058 154.23 200.538 154.31C202.994 161.489 195.607 171.67 201.466 175.012L201.031 174.325C197.964 168.278 207.038 158.064 203.972 152.017C203.117 150.325 202.228 148.342 202.757 146.47C203.259 144.691 205.801 144.128 206.337 145.747C205.465 142.036 207.9 137.679 211.133 137.3C214.005 136.962 213.839 137.939 216.578 138.831C216.928 137.422 217.432 136.076 218.077 134.825C217.859 136.252 217.832 137.711 217.998 139.148C218.985 139.288 219.984 139.036 220.84 138.43C223.369 136.62 223.444 131.949 221.706 129.105C219.966 126.262 217.051 124.858 214.238 123.795C214.213 116.696 198.209 113.297 195.265 119.898C194.962 114.553 189.83 110.953 185.409 111.861C180.987 112.768 177.499 117 175.373 121.717C173.246 126.431 172.191 131.708 170.634 136.728C169.078 141.749 166.853 146.755 163.126 149.733C159.399 152.708 153.861 152.979 150.749 149.123C150.039 150.769 149.665 152.592 149.655 154.443C149.646 156.295 150.002 158.123 150.695 159.78V159.78Z" fill="#2F2E41"/>
<path d="M166.693 244.891C167.016 244.584 167.366 244.319 167.737 244.102C173.705 240.557 192.264 231.354 206.775 231.731C234.697 232.458 270.231 269.242 261.961 293.943C255.668 312.739 224.384 323.433 201.547 314.88C169.555 302.898 156.927 254.186 166.693 244.891Z" fill="#3F3D56"/>
<path d="M50.7796 380.301C41.656 378.247 33.5799 329.181 51.5304 305.017C57.6805 296.737 65.3519 293.134 75.5563 289.781C134.29 270.479 179.087 288.874 185.107 293.366C191.113 297.847 201.643 365.366 188.178 374.924C180.602 380.301 165.585 382.99 158.145 376.716C147.198 367.485 165.573 343.54 157.395 327.423C148.113 309.133 99.2402 302.972 74.7375 321.149C48.5956 340.542 102.517 391.953 50.7796 380.301Z" fill="#D9D9D9"/>
<path d="M111.779 296.88H76.9232C68.3188 287.036 62.1667 277.55 67.0921 269.675C67.0921 267.412 67.8454 265.241 69.1863 263.64C70.5271 262.04 72.3457 261.14 74.242 261.14H114.46C116.356 261.14 118.175 262.04 119.516 263.64C120.856 265.241 121.61 267.412 121.61 269.675C123.485 278.648 120.135 287.717 111.779 296.88Z" fill="#CCCCCC"/>
<path d="M105.519 250.396C105.188 250.414 104.861 250.31 104.581 250.099C104.301 249.887 104.083 249.579 103.955 249.214C103.827 248.849 103.797 248.447 103.867 248.061C103.937 247.674 104.106 247.323 104.349 247.055L104.459 246.53C104.445 246.488 104.43 246.446 104.415 246.404C104.082 245.465 103.524 244.664 102.811 244.102C102.097 243.54 101.261 243.242 100.406 243.246C99.5517 243.25 98.7172 243.555 98.0074 244.123C97.2977 244.691 96.7444 245.497 96.4171 246.44C95.1089 250.2 93.4434 253.968 93.0333 257.944C92.8527 259.702 92.9289 261.484 93.2585 263.211C90.186 255.21 88.5906 246.514 88.5803 237.713C88.5797 235.505 88.6825 233.298 88.8882 231.103C89.0583 229.304 89.2942 227.517 89.5959 225.744C91.2427 216.12 94.7784 207.1 99.9127 199.424C102.398 197.805 104.407 195.316 105.671 192.292C106.129 191.205 106.452 190.045 106.631 188.847C106.351 188.891 105.574 183.795 105.786 183.482C105.395 182.775 104.696 182.423 104.269 181.733C102.147 178.298 99.2239 178.898 97.6977 183.565C94.4375 185.529 94.4059 188.786 96.4064 191.919C97.6791 193.913 97.854 196.61 98.9707 198.743C98.8558 198.919 98.7363 199.089 98.6214 199.265C96.5213 202.488 94.6908 205.95 93.1564 209.6C93.5295 205.511 93.0842 201.374 91.8569 197.531C90.6131 193.949 88.2817 190.933 86.2286 187.836C83.7626 184.117 78.7057 185.74 78.2712 190.455C78.267 190.501 78.2629 190.546 78.2589 190.592C78.5639 190.797 78.8624 191.015 79.1544 191.246C79.5214 191.538 79.8057 191.956 79.9701 192.445C80.1346 192.934 80.1715 193.471 80.0761 193.985C79.9806 194.499 79.7572 194.967 79.4352 195.327C79.1132 195.687 78.7075 195.923 78.2714 196.003L78.2268 196.012C78.3354 197.324 78.5274 198.624 78.8012 199.901C76.1674 212.06 81.8536 216.488 89.9728 216.687C90.152 216.797 90.3266 216.906 90.5059 217.011C88.9642 222.226 87.9972 227.658 87.6291 233.171C87.4207 236.424 87.433 239.691 87.6659 242.941L87.6521 242.826C87.0638 239.212 85.4487 235.951 83.0796 233.594C79.5608 230.143 74.5894 228.873 70.7932 226.099C70.3898 225.79 69.9207 225.625 69.4413 225.623C68.9618 225.622 68.4921 225.784 68.0874 226.091C67.6827 226.398 67.3599 226.837 67.1572 227.355C66.9545 227.874 66.8802 228.451 66.9432 229.018C66.9483 229.059 66.9534 229.099 66.9587 229.139C67.5246 229.414 68.0756 229.731 68.6084 230.088C68.9134 230.294 69.2119 230.512 69.504 230.742C69.8709 231.035 70.1552 231.453 70.3196 231.942C70.4841 232.431 70.521 232.967 70.4256 233.482C70.3301 233.996 70.1067 234.464 69.7847 234.824C69.4627 235.184 69.0571 235.42 68.621 235.5L68.5763 235.508C68.5441 235.514 68.5165 235.519 68.4844 235.525C69.4513 238.28 70.8084 240.817 72.4962 243.023C74.1431 253.637 81.2164 254.644 88.7825 251.554H88.7871C89.6173 255.86 90.8201 260.051 92.3762 264.061H105.198C105.244 263.891 105.285 263.715 105.326 263.545C104.139 263.634 102.948 263.549 101.779 263.293C102.73 261.899 103.681 260.495 104.632 259.102C104.654 259.076 104.673 259.048 104.692 259.019C105.175 258.306 105.662 257.599 106.144 256.886L106.144 256.885C106.17 254.699 105.96 252.518 105.519 250.396L105.519 250.396Z" fill="#CCCCCC"/>
<path d="M149.25 294.65C149.463 295.39 149.866 296.029 150.402 296.478C150.939 296.926 151.58 297.16 152.235 297.146L165.021 296.753C165.681 296.738 166.318 296.468 166.838 295.984C167.359 295.501 167.734 294.829 167.908 294.07L169.718 270.973C170.36 271.32 171.058 271.492 171.763 271.475C173 271.438 174.173 270.816 175.025 269.746C175.878 268.676 176.339 267.246 176.308 265.77C176.277 264.294 175.756 262.894 174.86 261.876C173.963 260.859 172.765 260.308 171.529 260.345C171.247 260.344 170.967 260.379 170.691 260.449C170.392 260.062 170.027 259.755 169.622 259.546C169.217 259.337 168.78 259.232 168.339 259.237L148.669 259.844C148.506 259.851 148.344 259.875 148.184 259.916C147.753 260.012 147.344 260.217 146.984 260.517C146.625 260.818 146.324 261.207 146.101 261.658C145.878 262.109 145.739 262.612 145.693 263.133C145.646 263.654 145.694 264.18 145.832 264.677L149.25 294.65ZM170.089 269.405L171.376 263.901C171.523 263.265 171.526 262.594 171.386 261.956C171.449 261.956 171.504 261.921 171.566 261.921C172.449 261.899 173.303 262.296 173.941 263.025C174.578 263.754 174.948 264.755 174.969 265.808C174.99 266.862 174.659 267.882 174.051 268.646C173.442 269.409 172.605 269.854 171.722 269.882C171.152 269.903 170.587 269.738 170.089 269.405V269.405Z" fill="#CCCCCC"/>
<path d="M148.184 259.916C148.603 262.776 153.314 264.787 158.979 264.437C164.189 264.151 168.448 261.967 169.229 259.379C168.94 259.277 168.639 259.229 168.338 259.238L148.669 259.844C148.506 259.851 148.344 259.875 148.184 259.916V259.916Z" fill="white"/>
<path d="M0.684795 381.384L431.315 381.595C431.497 381.595 431.671 381.509 431.799 381.356C431.928 381.203 432 380.995 432 380.778C432 380.561 431.928 380.353 431.799 380.2C431.671 380.047 431.497 379.961 431.315 379.961L0.684795 379.75C0.503175 379.75 0.328996 379.836 0.200571 379.989C0.0721468 380.142 0 380.35 0 380.567C0 380.784 0.0721468 380.992 0.200571 381.145C0.328996 381.298 0.503175 381.384 0.684795 381.384V381.384Z" fill="#CACACA"/>
<path d="M242.212 198.694C241.041 198.745 239.933 199.339 239.123 200.35C238.314 201.362 237.867 202.711 237.878 204.109C237.883 204.394 237.909 204.677 237.954 204.956L224.439 214.481L226.075 224.367L243.407 208.93C244.363 208.618 245.205 207.936 245.801 206.992C246.398 206.048 246.717 204.895 246.707 203.712C246.696 203.039 246.574 202.375 246.348 201.759C246.122 201.142 245.796 200.585 245.39 200.118C244.983 199.652 244.504 199.286 243.979 199.04C243.454 198.795 242.894 198.676 242.33 198.689C242.291 198.69 242.251 198.691 242.212 198.694Z" fill="#FFB6B6"/>
<path d="M231.141 221.399C230.779 220.821 230.624 220.579 230.542 220.646C230.33 220.798 230.534 222.841 229.045 226.401C226.95 231.402 204.98 239.062 204.98 239.062L202.275 233.15L190.376 207.172L186.275 186.35C186.132 185.623 186.062 184.879 186.068 184.134C189.724 181.062 193.607 178.394 197.669 176.162C199.292 177.261 200.529 179.021 201.155 181.119L209.345 208.532L212.613 219.477C212.613 219.477 218.378 214.556 220.469 215.459C222.557 216.368 223.151 215.094 221.786 211.014C220.421 206.934 222.47 211.134 224.853 211.401C227.242 211.672 224.853 211.401 225.982 209.67C227.11 207.938 234.404 206.964 234.404 206.964L234.559 207.351L237.386 214.292L238.195 216.286C238.195 216.286 235.199 220.167 234.475 220.941C233.749 221.72 233.525 221.666 233.88 222.554C234.231 223.437 232.396 223.397 231.141 221.399Z" fill="#6C63FF"/>
<path d="M343.234 366.56L346.019 365.221C316.873 278.862 319.681 169.913 344.319 76.4542C347.245 65.6257 347.457 54.012 344.926 43.0422C342.396 32.0723 337.234 22.2247 330.076 14.7108C315.775 -0.522692 296.06 -4.23371 278.621 5.02501C261.407 14.1656 259.034 30.0871 259.034 45.9311H262.037C262.037 29.0184 265.065 16.1467 279.841 8.3006C296.186 -0.376526 314.668 3.10387 328.076 17.386C334.799 24.4431 339.648 33.6923 342.024 43.9957C344.401 54.299 344.203 65.207 341.454 75.3777C316.532 169.916 313.889 279.613 343.234 366.56Z" fill="#D9D9D9"/>
<path d="M261.286 98.8095C267.092 98.8095 271.798 93.1918 271.798 86.262C271.798 79.3323 267.092 73.7146 261.286 73.7146C255.481 73.7146 250.775 79.3323 250.775 86.262C250.775 93.1918 255.481 98.8095 261.286 98.8095Z" fill="#E6E6E6"/>
<path d="M245.098 108.136V84.3616H248.195V108.136C249.083 108.565 249.819 109.349 250.276 110.355C250.733 111.36 250.882 112.524 250.699 113.647C250.516 114.77 250.012 115.781 249.272 116.509C248.533 117.236 247.605 117.634 246.646 117.634C245.688 117.634 244.76 117.236 244.02 116.509C243.281 115.781 242.776 114.77 242.593 113.647C242.41 112.524 242.56 111.36 243.017 110.355C243.474 109.349 244.21 108.565 245.098 108.136Z" fill="#E6E6E6"/>
<path d="M231 63.6137C231.005 58.1485 232.826 52.9089 236.064 49.0445C239.301 45.18 243.69 43.0062 248.269 43H276.799C281.379 43 285.772 45.1718 289.01 49.0376C292.249 52.9034 294.068 58.1466 294.068 63.6137C294.068 69.0807 292.249 74.3239 289.01 78.1897C285.772 82.0555 281.379 84.2273 276.799 84.2273H248.269C243.69 84.2211 239.301 82.0473 236.064 78.1829C232.826 74.3184 231.005 69.0788 231 63.6137V63.6137Z" fill="#6C63FF"/>
</svg>
