<svg width="118" height="40" viewBox="0 0 118 40" fill="none" xmlns="http://www.w3.org/2000/svg">
<path d="M19.1279 30.1758C19.1279 30.7845 18.999 31.3359 18.7412 31.8301C18.4906 32.3171 18.1253 32.7324 17.6455 33.0762C17.1657 33.4199 16.582 33.6849 15.8945 33.8711C15.2142 34.0573 14.4408 34.1504 13.5742 34.1504C13.4167 34.1504 13.2197 34.1468 12.9834 34.1396C12.7542 34.1396 12.5 34.1361 12.2207 34.1289C11.9486 34.1217 11.6621 34.1146 11.3613 34.1074C11.0605 34.1003 10.7669 34.0895 10.4805 34.0752C9.80013 34.0537 9.0804 34.0286 8.32129 34H7.46191V33.2158C7.94889 33.1156 8.31413 33.0081 8.55762 32.8936C8.80827 32.7718 8.93359 32.6608 8.93359 32.5605V21.4854C8.66146 21.514 8.40007 21.5462 8.14941 21.582C7.89876 21.6178 7.6696 21.6536 7.46191 21.6895L7.32227 20.7871C7.64453 20.7083 8.02409 20.6331 8.46094 20.5615C8.89779 20.4827 9.35612 20.4147 9.83594 20.3574C10.3229 20.293 10.8099 20.2428 11.2969 20.207C11.791 20.1641 12.2529 20.1426 12.6826 20.1426C13.5062 20.1426 14.2402 20.2106 14.8848 20.3467C15.5365 20.4756 16.0879 20.6654 16.5391 20.916C16.9902 21.1667 17.334 21.471 17.5703 21.8291C17.8138 22.1872 17.9355 22.5918 17.9355 23.043C17.9355 23.8164 17.7279 24.4788 17.3125 25.0303C16.8971 25.5817 16.2884 25.9827 15.4863 26.2334C16.0234 26.3193 16.514 26.4805 16.958 26.7168C17.4092 26.9531 17.7923 27.2467 18.1074 27.5977C18.4297 27.9414 18.6803 28.3353 18.8594 28.7793C19.0384 29.2161 19.1279 29.6816 19.1279 30.1758ZM13.0693 27.1357C12.7399 27.1357 12.4678 27.1501 12.2529 27.1787C12.0381 27.2074 11.8268 27.2396 11.6191 27.2754V32.6357C11.6191 32.6859 11.637 32.7324 11.6729 32.7754C11.8805 32.8613 12.1097 32.9222 12.3604 32.958C12.6182 32.9867 12.8903 33.001 13.1768 33.001C14.2152 33.001 14.9958 32.7682 15.5186 32.3027C16.0485 31.8301 16.3135 31.1891 16.3135 30.3799C16.3135 29.986 16.2598 29.5957 16.1523 29.209C16.0521 28.8223 15.8766 28.4749 15.626 28.167C15.3753 27.859 15.0423 27.612 14.627 27.4258C14.2116 27.2324 13.6924 27.1357 13.0693 27.1357ZM12.0059 21.2812H11.8232C11.7588 21.2812 11.6908 21.2848 11.6191 21.292V26.0508H11.8232C12.5394 26.0508 13.1159 25.9792 13.5527 25.8359C13.9967 25.6927 14.3405 25.5065 14.584 25.2773C14.8346 25.041 15.0029 24.776 15.0889 24.4824C15.1748 24.1816 15.2178 23.8773 15.2178 23.5693C15.2178 23.2113 15.1641 22.8926 15.0566 22.6133C14.9564 22.3268 14.7809 22.0869 14.5303 21.8936C14.2796 21.693 13.9466 21.5426 13.5312 21.4424C13.123 21.335 12.6146 21.2812 12.0059 21.2812ZM28.377 29.2734C28.377 28.7077 28.3161 28.1706 28.1943 27.6621C28.0798 27.1465 27.915 26.6953 27.7002 26.3086C27.4854 25.9147 27.224 25.6032 26.916 25.374C26.6152 25.1449 26.2822 25.0303 25.917 25.0303C25.473 25.0303 25.1042 25.1305 24.8105 25.3311C24.5169 25.5244 24.2842 25.7965 24.1123 26.1475C23.9404 26.4912 23.8187 26.903 23.7471 27.3828C23.6826 27.8555 23.6504 28.3675 23.6504 28.9189C23.6504 29.4847 23.7148 30.0146 23.8438 30.5088C23.9798 31.0029 24.1589 31.4326 24.3809 31.7979C24.61 32.1631 24.8714 32.4531 25.165 32.668C25.4658 32.8757 25.7809 32.9795 26.1104 32.9795C26.54 32.9795 26.8981 32.8971 27.1846 32.7324C27.471 32.5677 27.7038 32.3278 27.8828 32.0127C28.0618 31.6976 28.1872 31.3109 28.2588 30.8525C28.3376 30.3942 28.377 29.8678 28.377 29.2734ZM31.084 28.79C31.084 29.2699 31.0195 29.7389 30.8906 30.1973C30.7617 30.6556 30.5791 31.0889 30.3428 31.4971C30.1136 31.9053 29.8379 32.2848 29.5156 32.6357C29.1934 32.9795 28.8353 33.2767 28.4414 33.5273C28.0547 33.778 27.6357 33.9714 27.1846 34.1074C26.7406 34.2507 26.2822 34.3223 25.8096 34.3223C25.0719 34.3223 24.4023 34.1934 23.8008 33.9355C23.1992 33.6777 22.6872 33.3232 22.2646 32.8721C21.8421 32.4209 21.5127 31.8838 21.2764 31.2607C21.0472 30.6377 20.9326 29.9609 20.9326 29.2305C20.9326 28.5215 21.0615 27.834 21.3193 27.168C21.5843 26.502 21.9495 25.9111 22.415 25.3955C22.8877 24.8799 23.4463 24.4681 24.0908 24.1602C24.7425 23.8451 25.4551 23.6875 26.2285 23.6875C26.959 23.6875 27.6214 23.8164 28.2158 24.0742C28.8174 24.332 29.3294 24.6901 29.752 25.1484C30.1816 25.5996 30.5111 26.1367 30.7402 26.7598C30.9694 27.3828 31.084 28.0596 31.084 28.79ZM39.9355 29.2734C39.9355 28.7077 39.8747 28.1706 39.7529 27.6621C39.6383 27.1465 39.4736 26.6953 39.2588 26.3086C39.0439 25.9147 38.7826 25.6032 38.4746 25.374C38.1738 25.1449 37.8408 25.0303 37.4756 25.0303C37.0316 25.0303 36.6628 25.1305 36.3691 25.3311C36.0755 25.5244 35.8428 25.7965 35.6709 26.1475C35.499 26.4912 35.3773 26.903 35.3057 27.3828C35.2412 27.8555 35.209 28.3675 35.209 28.9189C35.209 29.4847 35.2734 30.0146 35.4023 30.5088C35.5384 31.0029 35.7174 31.4326 35.9395 31.7979C36.1686 32.1631 36.43 32.4531 36.7236 32.668C37.0244 32.8757 37.3395 32.9795 37.6689 32.9795C38.0986 32.9795 38.4567 32.8971 38.7432 32.7324C39.0296 32.5677 39.2624 32.3278 39.4414 32.0127C39.6204 31.6976 39.7458 31.3109 39.8174 30.8525C39.8962 30.3942 39.9355 29.8678 39.9355 29.2734ZM42.6426 28.79C42.6426 29.2699 42.5781 29.7389 42.4492 30.1973C42.3203 30.6556 42.1377 31.0889 41.9014 31.4971C41.6722 31.9053 41.3965 32.2848 41.0742 32.6357C40.752 32.9795 40.3939 33.2767 40 33.5273C39.6133 33.778 39.1943 33.9714 38.7432 34.1074C38.2992 34.2507 37.8408 34.3223 37.3682 34.3223C36.6305 34.3223 35.9609 34.1934 35.3594 33.9355C34.7578 33.6777 34.2458 33.3232 33.8232 32.8721C33.4007 32.4209 33.0713 31.8838 32.835 31.2607C32.6058 30.6377 32.4912 29.9609 32.4912 29.2305C32.4912 28.5215 32.6201 27.834 32.8779 27.168C33.1429 26.502 33.5081 25.9111 33.9736 25.3955C34.4463 24.8799 35.0049 24.4681 35.6494 24.1602C36.3011 23.8451 37.0137 23.6875 37.7871 23.6875C38.5176 23.6875 39.18 23.8164 39.7744 24.0742C40.376 24.332 40.888 24.6901 41.3105 25.1484C41.7402 25.5996 42.0697 26.1367 42.2988 26.7598C42.528 27.3828 42.6426 28.0596 42.6426 28.79ZM43.8672 34V33.2158C44.3398 33.0941 44.6943 32.9867 44.9307 32.8936C45.167 32.8005 45.2852 32.6895 45.2852 32.5605V20.4004C45.2852 20.071 45.2673 19.8167 45.2314 19.6377C45.2028 19.4587 45.1383 19.3262 45.0381 19.2402C44.9378 19.1471 44.7946 19.0863 44.6084 19.0576C44.4222 19.029 44.1751 18.9967 43.8672 18.9609V18.209C44.5618 18.1087 45.1992 17.9941 45.7793 17.8652C46.3665 17.7363 46.9036 17.5645 47.3906 17.3496L47.8633 17.79V28.2637L50.6885 25.7393C50.9248 25.5244 51.0752 25.3561 51.1396 25.2344C51.2113 25.1055 51.222 25.0088 51.1719 24.9443C51.1217 24.8799 51.0251 24.8405 50.8818 24.8262C50.7386 24.8047 50.5739 24.7939 50.3877 24.7939V24.0098H55.1895V24.7939C54.8672 24.8298 54.5485 24.9049 54.2334 25.0195C53.9255 25.1341 53.6175 25.306 53.3096 25.5352L50.0439 28.0059L53.9219 32.3994C54.0221 32.514 54.1188 32.6071 54.2119 32.6787C54.3122 32.7432 54.4232 32.7933 54.5449 32.8291C54.6667 32.8577 54.8027 32.8757 54.9531 32.8828C55.1107 32.8828 55.2933 32.8757 55.501 32.8613L55.5654 33.6455C55.3577 33.6956 55.1214 33.7493 54.8564 33.8066C54.5915 33.8568 54.3337 33.9069 54.083 33.957C53.8395 34 53.6175 34.0358 53.417 34.0645C53.2236 34.0931 53.0911 34.1074 53.0195 34.1074C52.7188 34.1074 52.4645 34.0645 52.2568 33.9785C52.0492 33.8926 51.8665 33.7458 51.709 33.5381L47.8633 28.4463V32.5605C47.8633 32.6178 47.874 32.668 47.8955 32.7109C47.9242 32.7539 47.9779 32.8005 48.0566 32.8506C48.1354 32.8936 48.2536 32.9437 48.4111 33.001C48.5687 33.0583 48.7799 33.1299 49.0449 33.2158V34H43.8672ZM71.3672 29.9502C71.3672 30.2725 71.3171 30.6019 71.2168 30.9385C71.1237 31.2751 70.9805 31.6081 70.7871 31.9375C70.5938 32.2598 70.3503 32.5677 70.0566 32.8613C69.763 33.1478 69.4157 33.3984 69.0146 33.6133C68.6208 33.8281 68.1732 34 67.6719 34.1289C67.1777 34.2578 66.6263 34.3223 66.0176 34.3223C65.7598 34.3223 65.4626 34.2972 65.126 34.2471C64.7965 34.1969 64.4564 34.1253 64.1055 34.0322C63.7617 33.9463 63.4215 33.8389 63.085 33.71C62.7555 33.5811 62.4655 33.4342 62.2148 33.2695C62.179 33.2552 62.1504 33.1872 62.1289 33.0654C62.1074 32.9365 62.0895 32.779 62.0752 32.5928C62.068 32.3994 62.0645 32.1846 62.0645 31.9482C62.0716 31.7048 62.0824 31.4613 62.0967 31.2178C62.1182 30.9743 62.1432 30.7344 62.1719 30.498C62.2077 30.2617 62.2507 30.054 62.3008 29.875L63.0635 29.9287C63.2282 30.3512 63.4287 30.738 63.665 31.0889C63.9014 31.4398 64.1663 31.7406 64.46 31.9912C64.7536 32.2419 65.0687 32.4388 65.4053 32.582C65.7419 32.7181 66.0928 32.7861 66.458 32.7861C66.7803 32.7861 67.0918 32.7396 67.3926 32.6465C67.6934 32.5534 67.9583 32.4209 68.1875 32.249C68.4167 32.07 68.5993 31.8516 68.7354 31.5938C68.8786 31.3288 68.9502 31.0244 68.9502 30.6807C68.9502 30.2438 68.8535 29.8678 68.6602 29.5527C68.4668 29.2305 68.209 28.9476 67.8867 28.7041C67.5716 28.4535 67.21 28.2279 66.8018 28.0273C66.4007 27.8268 65.9854 27.6299 65.5557 27.4365C65.1331 27.236 64.7178 27.0283 64.3096 26.8135C63.9085 26.5915 63.5469 26.3372 63.2246 26.0508C62.9095 25.7572 62.6553 25.4206 62.4619 25.041C62.2686 24.6615 62.1719 24.2103 62.1719 23.6875C62.1719 23.3509 62.265 22.9785 62.4512 22.5703C62.6445 22.1549 62.9382 21.7682 63.332 21.4102C63.7331 21.0521 64.2451 20.7513 64.8682 20.5078C65.4912 20.2643 66.236 20.1426 67.1025 20.1426C67.4893 20.1426 67.8688 20.1676 68.2412 20.2178C68.6136 20.2679 68.9609 20.3359 69.2832 20.4219C69.6055 20.5078 69.8883 20.6117 70.1318 20.7334C70.3825 20.8551 70.5723 20.9876 70.7012 21.1309C70.737 21.1595 70.7441 21.224 70.7227 21.3242C70.7083 21.4245 70.6761 21.5426 70.626 21.6787C70.583 21.8148 70.5221 21.9616 70.4434 22.1191C70.3717 22.2767 70.2965 22.4271 70.2178 22.5703C70.139 22.7135 70.0602 22.8424 69.9814 22.957C69.9027 23.0716 69.8346 23.154 69.7773 23.2041L69.0684 23.1396C68.9108 22.8031 68.7282 22.5238 68.5205 22.3018C68.32 22.0726 68.1051 21.89 67.876 21.7539C67.654 21.6178 67.4284 21.5212 67.1992 21.4639C66.9701 21.4066 66.7552 21.3779 66.5547 21.3779C66.1966 21.3779 65.8887 21.4245 65.6309 21.5176C65.3802 21.6107 65.1725 21.736 65.0078 21.8936C64.8431 22.0511 64.7214 22.2301 64.6426 22.4307C64.571 22.624 64.5352 22.821 64.5352 23.0215C64.5352 23.3581 64.6318 23.6589 64.8252 23.9238C65.0257 24.1816 65.2835 24.4251 65.5986 24.6543C65.9209 24.8763 66.2861 25.0876 66.6943 25.2881C67.1025 25.4886 67.5215 25.6963 67.9512 25.9111C68.3809 26.126 68.7998 26.3587 69.208 26.6094C69.6162 26.86 69.9779 27.1429 70.293 27.458C70.6152 27.7731 70.873 28.1348 71.0664 28.543C71.2669 28.9512 71.3672 29.4202 71.3672 29.9502ZM79.3701 34V33.2158C79.8857 33.0798 80.251 32.9616 80.4658 32.8613C80.6807 32.7611 80.7881 32.6608 80.7881 32.5605V27.8447C80.7881 27.4079 80.763 27.0498 80.7129 26.7705C80.6699 26.484 80.5983 26.2585 80.498 26.0938C80.4049 25.929 80.2796 25.8145 80.1221 25.75C79.9717 25.6784 79.7891 25.6426 79.5742 25.6426C79.1589 25.6426 78.7292 25.7715 78.2852 26.0293C77.8483 26.2871 77.3398 26.6559 76.7598 27.1357V32.5605C76.7598 32.668 76.8815 32.779 77.125 32.8936C77.3685 33.0081 77.723 33.1156 78.1885 33.2158V34H72.7637V33.2158C73.2363 33.0941 73.5908 32.9867 73.8271 32.8936C74.0635 32.7933 74.1816 32.6823 74.1816 32.5605V20.3789C74.1816 20.0781 74.1709 19.8454 74.1494 19.6807C74.1351 19.5088 74.0814 19.3763 73.9883 19.2832C73.9023 19.1901 73.7627 19.1257 73.5693 19.0898C73.376 19.0469 73.1074 19.0039 72.7637 18.9609V18.209C73.1647 18.1517 73.5228 18.0944 73.8379 18.0371C74.1602 17.9798 74.4574 17.9189 74.7295 17.8545C75.0016 17.7829 75.263 17.7077 75.5137 17.6289C75.7643 17.5501 76.0221 17.457 76.2871 17.3496L76.7598 17.79V25.5996C77.5833 24.9264 78.3532 24.4395 79.0693 24.1387C79.7926 23.8379 80.4336 23.6875 80.9922 23.6875C81.3001 23.6875 81.5973 23.7376 81.8838 23.8379C82.1702 23.931 82.4209 24.0885 82.6357 24.3105C82.8577 24.5254 83.0332 24.8083 83.1621 25.1592C83.2982 25.5101 83.3662 25.9362 83.3662 26.4375V32.5605C83.3662 32.6107 83.3877 32.6608 83.4307 32.7109C83.4736 32.7539 83.5488 32.8005 83.6562 32.8506C83.7637 32.9007 83.9105 32.958 84.0967 33.0225C84.2829 33.0798 84.5156 33.1442 84.7949 33.2158V34H79.3701ZM90.5205 24.9766C90.1839 24.9766 89.8939 25.041 89.6504 25.1699C89.4069 25.2988 89.1992 25.485 89.0273 25.7285C88.8626 25.972 88.7301 26.2656 88.6299 26.6094C88.5368 26.9531 88.4688 27.3398 88.4258 27.7695H92.0029C92.1676 27.7695 92.2751 27.7445 92.3252 27.6943C92.3825 27.637 92.4111 27.5332 92.4111 27.3828C92.4111 27.168 92.3825 26.9245 92.3252 26.6523C92.2679 26.373 92.1641 26.1117 92.0137 25.8682C91.8704 25.6175 91.6771 25.4062 91.4336 25.2344C91.1901 25.0625 90.8857 24.9766 90.5205 24.9766ZM94.9785 28.0918C94.9141 28.1634 94.821 28.2422 94.6992 28.3281C94.5775 28.4141 94.445 28.4964 94.3018 28.5752C94.1585 28.654 94.0117 28.7292 93.8613 28.8008C93.7181 28.8724 93.5892 28.9297 93.4746 28.9727H88.3936C88.4079 29.4883 88.4759 29.9645 88.5977 30.4014C88.7266 30.8311 88.9056 31.2035 89.1348 31.5186C89.3639 31.8337 89.6396 32.0807 89.9619 32.2598C90.2913 32.4316 90.6673 32.5176 91.0898 32.5176C91.3118 32.5176 91.5267 32.5068 91.7344 32.4854C91.9492 32.4567 92.1784 32.3958 92.4219 32.3027C92.6725 32.2096 92.9518 32.0807 93.2598 31.916C93.5677 31.7441 93.9329 31.5114 94.3555 31.2178C94.3984 31.2393 94.4486 31.2822 94.5059 31.3467C94.5703 31.4111 94.6276 31.4827 94.6777 31.5615C94.735 31.6331 94.7852 31.7012 94.8281 31.7656C94.8711 31.8301 94.8997 31.8766 94.9141 31.9053C94.4199 32.4066 93.9759 32.8148 93.582 33.1299C93.1882 33.445 92.8086 33.6921 92.4434 33.8711C92.0853 34.043 91.7272 34.1611 91.3691 34.2256C91.0111 34.29 90.6172 34.3223 90.1875 34.3223C89.5788 34.3223 89.0023 34.2005 88.458 33.957C87.9209 33.7135 87.4482 33.3698 87.04 32.9258C86.639 32.4818 86.3203 31.9482 86.084 31.3252C85.8477 30.7021 85.7295 30.0111 85.7295 29.252C85.7295 28.278 85.9121 27.4115 86.2773 26.6523C86.6497 25.8861 87.2048 25.2344 87.9424 24.6973C88.1286 24.5612 88.3363 24.4323 88.5654 24.3105C88.8018 24.1816 89.0452 24.0742 89.2959 23.9883C89.5537 23.8952 89.8187 23.8236 90.0908 23.7734C90.363 23.7161 90.6351 23.6875 90.9072 23.6875C91.609 23.6875 92.2142 23.8092 92.7227 24.0527C93.2383 24.2962 93.6608 24.6221 93.9902 25.0303C94.3268 25.4313 94.5739 25.8968 94.7314 26.4268C94.8962 26.9567 94.9785 27.5117 94.9785 28.0918ZM96.2568 34V33.2158C96.5648 33.1657 96.8154 33.1156 97.0088 33.0654C97.2093 33.0081 97.3669 32.9544 97.4814 32.9043C97.596 32.847 97.6748 32.7897 97.7178 32.7324C97.7607 32.6751 97.7822 32.6178 97.7822 32.5605V20.4004C97.7822 20.0781 97.7643 19.8275 97.7285 19.6484C97.6927 19.4694 97.6247 19.3369 97.5244 19.251C97.4242 19.1579 97.2809 19.097 97.0947 19.0684C96.9085 19.0326 96.665 18.9967 96.3643 18.9609V18.209C96.7223 18.1589 97.0553 18.1087 97.3633 18.0586C97.6712 18.0013 97.9648 17.9404 98.2441 17.876C98.5234 17.8115 98.7992 17.7363 99.0713 17.6504C99.3434 17.5645 99.6191 17.4642 99.8984 17.3496L100.36 17.79V32.5605C100.36 32.6178 100.385 32.6751 100.436 32.7324C100.486 32.7826 100.568 32.8363 100.683 32.8936C100.804 32.9508 100.962 33.0081 101.155 33.0654C101.356 33.1156 101.603 33.1657 101.896 33.2158V34H96.2568ZM111.876 18.3809C111.876 18.4596 111.84 18.5563 111.769 18.6709C111.704 18.7783 111.618 18.8965 111.511 19.0254C111.403 19.1471 111.282 19.2725 111.146 19.4014C111.009 19.5303 110.877 19.6484 110.748 19.7559C110.619 19.8633 110.497 19.96 110.383 20.0459C110.268 20.1247 110.175 20.182 110.104 20.2178C109.76 19.7881 109.427 19.4801 109.104 19.2939C108.782 19.1077 108.507 19.0146 108.277 19.0146C108.091 19.0146 107.912 19.0719 107.74 19.1865C107.576 19.3011 107.429 19.5088 107.3 19.8096C107.171 20.1104 107.067 20.5257 106.988 21.0557C106.91 21.5856 106.87 22.2624 106.87 23.0859V24.0098H109.545L109.942 24.3965C109.878 24.5182 109.796 24.6471 109.695 24.7832C109.602 24.9121 109.506 25.041 109.405 25.1699C109.312 25.2917 109.219 25.4027 109.126 25.5029C109.033 25.6032 108.954 25.6784 108.89 25.7285C108.725 25.6426 108.489 25.5602 108.181 25.4814C107.88 25.3955 107.443 25.3525 106.87 25.3525V32.582C106.87 32.625 106.902 32.668 106.967 32.7109C107.038 32.7539 107.157 32.8005 107.321 32.8506C107.493 32.8936 107.715 32.9473 107.987 33.0117C108.267 33.069 108.618 33.137 109.04 33.2158V34H102.874V33.2158C103.368 33.1299 103.726 33.026 103.948 32.9043C104.177 32.7754 104.292 32.668 104.292 32.582V25.3525H103.014L102.713 24.9658L103.551 24.0098H104.292V23.6768C104.292 23.0895 104.331 22.556 104.41 22.0762C104.496 21.5964 104.614 21.1631 104.765 20.7764C104.922 20.3825 105.112 20.028 105.334 19.7129C105.563 19.3906 105.821 19.0934 106.107 18.8213C106.372 18.5635 106.645 18.3451 106.924 18.166C107.21 17.9798 107.49 17.8258 107.762 17.7041C108.041 17.5824 108.31 17.4928 108.567 17.4355C108.832 17.3783 109.072 17.3496 109.287 17.3496C109.609 17.3496 109.924 17.3926 110.232 17.4785C110.548 17.5645 110.823 17.6647 111.06 17.7793C111.303 17.8867 111.5 17.9977 111.65 18.1123C111.801 18.2269 111.876 18.3164 111.876 18.3809Z" fill="white"/>
<path fill-rule="evenodd" clip-rule="evenodd" d="M83.6254 3.88778C81.9621 4.04002 79.9912 4.35496 77.645 4.84344C73.8431 5.63502 67.0106 7.89659 62.6186 9.8172C61.9117 10.1263 60.0891 11.1804 59.7806 11.4585C59.6275 11.5966 59.4367 11.8007 59.3568 11.9121C59.2769 12.0234 59.1975 12.1146 59.1804 12.1146C59.1633 12.1146 58.8442 11.9446 58.4712 11.7368C56.9322 10.8795 53.0964 9.50041 49.2004 8.40363C45.655 7.40553 43.9543 6.97265 42.5251 6.70457C41.8942 6.5862 41.2497 6.45073 41.0928 6.40352C40.936 6.35629 40.8077 6.33004 40.8077 6.34514C40.8077 6.36025 40.5929 6.31972 40.3303 6.25507C40.0677 6.19044 39.7624 6.11611 39.6518 6.08993C38.6082 5.84284 33.8046 5.09996 32.0848 4.9197C30.1256 4.71436 28.5212 4.87458 25.3793 5.58928C24.3289 5.82821 22.4549 6.22344 21.2147 6.46757C18.9949 6.90455 17.0235 7.40573 17.0734 7.52042C17.0874 7.55261 17.1754 7.57254 17.2689 7.56474C17.3624 7.55694 18.0495 7.52409 18.7958 7.49174C19.5421 7.45942 20.2884 7.41814 20.4542 7.40003C20.7882 7.36359 19.4847 7.79991 17.5394 8.37575C16.876 8.57212 16.2654 8.76571 16.1825 8.80598C16.0996 8.84622 15.8828 8.90826 15.7006 8.94382C15.3439 9.01351 14.7754 9.2294 14.7754 9.2952C14.7754 9.31738 15.1485 9.3278 15.6046 9.31834L16.4338 9.30115L16.0317 9.4493C15.8106 9.53076 15.5939 9.59756 15.5501 9.59773C15.5063 9.59789 15.4158 9.62397 15.349 9.65567C15.2823 9.68737 15.0807 9.78189 14.901 9.8657C14.5278 10.0398 14.462 10.2418 14.7784 10.2418C14.9794 10.2418 14.9791 10.2444 14.7604 10.4166C14.4892 10.6302 14.5591 10.6851 14.9964 10.6018L15.3282 10.5387L14.9771 10.6975C14.384 10.9658 13.5692 11.4634 13.5692 11.5573C13.5692 11.6239 13.6838 11.6464 14.0227 11.6464H14.4761L14.0242 11.9694C13.5447 12.3122 13.2677 12.5849 13.2677 12.714C13.2677 12.7572 13.0642 12.9088 12.8154 13.051C12.5666 13.1931 12.3631 13.3336 12.3631 13.3631C12.3631 13.3926 12.5101 13.4007 12.6898 13.3812C12.9599 13.3518 12.9895 13.3581 12.861 13.4178C12.6793 13.5021 12.3631 13.7596 12.3631 13.8233C12.3631 13.8475 12.5101 13.8513 12.6898 13.8317L13.0164 13.7961L12.6663 13.9823C12.3785 14.1353 12.3428 14.1782 12.4653 14.2233C12.5473 14.2535 12.6765 14.2786 12.7523 14.2791C12.8635 14.2798 12.866 14.297 12.7651 14.3677C12.6963 14.416 12.5623 14.4555 12.4674 14.4555C12.3724 14.4555 12.0207 14.5353 11.6858 14.6327C11.2647 14.7552 11.0585 14.8525 11.0174 14.948C10.974 15.0486 10.8633 15.0964 10.6092 15.1242C10.2098 15.1678 9.97157 15.3348 9.58765 15.8402C9.4469 16.0255 9.19311 16.2691 9.02372 16.3814C8.85429 16.4938 8.6334 16.694 8.53282 16.8264C8.43224 16.9588 8.25159 17.1182 8.13141 17.1806C7.82911 17.3374 7.61599 17.6555 7.68705 17.8439C7.73932 17.9824 7.70099 18.0132 7.36609 18.1017C6.71645 18.2733 6.34459 18.738 6.66 18.984C6.78731 19.0834 6.94015 19.0932 8.25022 19.0861C9.99318 19.0767 18.1852 18.8754 26.4346 18.6392C30.2186 18.5309 34.884 18.3985 38.8478 18.2868C43.5845 18.1533 47.5748 18.0352 50.92 17.9294L53.9462 17.8336L54.4882 18.0693C56.1918 18.8102 58.9288 19.1672 61.111 18.9333C61.1939 18.9244 61.4653 18.8982 61.714 18.8751C62.3662 18.8144 63.4136 18.5661 63.844 18.3701L64.215 18.2011L65.8542 18.2007C66.7558 18.2004 69.5514 18.2391 72.0667 18.2866C77.6397 18.3918 84.9913 18.5212 92.1689 18.6404C95.1264 18.6895 98.8579 18.7569 100.461 18.7902C102.064 18.8234 105.196 18.8665 107.421 18.8859C111.875 18.9248 111.559 18.9515 111.367 18.5522C111.306 18.4237 110.953 18.1512 110.421 17.8207C109.955 17.531 109.468 17.2281 109.339 17.1476C109.21 17.0672 109.055 16.9053 108.993 16.788C108.862 16.5372 107.969 15.6845 107.838 15.6845C107.789 15.6845 107.748 15.6429 107.748 15.5919C107.748 15.4698 106.871 14.9603 106.149 14.663C105.832 14.5328 105.377 14.3278 105.137 14.2075C104.708 13.9932 104.703 13.9864 104.883 13.8706C104.984 13.8056 105.116 13.7557 105.176 13.7598C105.779 13.8002 105.774 13.6532 105.16 13.2936C104.612 12.9725 103.786 12.5828 103.655 12.5828C103.605 12.5828 103.477 12.5437 103.37 12.496C103.189 12.4155 103.2 12.4119 103.527 12.4457C103.72 12.4658 103.956 12.5053 104.051 12.5335C104.297 12.6067 105.034 12.5277 105.034 12.4281C105.034 12.3042 104.443 12.0156 103.844 11.8473C103.549 11.7642 103.322 11.6872 103.342 11.6761C103.361 11.665 103.591 11.6846 103.853 11.7195C104.116 11.7545 104.363 11.7642 104.402 11.7412C104.558 11.6503 104.216 11.4926 102.936 11.0664L101.603 10.6222L102.716 10.6057C103.327 10.5965 103.828 10.5733 103.828 10.554C103.828 10.5347 103.735 10.4721 103.622 10.4148C103.494 10.3499 103.456 10.2965 103.522 10.2726C103.649 10.2269 103.558 10.1701 102.929 9.90413L102.482 9.71507H103.004C103.544 9.71507 103.697 9.63726 103.3 9.5643C103.176 9.54139 102.939 9.46463 102.773 9.39372C102.607 9.32281 101.883 9.0859 101.165 8.86727C100.446 8.64865 99.2021 8.25298 98.4006 7.98803C97.599 7.72307 96.4489 7.34693 95.8448 7.15218C94.7702 6.80576 94.7539 6.79741 95.0909 6.76766C95.9912 6.6882 97.6615 6.64558 98.7524 6.67424C99.4157 6.69166 99.9741 6.70014 99.9931 6.6931C100.097 6.65471 99.0773 6.35001 98.2729 6.17893C97.7627 6.07042 97.1191 5.92394 96.8427 5.85342C94.7458 5.31845 90.5739 4.49121 88.852 4.26895C88.6585 4.24398 87.9575 4.14084 87.2941 4.03977C85.8742 3.82341 84.8103 3.77934 83.6254 3.88778ZM86.8418 4.12549C91.1221 4.72413 92.6227 5.00961 97.5965 6.17157C99.4696 6.60918 99.4939 6.61901 98.6016 6.57869C97.827 6.54369 94.6078 6.62989 92.8222 6.73344C89.673 6.91608 84.0383 7.6401 79.806 8.40593C74.5876 9.35021 71.1649 10.1273 68.7254 10.9215C67.4231 11.3456 64.6366 12.3526 63.9755 12.6381C63.6991 12.7575 62.8561 13.1107 62.1021 13.4229C60.7112 13.9988 60.3471 14.1781 59.6877 14.6119L59.3199 14.8539L59.2761 14.5523C59.252 14.3864 59.2485 13.8096 59.2684 13.2704C59.3199 11.8759 59.3489 11.8371 61.1005 10.827C62.6864 9.9125 64.5082 9.12856 67.996 7.85976C70.46 6.96337 73.993 5.87212 76.3384 5.28298C78.7509 4.677 82.3226 4.08807 84.128 3.99857C84.4873 3.98076 84.803 3.9544 84.8295 3.94003C84.9068 3.89803 85.8117 3.9814 86.8418 4.12549ZM32.1187 5.12243C36.4116 5.71516 38.3073 6.04204 42.2149 6.86325C47.6189 7.99895 55.6732 10.5048 58.4185 11.9045L59.1604 12.2827L59.0673 12.7985C59.0161 13.0822 58.9687 13.6237 58.9621 14.0019C58.9554 14.38 58.9337 14.6894 58.9138 14.6895C58.8938 14.6896 58.5094 14.4875 58.0594 14.2405C55.2433 12.6944 51.0684 11.358 44.6271 9.94108C44.0467 9.81338 43.3671 9.65946 43.1171 9.599C42.4076 9.42755 38.8224 8.81622 36.9883 8.55399C27.5472 7.20415 24.9922 7.03841 18.3435 7.34449L17.7404 7.37225L18.2932 7.22251C18.5973 7.14015 19.9768 6.84911 21.3588 6.57574C22.7409 6.30237 24.5958 5.91213 25.4809 5.70853C26.8187 5.40079 28.2649 5.13806 29.2992 5.01484C29.7231 4.96436 31.4515 5.03029 32.1187 5.12243ZM95.0859 7.07087C96.5164 7.61115 99.6626 8.68066 101.013 9.08567C102.498 9.53113 102.486 9.53976 100.662 9.33018C98.7403 9.10929 95.588 8.95282 92.973 8.94849C90.3425 8.94414 84.9195 9.14604 84.128 9.2778C84.0451 9.29161 83.4571 9.34469 82.8214 9.39579C81.2766 9.5199 78.2938 9.8664 77.5445 10.0088C77.2128 10.0718 76.1299 10.2427 75.1379 10.3887C72.9403 10.7119 70.3557 11.2369 68.4985 11.7371C64.3658 12.8502 62.2293 13.5326 60.9099 14.1609C60.2149 14.4919 60.1992 14.4964 60.7089 14.2188C61.8077 13.6205 66.8164 11.6988 69.3529 10.9025C70.8262 10.44 74.3578 9.60101 76.6399 9.1714C82.8117 8.00958 88.0558 7.25322 92.1186 6.93884C94.4468 6.75871 94.2344 6.74926 95.0859 7.07087ZM26.0326 7.43753C28.0796 7.56334 29.5458 7.70748 32.3145 8.05506C37.077 8.65294 41.1206 9.30061 43.7502 9.88678C49.5184 11.1725 52.249 11.9371 55.0976 13.0638C56.4853 13.6127 58.6827 14.6186 58.6931 14.7097C58.6962 14.7369 58.4839 14.6559 58.2213 14.5298C56.8028 13.8485 53.3802 12.7565 50.1297 11.948C48.3919 11.5158 45.4738 10.9003 44.0037 10.6558C41.4327 10.2283 36.976 9.70745 33.7217 9.45425C33.0583 9.40263 32.0859 9.32191 31.5607 9.27486C29.4043 9.08165 27.1949 9.01278 23.1551 9.01288C20.951 9.01294 18.4086 9.04131 17.5053 9.07593C16.6021 9.11056 15.844 9.12782 15.8208 9.11428C15.7975 9.10075 16.3894 8.9011 17.136 8.67059C17.8826 8.44011 18.8068 8.13457 19.1897 7.99163C20.2227 7.60614 20.895 7.42192 21.4583 7.37009C22.0526 7.31541 24.675 7.35407 26.0326 7.43753ZM27.9423 9.193C29.3287 9.24967 31.8334 9.42737 34.9781 9.69217C37.3549 9.8923 41.3742 10.3765 43.6968 10.7426C46.2066 11.1381 50.3614 12.0706 53.0476 12.8412C53.4498 12.9566 53.8018 13.051 53.8298 13.051C53.8577 13.051 54.4482 13.2359 55.142 13.4621C56.4726 13.8957 57.6708 14.346 58.3573 14.6704C58.5841 14.7775 58.8215 14.8652 58.8849 14.8652C58.9484 14.8652 59.0002 14.9179 59.0002 14.9822C59.0002 15.0787 58.9337 15.0991 58.6233 15.0984C58.3515 15.0978 58.2876 15.0823 58.3942 15.0431C58.4756 15.0131 58.5208 14.9802 58.4948 14.9698C58.4687 14.9595 57.882 14.7882 57.191 14.589C55.6976 14.1587 53.6488 13.6853 51.6545 13.3098C50.8576 13.1598 50.1377 13.023 50.0547 13.0059C49.9718 12.9888 49.8283 12.9661 49.7359 12.9554C49.4779 12.9256 48.0173 12.672 46.7881 12.4435C44.6077 12.0382 40.1659 11.4762 37.8929 11.318C37.6441 11.3007 37.0562 11.2506 36.5863 11.2066C36.1164 11.1627 35.1892 11.0842 34.5258 11.0322C33.8624 10.9803 33.184 10.9263 33.0181 10.9124C32.8523 10.8985 31.5521 10.8562 30.1288 10.8184C27.0801 10.7374 23.5222 10.8067 20.6553 11.0029C20.213 11.0331 19.5798 11.0721 19.2481 11.0895C18.6456 11.121 16.8984 11.2395 15.0549 11.3739L14.0781 11.4452L14.3011 11.3052C14.5243 11.1651 15.7096 10.6324 16.1825 10.4596C16.5543 10.3237 18.1476 10.1751 19.8009 10.1221C20.6025 10.0964 22.1177 10.0461 23.168 10.0103C26.7883 9.88694 32.2814 9.99985 35.6314 10.2665C37.2875 10.3983 43.5162 11.1275 45.2047 11.3873C46.6156 11.6043 49.0806 12.0788 50.6988 12.4449C52.4463 12.8401 55.8813 13.8715 57.3418 14.4395C57.9499 14.676 58.2891 14.7877 58.0956 14.6877C57.1573 14.2027 53.5787 13.0173 51.4116 12.4737C49.5611 12.0094 46.9305 11.4901 44.8784 11.1838C42.9454 10.8954 37.3983 10.2344 36.0335 10.13C32.2302 9.83885 29.1831 9.74482 23.5701 9.74533C19.4247 9.74572 17.9146 9.79502 15.68 10.003C15.3759 10.0313 15.1149 10.0478 15.1 10.0396C15.0594 10.0175 16.4324 9.48849 16.6487 9.44286C16.7516 9.42117 16.9536 9.35595 17.0976 9.29795C17.4064 9.17357 17.8839 9.16087 22.967 9.14201C24.8466 9.13502 27.0855 9.15798 27.9423 9.193ZM94.9832 9.18898C97.3257 9.24797 98.9668 9.34471 100.612 9.52081C101.244 9.58853 101.642 9.67292 102.145 9.84595C102.518 9.97449 102.823 10.0863 102.823 10.0944C102.823 10.1133 101.88 10.0801 100.411 10.0094C98.0391 9.89541 92.4567 9.87303 90.3094 9.96891C89.2038 10.0183 87.5981 10.0749 86.7413 10.0947C80.8831 10.23 75.0401 10.8948 68.7788 12.1384C66.82 12.5275 64.43 13.1627 62.7191 13.749C60.9228 14.3645 60.8081 14.4096 60.0954 14.78L59.4525 15.1141L60.1654 14.7055C61.2814 14.0658 62.7777 13.5342 65.9876 12.6369C70.818 11.2867 72.0432 11.039 78.5496 10.0972C79.5992 9.94531 81.9534 9.67818 82.9721 9.59543C83.3591 9.56398 84.2863 9.48802 85.0326 9.42661C86.2985 9.32242 88.6583 9.2279 92.1689 9.14074C92.4177 9.13455 93.6841 9.15627 94.9832 9.18898ZM21.5096 9.95126C21.1503 9.97477 20.4718 9.99724 20.0019 10.0012C18.9967 10.0096 16.5251 10.2079 15.8882 10.3312C15.2347 10.4577 15.0831 10.4463 15.3505 10.2906C15.6014 10.1445 16.805 10.0346 18.8461 9.97131C19.5094 9.95077 20.0711 9.9242 20.0941 9.9123C20.1171 9.90038 20.592 9.89467 21.1494 9.89956C22.1397 9.90828 22.1479 9.90947 21.5096 9.95126ZM100.109 10.1536C100.247 10.1629 100.887 10.1895 101.531 10.2128C102.41 10.2445 102.773 10.2821 102.985 10.3631L103.268 10.4712L102.518 10.4428C102.105 10.4272 101.157 10.3889 100.411 10.3578C98.4544 10.2762 93.4002 10.2446 91.4653 10.302C90.5532 10.329 88.3821 10.3795 86.6408 10.4141C84.8994 10.4488 83.1355 10.5024 82.7208 10.5332C82.3062 10.564 81.7182 10.6032 81.4142 10.6202C81.1102 10.6371 80.59 10.668 80.2583 10.6887C79.9266 10.7094 79.6779 10.7123 79.7055 10.695C79.7838 10.6462 83.5642 10.3672 84.6306 10.3316C85.1557 10.314 86.2865 10.2742 87.1433 10.2431C88.0002 10.212 89.3345 10.1694 90.1084 10.1484C90.8823 10.1274 91.5382 10.0976 91.5658 10.0821C91.6157 10.0541 99.6269 10.1212 100.109 10.1536ZM101.051 10.6319C101.758 10.839 103.419 11.4172 103.485 11.479C103.565 11.5547 103.068 11.5398 102.17 11.4395C100.888 11.2962 99.4933 11.1931 95.737 10.964C92.3938 10.7601 92.0595 10.7499 89.0028 10.7585C86.0315 10.7669 82.0467 10.8502 81.2132 10.9212C81.0197 10.9377 80.5674 10.9776 80.2081 11.0098C79.8487 11.042 79.3738 11.0818 79.1527 11.0982C77.4293 11.2261 75.532 11.4505 72.2174 11.9185C69.2688 12.3348 65.9053 13.0591 63.8984 13.71C63.1801 13.943 62.1376 14.2812 61.5818 14.4616C61.026 14.642 60.3987 14.8739 60.1878 14.977C59.6103 15.2593 59.7272 15.092 60.3267 14.7781C61.6772 14.0711 65.7176 12.8996 69.0011 12.2628C71.4701 11.784 74.8822 11.2365 75.9792 11.1431C76.5637 11.0934 77.4717 11.0151 77.9968 10.9691C78.522 10.9232 79.6527 10.8591 80.5096 10.8267C81.3665 10.7943 82.4101 10.741 82.8289 10.7083C83.2476 10.6755 84.6045 10.6349 85.8442 10.6181C89.7261 10.5655 92.0165 10.5208 92.062 10.4967C92.0862 10.484 94.0024 10.4752 96.3203 10.4772L100.535 10.4808L101.051 10.6319ZM31.1587 10.9744C32.6285 11.0081 34.6957 11.1301 36.134 11.268C36.6315 11.3157 37.6492 11.4097 38.3955 11.4768C39.1418 11.5441 40.7474 11.715 41.9636 11.8567C43.1798 11.9984 44.2163 12.1144 44.267 12.1145C44.3177 12.1145 44.3338 12.1293 44.3028 12.1474C44.2718 12.1654 43.5293 12.0993 42.6527 12.0005C41.7762 11.9018 40.7424 11.7958 40.3554 11.7652C39.9685 11.7346 39.0639 11.6582 38.3452 11.5953C36.3523 11.4211 35.8282 11.3998 33.1689 11.3849C30.7154 11.3712 29.1329 11.4074 26.9372 11.5274C26.3015 11.5622 25.4421 11.6038 25.0275 11.62C24.6129 11.6361 23.9344 11.6741 23.5198 11.7045C23.1052 11.7348 22.4946 11.7757 22.1629 11.7955C21.4981 11.835 20.0909 11.949 18.5445 12.0887C17.9917 12.1386 17.0871 12.22 16.5343 12.2695C15.9815 12.3191 15.2804 12.3941 14.9764 12.4361C14.6723 12.4782 14.249 12.5302 14.0357 12.5516L13.6477 12.5905L13.9808 12.3205C14.3552 12.0168 15.312 11.4708 15.4695 11.4708C15.5261 11.4708 16.0603 11.4334 16.6565 11.3877C17.2527 11.3419 18.238 11.2745 18.8461 11.2379C19.4542 11.2012 20.7432 11.1237 21.7106 11.0655C22.678 11.0074 24.3729 10.9548 25.477 10.9487C26.5811 10.9426 27.5082 10.9237 27.5374 10.9067C27.5666 10.8897 28.088 10.891 28.6961 10.9095C29.3042 10.9281 30.4124 10.9572 31.1587 10.9744ZM92.973 10.9779C93.5203 11.0043 95.6992 11.128 97.4457 11.2317C97.9432 11.2612 98.7574 11.3004 99.2549 11.3188C100.407 11.3613 102.538 11.5576 102.828 11.6479C102.95 11.686 103.395 11.8624 103.816 12.0399L104.582 12.3627L104.079 12.3303C103.803 12.3125 103.238 12.2594 102.823 12.2123C100.071 11.8996 97.1982 11.6645 95.536 11.6157C94.8726 11.5963 93.8841 11.5557 93.3392 11.5256C92.0558 11.4546 85.594 11.4563 83.7762 11.5281C83.0023 11.5587 81.8037 11.6003 81.1127 11.6205C77.7568 11.7189 72.9402 12.1842 69.9559 12.6982C69.4308 12.7887 68.5488 12.935 67.996 13.0233C66.4071 13.2772 65.3829 13.5037 63.9766 13.912C62.3386 14.3876 62.4426 14.3063 64.1263 13.795C66.7452 12.9998 70.3626 12.289 74.3282 11.7907C74.7704 11.7351 75.3584 11.6549 75.6348 11.6125C76.4008 11.4949 77.6606 11.3567 78.4994 11.2984C78.914 11.2695 79.9769 11.1912 80.8614 11.1242C83.322 10.9379 90.3822 10.8526 92.973 10.9779ZM30.2541 11.588C28.5985 11.7274 25.427 11.934 24.3742 11.971C23.8766 11.9885 22.9042 12.0431 22.2132 12.0922C18.3939 12.364 17.1463 12.5013 14.6233 12.9273C13.7119 13.0812 12.9662 13.2 12.9662 13.1914C12.9662 13.1829 13.1686 13.0792 13.4161 12.9612C13.9112 12.7249 14.0643 12.6986 16.1825 12.4861C20.962 12.0065 23.1367 11.8517 28.0428 11.6415C28.8997 11.6048 29.6126 11.5686 29.6271 11.5611C29.6417 11.5535 29.9131 11.546 30.2302 11.5444L30.8069 11.5415L30.2541 11.588ZM36.7873 11.6374C37.1466 11.6706 37.8703 11.7276 38.3955 11.764C39.3721 11.8317 42.0453 12.0808 42.7677 12.1715C42.9888 12.1992 43.5542 12.2672 44.0241 12.3226C45.3547 12.4794 48.7471 12.9594 50.3563 13.2186C52.5006 13.5639 56.5449 14.4132 56.8391 14.5799C56.8944 14.6112 56.623 14.5664 56.2361 14.4802C53.4692 13.8643 51.0089 13.5049 45.2302 12.8727C44.3181 12.773 43.2326 12.6531 42.8179 12.6063C38.5658 12.1266 35.9561 12.0111 32.3648 12.1436C31.0104 12.1936 28.8168 12.2705 27.49 12.3146C24.6035 12.4105 22.7349 12.5022 21.3086 12.6179C20.7281 12.6649 19.7557 12.7437 19.1476 12.7928C16.435 13.012 15.5712 13.1161 14.3183 13.3749C13.6128 13.5207 12.994 13.6318 12.9433 13.622C12.8926 13.6122 13.0299 13.5204 13.2485 13.4181C13.985 13.0735 17.2393 12.5914 20.4542 12.3507C22.5637 12.1927 22.628 12.1887 24.2389 12.1149C25.032 12.0786 26.5628 11.9818 27.6408 11.8997C30.4149 11.6886 31.33 11.656 33.7156 11.6834C34.8732 11.6967 35.7854 11.6872 35.7427 11.6623C35.7001 11.6375 34.6851 11.6009 33.4873 11.5811L31.3094 11.545L33.7217 11.561C35.0484 11.5698 36.428 11.6042 36.7873 11.6374ZM36.0102 11.6869C36.108 11.7018 36.2437 11.7008 36.3118 11.6848C36.3798 11.6687 36.2998 11.6566 36.134 11.6578C35.9681 11.659 35.9124 11.6721 36.0102 11.6869ZM96.6919 11.8436C98.5855 11.9597 100.344 12.0884 101.434 12.1907C102.365 12.2781 102.657 12.364 104.008 12.948C104.576 13.1937 104.635 13.2344 104.381 13.2054C103.691 13.1264 101.559 12.9557 100.612 12.9035C100.252 12.8837 99.0991 12.8039 98.0488 12.7261C95.557 12.5417 95.5301 12.54 93.4755 12.4362C92.5081 12.3874 91.1738 12.3148 90.5105 12.2749C88.7527 12.1692 82.2762 12.1932 79.8563 12.3144C78.8059 12.367 77.3134 12.4381 76.5394 12.4723C75.7655 12.5065 74.4764 12.6088 73.6748 12.6997C72.8733 12.7907 71.7425 12.9094 71.1621 12.9636C68.6029 13.2027 64.5681 13.9237 63.0157 14.4193C62.1648 14.6911 61.2764 14.9249 61.4258 14.8379C61.535 14.7744 62.8484 14.3689 64.076 14.0198C64.7947 13.8155 65.9028 13.5552 66.5386 13.4415C69.0196 12.9976 72.6853 12.4653 74.2779 12.3178C74.8584 12.264 75.6725 12.1834 76.0871 12.1388C77.3229 12.0059 79.1344 11.8915 81.1629 11.8185C82.2133 11.7807 83.0952 11.7372 83.1229 11.7218C83.1505 11.7064 85.8869 11.7074 89.2038 11.724C93.5854 11.746 95.633 11.7787 96.6919 11.8436ZM37.5411 12.2906C39.7066 12.4294 42.7656 12.7403 48.2455 13.3785C49.9626 13.5785 50.4454 13.641 52.7183 13.9578C53.8741 14.1189 58.1342 14.9208 58.061 14.9634C58.0377 14.9769 57.0523 14.8189 55.8711 14.6121C54.6898 14.4054 53.1806 14.1653 52.5173 14.0787C51.8539 13.992 50.9267 13.8712 50.4568 13.8101C49.4482 13.679 46.8018 13.4379 45.381 13.3476C43.1785 13.2076 41.1767 13.1602 38.9483 13.1951C30.9029 13.3213 25.2631 13.4636 25.0332 13.5464C24.9464 13.5776 22.2581 13.6336 19.3486 13.6647C17.9666 13.6795 16.2931 13.7217 15.6297 13.7585C14.9663 13.7952 14.2653 13.8307 14.0718 13.8374C13.8783 13.8441 13.6069 13.8696 13.4687 13.894C13.2274 13.9367 13.2294 13.9326 13.519 13.7894C14.3189 13.3941 15.9724 13.1282 18.8461 12.9327C19.3436 12.8988 19.8185 12.8601 19.9014 12.8467C20.6398 12.7272 24.0314 12.5598 28.2438 12.4351C29.9299 12.3852 31.6939 12.3226 32.1638 12.296C33.3976 12.2261 36.4863 12.223 37.5411 12.2906ZM45.1025 12.267C45.0691 12.2864 44.9824 12.2885 44.9099 12.2716C44.8296 12.2529 44.8535 12.239 44.9706 12.2362C45.0765 12.2337 45.1359 12.2475 45.1025 12.267ZM88.5505 12.4058C89.5179 12.4331 90.807 12.4836 91.4151 12.518C92.0231 12.5524 93.3122 12.6208 94.2796 12.67C95.247 12.7192 96.5587 12.7981 97.1944 12.8453C99.2519 12.9981 101.171 13.1095 101.746 13.1095C102.056 13.1095 102.335 13.134 102.367 13.164C102.451 13.2436 99.5443 13.1823 96.1893 13.0338C93.6776 12.9226 92.5882 12.9077 87.3444 12.9124C84.0551 12.9154 80.4141 12.9489 79.2532 12.9868C76.9563 13.0619 73.15 13.2548 72.2677 13.3407C71.9636 13.3703 71.24 13.4107 70.6595 13.4304C69.6892 13.4634 68.6273 13.53 67.7447 13.6134C66.4873 13.7322 69.211 13.2981 70.7152 13.14C71.5438 13.0529 73.1529 12.8957 74.6297 12.7576C74.9614 12.7266 76.16 12.6609 77.2932 12.6117C78.4265 12.5625 79.4894 12.5053 79.6553 12.4846C80.4498 12.3853 86.0627 12.3356 88.5505 12.4058ZM97.3955 13.1894C98.5104 13.2452 100.359 13.283 102.013 13.2837C104.704 13.285 104.776 13.2881 105.003 13.4123C105.318 13.5848 105.295 13.6312 104.909 13.6063C104.729 13.5948 102.614 13.5568 100.21 13.5219C97.805 13.4871 94.164 13.4326 92.1186 13.401C82.7303 13.2556 76.0944 13.3545 70.2543 13.7268C69.5062 13.7745 68.8052 13.8233 68.6964 13.8351C68.5875 13.847 68.1593 13.8743 67.7447 13.8959C66.5118 13.96 65.9127 13.9979 65.4078 14.0436C65.1452 14.0674 64.9304 14.0645 64.9304 14.0371C64.9304 14.0097 65.0269 13.9873 65.1449 13.9873C65.2628 13.9873 65.5229 13.9624 65.7228 13.932C66.7656 13.7733 68.0984 13.6668 70.157 13.5778C71.8201 13.5059 72.3532 13.4757 73.2735 13.4011C73.6332 13.3719 74.3569 13.3325 74.8816 13.3134C75.4065 13.2944 76.2655 13.2506 76.7907 13.2161C78.5311 13.1017 81.7902 13.0646 88.7013 13.0805C93.9092 13.0926 95.9786 13.1185 97.3955 13.1894ZM43.9738 13.4268C46.392 13.5466 49.008 13.7743 51.0599 14.0437C53.8227 14.4064 55.0895 14.5867 55.0472 14.6114C55.0213 14.6265 54.8259 14.6118 54.613 14.5788C54.2144 14.517 50.4807 14.0788 49.8537 14.0202C49.6602 14.0021 49.1401 13.9731 48.6978 13.9558C48.2556 13.9384 47.3993 13.8977 46.795 13.8653C44.4523 13.7397 27.9722 13.8101 25.6808 13.9555C25.4597 13.9695 24.9395 13.9987 24.5249 14.0203C24.1103 14.0419 23.658 14.0734 23.5198 14.0904C23.15 14.1357 12.8728 14.145 12.9206 14.1C12.966 14.0572 14.105 13.9176 14.2381 13.9384C14.2848 13.9457 14.5718 13.9337 14.8759 13.9116C15.9375 13.8345 16.7597 13.8147 20.203 13.783C22.1102 13.7654 23.8741 13.7389 24.1229 13.7241C26.5228 13.5814 28.2787 13.5255 32.4151 13.4598C34.571 13.4256 37.1039 13.3745 38.0437 13.3462C40.0195 13.2868 41.5745 13.308 43.9738 13.4268ZM96.3401 13.5685C103.469 13.6755 104.734 13.7049 104.673 13.7624C104.638 13.7957 103.779 13.8016 102.488 13.7775C99.5092 13.7221 87.841 13.7145 87.982 13.7681C88.0459 13.7924 85.2261 13.8095 81.7157 13.8063C75.5097 13.8005 74.6145 13.8125 72.72 13.9276C72.2225 13.9578 71.4762 13.9988 71.0616 14.0186C70.6469 14.0385 70.1268 14.0635 69.9057 14.0741C69.6846 14.0848 69.0513 14.1099 68.4985 14.1299C66.645 14.1968 65.1887 14.2904 64.2537 14.4027C63.2234 14.5263 63.1025 14.5337 63.3222 14.4597C63.6833 14.3379 65.6941 14.1096 66.9406 14.0488C67.6869 14.0124 68.4332 13.9702 68.599 13.955C68.7649 13.9398 69.579 13.8891 70.4082 13.8423C71.2375 13.7955 72.0968 13.7441 72.3179 13.7281C72.5391 13.7121 73.2175 13.6845 73.8256 13.6669C75.7419 13.6113 78.6399 13.5128 78.9014 13.4944C79.4565 13.4553 92.4845 13.5106 96.3401 13.5685ZM90.087 13.8548C89.7987 13.8666 89.3012 13.8667 88.9813 13.8551C88.6615 13.8434 88.8973 13.8338 89.5053 13.8337C90.1134 13.8335 90.3752 13.8431 90.087 13.8548ZM99.4509 13.8506C102.422 13.8811 103.273 13.9065 103.362 13.9674C103.425 14.0102 103.628 14.1391 103.814 14.2539C103.999 14.3687 104.135 14.4713 104.115 14.4819C104.096 14.4925 103.107 14.4543 101.918 14.397C99.4138 14.2762 96.5523 14.1907 95.1842 14.1957C89.9948 14.2146 81.1806 14.217 81.1285 14.1994C80.9886 14.1525 68.964 14.2748 68.2975 14.33C67.9105 14.362 67.2547 14.4048 66.8401 14.4251C65.7877 14.4767 63.7527 14.6277 63.2747 14.6898C63.055 14.7183 62.8575 14.7312 62.8356 14.7184C62.8138 14.7057 62.9257 14.6782 63.0842 14.6573C63.2427 14.6364 63.5308 14.5973 63.7243 14.5702C64.6512 14.4408 67.4904 14.2746 71.2123 14.1318C71.7099 14.1128 72.5014 14.0705 72.9713 14.0379C74.0191 13.9653 77.7564 13.882 79.0832 13.9017C79.6189 13.9096 82.6128 13.9315 85.7362 13.9502C91.6345 13.9855 96.1486 14.0324 98.0488 14.0779C100.598 14.139 103.477 14.1567 102.672 14.1064C101.55 14.0362 97.8965 13.9282 96.3904 13.9207C95.6993 13.9173 94.659 13.8958 94.0786 13.8729L93.0232 13.8314L94.3386 13.8216C95.062 13.8162 97.3626 13.8293 99.4509 13.8506ZM47.1467 14.0375C47.834 14.0722 48.7129 14.1139 49.0999 14.1302C49.4869 14.1466 50.0522 14.1862 50.3563 14.2184C50.6603 14.2505 51.0674 14.2922 51.2609 14.3109C51.6815 14.3517 55.2002 14.768 55.9849 14.8697C56.2889 14.9092 56.4784 14.9533 56.406 14.9679C56.3335 14.9824 56.0848 14.9668 55.8532 14.9332C55.1118 14.8255 53.4735 14.6879 51.9183 14.6027C49.7074 14.4816 43.9273 14.4309 40.858 14.5057C39.4207 14.5407 34.5358 14.585 30.0028 14.6041C25.4697 14.6233 21.2181 14.6642 20.5547 14.6952C19.8914 14.7261 18.7832 14.7774 18.0922 14.8091C17.4012 14.8409 16.4966 14.8926 16.082 14.9239C12.8488 15.1683 11.2575 15.2262 11.2575 15.0993C11.2575 14.9835 11.6469 14.8178 12.2046 14.6963C12.517 14.6283 12.814 14.5726 12.8644 14.5726C12.9149 14.5726 12.9923 14.539 13.0366 14.498C13.0807 14.457 13.245 14.376 13.4015 14.318C13.6684 14.219 13.9456 14.2149 17.8743 14.2512C21.2707 14.2827 22.4139 14.2725 23.9219 14.1977C26.1924 14.085 28.7723 13.9899 30.053 13.9717C32.8561 13.9318 46.0572 13.9826 47.1467 14.0375ZM104.387 14.1091C104.55 14.2082 104.998 14.4255 105.383 14.5919C105.975 14.8477 106.049 14.8974 105.856 14.9135C105.732 14.9239 104.67 14.8649 103.497 14.7822C100.823 14.5936 96.0973 14.4555 92.3212 14.4555C90.7264 14.4555 89.4404 14.4451 89.4635 14.4323C89.6563 14.3256 96.3547 14.2993 99.3554 14.3935C101.882 14.4729 104.037 14.5666 104.255 14.6067C104.536 14.6582 104.462 14.5562 104.029 14.294C103.808 14.16 103.627 14.023 103.627 13.9896C103.627 13.8615 104.105 13.9365 104.387 14.1091ZM62.6186 14.3086C62.6186 14.3538 60.995 14.8172 60.9428 14.7868C60.9033 14.7638 62.4662 14.28 62.58 14.28C62.6012 14.28 62.6186 14.2928 62.6186 14.3086ZM82.7872 14.3576C82.8244 14.3793 80.077 14.391 76.6818 14.3836C71.4865 14.3723 71.0341 14.3653 73.8256 14.3397C78.2074 14.2994 82.7027 14.3084 82.7872 14.3576ZM69.4534 14.397C69.4534 14.4292 69.2838 14.4524 69.0765 14.4486C68.7013 14.4417 68.701 14.4415 69.0011 14.397C69.4363 14.3325 69.4534 14.3325 69.4534 14.397ZM88.852 14.5677C89.5222 14.5927 88.481 14.6106 85.9996 14.6169C83.8502 14.6223 82.0674 14.6409 82.0377 14.6582C82.0081 14.6755 83.3143 14.691 84.9405 14.6927C86.5667 14.6944 88.6887 14.7197 89.6561 14.749C90.6235 14.7783 92.6363 14.8289 94.1289 14.8615C98.4268 14.9554 101.461 15.0396 102.873 15.1042C103.592 15.1371 104.519 15.1794 104.934 15.1982C105.348 15.217 105.665 15.2187 105.637 15.2021C105.61 15.1855 105.248 15.1541 104.833 15.1323C104.419 15.1105 103.989 15.0804 103.878 15.0654C103.477 15.0107 98.9767 14.8643 95.8375 14.8037C94.0685 14.7695 92.0332 14.7205 91.3145 14.6948C90.0357 14.649 90.0559 14.6479 92.2694 14.6408C95.4442 14.6306 100.457 14.7282 102.421 14.8385C103.333 14.8897 104.599 14.947 105.233 14.9657L106.387 14.9998L106.892 15.2882L107.396 15.5767L106.341 15.541C105.76 15.5213 104.2 15.4927 102.873 15.4773C101.547 15.4619 98.9685 15.4236 97.1442 15.3922C95.3199 15.3608 91.0231 15.3393 87.5956 15.3443L81.3639 15.3535L88.1484 15.3962C91.8799 15.4196 95.7471 15.467 96.7421 15.5015C97.7372 15.5359 100.535 15.5943 102.96 15.6312C107.847 15.7055 107.531 15.6752 107.905 16.1057C107.998 16.2121 108.152 16.3517 108.247 16.4161C108.486 16.5766 108.575 16.738 108.423 16.7377C108.356 16.7376 107.894 16.7005 107.396 16.6553C105.191 16.4548 100.398 16.2482 96.6416 16.1917C94.2391 16.1556 95.0937 16.2362 98.4006 16.3577C101.631 16.4764 102.097 16.4971 103.024 16.5636C103.439 16.5934 104.162 16.6222 104.632 16.6276C105.102 16.633 105.939 16.6723 106.492 16.7149C107.045 16.7574 107.729 16.7932 108.013 16.7944C108.459 16.7962 108.537 16.814 108.587 16.9256C108.619 16.9966 108.635 17.0571 108.624 17.0599C108.554 17.0769 104.753 16.9737 103.577 16.9229C101.261 16.8228 97.7975 16.7724 97.7975 16.8389C97.7975 16.8754 98.6836 16.9133 100.134 16.939C101.42 16.9618 103.037 17.0052 103.728 17.0355C104.419 17.0657 105.843 17.105 106.894 17.1228C107.944 17.1405 108.857 17.165 108.923 17.1773C108.988 17.1895 109.095 17.2579 109.161 17.3292L109.28 17.4589L105.926 17.4216C104.081 17.4011 100.876 17.3545 98.8026 17.3181C94.2168 17.2375 79.182 17.2821 74.8307 17.3893C71.2873 17.4765 70.9897 17.4783 66.3668 17.4409L62.8278 17.4122L62.7063 17.28C62.6395 17.2073 62.6037 17.1369 62.6268 17.1235C62.65 17.1101 63.9956 17.0671 65.6171 17.0279C67.6289 16.9793 71.8114 16.9637 78.7841 16.979C84.4044 16.9913 88.46 16.9841 87.7967 16.963C85.127 16.8781 72.0511 16.8427 67.6944 16.9085C65.2621 16.9453 63.1082 16.9853 62.9081 16.9975L62.5443 17.0197L62.486 16.6906C62.4539 16.5096 62.44 16.3543 62.4551 16.3455C62.4701 16.3367 65.2495 16.3286 68.6315 16.3274C72.4389 16.3261 74.7805 16.3041 74.7805 16.2697C74.7805 16.2353 72.4329 16.2175 68.58 16.2229C62.6518 16.2311 62.3748 16.2267 62.2729 16.1236C62.2143 16.0642 62.0141 15.9149 61.828 15.7916C61.6419 15.6683 61.5109 15.5675 61.5369 15.5675C61.7136 15.5675 66.4056 15.3081 66.8903 15.2716C67.43 15.2309 67.4036 15.2283 66.6391 15.2473C65.2717 15.2812 61.7837 15.4417 61.5561 15.4811C61.4166 15.5052 61.1709 15.4531 60.8116 15.323L60.2753 15.1289L60.8187 15.0578C61.1177 15.0187 61.6336 14.9712 61.9653 14.9522C62.297 14.9332 62.9981 14.878 63.5232 14.8294C65.2489 14.6698 67.697 14.6173 75.283 14.5774C85.5278 14.5236 87.6269 14.5221 88.852 14.5677ZM48.8989 14.6555C52.1447 14.6871 54.0305 14.8052 57.0247 15.1643C57.5126 15.2228 57.5807 15.245 57.4267 15.2953C57.2208 15.3626 56.6234 15.3533 56.0854 15.2745C55.6435 15.2098 53.6677 15.062 52.2157 14.985C51.6076 14.9528 50.7257 14.8975 50.2558 14.8622C49.277 14.7886 41.2098 14.7389 41.2098 14.8065C41.2098 14.831 42.9172 14.8647 45.0041 14.8814C47.7783 14.9036 49.3793 14.9449 50.9593 15.0352C52.1479 15.1031 53.6096 15.1854 54.2076 15.2182C54.8056 15.251 55.5067 15.3018 55.7655 15.3312C56.0244 15.3606 56.4537 15.4013 56.7196 15.4217C56.9855 15.442 57.1879 15.4851 57.1694 15.5175C57.1509 15.5498 57.0917 15.5759 57.0378 15.5755C56.6466 15.5724 53.453 15.3938 50.5626 15.2133C48.2901 15.0714 43.2038 15.0115 33.4202 15.0115C23.2215 15.0115 21.5187 15.0365 17.4892 15.2457C16.6323 15.2902 15.4563 15.3426 14.8759 15.3622C13.5898 15.4056 13.1512 15.4466 13.2253 15.5163C13.2562 15.5455 13.3166 15.5568 13.3595 15.5414C13.4024 15.5259 14.1569 15.4861 15.0362 15.4529C15.9154 15.4196 17.4942 15.3531 18.5445 15.3049C19.5949 15.2568 21.2231 15.1885 22.1629 15.1531C24.7579 15.0553 37.1443 15.019 41.5113 15.0964C46.6659 15.1877 49.5354 15.2567 49.9542 15.2994C50.1477 15.3192 50.8714 15.36 51.5624 15.3902C52.2534 15.4204 53.2937 15.4715 53.8742 15.5037C55.0396 15.5685 56.2872 15.6215 56.7136 15.6242C56.8938 15.6254 56.99 15.6573 56.99 15.7159C56.99 15.79 56.9517 15.7938 56.7716 15.7377C56.496 15.6517 48.5895 15.5972 48.501 15.6806C48.4652 15.7143 49.7715 15.7393 51.8871 15.7454C53.7816 15.7508 55.6775 15.7722 56.1002 15.793L56.8689 15.8309L56.452 16.3159C56.2227 16.5826 55.8995 16.8872 55.7336 16.9927L55.4321 17.1845L53.8239 17.1962C51.617 17.2123 44.6442 17.3144 43.1697 17.3522C42.5064 17.3693 40.5841 17.3975 38.898 17.415C37.2119 17.4325 33.5935 17.4835 30.8571 17.5283C28.1207 17.5731 23.0097 17.6517 19.4994 17.7029C15.989 17.7541 12.167 17.8213 11.006 17.8522C9.84499 17.8832 8.6803 17.9085 8.41784 17.9085C7.95736 17.9085 7.94061 17.9024 7.94061 17.7374C7.94061 17.6403 8.04923 17.4911 8.19172 17.3925L8.44283 17.2188L10.2271 17.177C11.2084 17.154 12.147 17.1258 12.3128 17.1143C12.4787 17.1028 13.7343 17.0751 15.103 17.0528C16.4718 17.0305 17.5656 16.9971 17.5338 16.9785C17.4712 16.9421 12.6815 16.9593 12.577 16.9964C12.5423 17.0087 11.6395 17.0379 10.5708 17.0614L8.62784 17.104L8.90005 16.7912C9.04978 16.6192 9.30558 16.4059 9.46848 16.3173L9.76468 16.1562L11.7926 16.1223C12.9079 16.1037 14.7025 16.0505 15.7805 16.0042C17.9702 15.91 24.0272 15.7893 25.8818 15.8028C27.7875 15.8166 36.028 15.7357 36.0837 15.7026C36.1972 15.6352 19.7591 15.7497 17.1876 15.8343C15.7227 15.8825 14.4562 15.9369 14.3733 15.9551C14.2268 15.9874 9.83253 16.0878 9.76756 16.0603C9.71101 16.0365 10.2515 15.4067 10.3831 15.3431C10.4536 15.309 11.2582 15.27 12.215 15.2543C13.1533 15.2389 14.4864 15.1853 15.1774 15.1352C18.8942 14.8659 20.4565 14.8175 26.7362 14.7772C33.9738 14.7306 44.6611 14.6309 44.6978 14.6095C44.7159 14.5989 45.058 14.599 45.4579 14.6097C45.8578 14.6203 47.4063 14.641 48.8989 14.6555ZM59.8043 14.7683C59.8043 14.7794 59.7026 14.8387 59.5782 14.9L59.352 15.0115L59.5435 14.8798C59.7234 14.7561 59.8043 14.7215 59.8043 14.7683ZM75.3876 14.9945C73.9801 15.02 72.3519 15.0649 71.7692 15.0945C70.7505 15.1461 70.7696 15.1473 72.2677 15.1235C76.8769 15.0506 85.4516 15.033 87.9977 15.0913C89.5455 15.1267 92.282 15.1666 94.0786 15.1798C96.3299 15.1965 96.8922 15.19 95.8878 15.159C95.0862 15.1342 93.5484 15.1106 92.4704 15.1064C91.3924 15.1021 89.6737 15.0728 88.651 15.0412C86.1544 14.964 78.5558 14.9373 75.3876 14.9945ZM57.5428 15.1039L57.7438 15.1504L57.5428 15.1496C57.4323 15.1492 57.1609 15.1129 56.9398 15.069L56.5377 14.9892L56.9398 15.0233C57.1609 15.0421 57.4323 15.0783 57.5428 15.1039ZM70.0564 15.1578C70.0564 15.19 70.1496 15.2163 70.2634 15.2163C70.3772 15.2163 70.4424 15.19 70.4082 15.1578C70.3741 15.1256 70.281 15.0993 70.2013 15.0993C70.1216 15.0993 70.0564 15.1256 70.0564 15.1578ZM60.5164 15.3359C60.9757 15.4724 61.6262 15.7995 61.9265 16.045C62.0387 16.1368 62.2123 16.4422 62.3121 16.7237C62.412 17.0052 62.5268 17.2818 62.5673 17.3385C62.6233 17.4167 62.6032 17.4331 62.4842 17.4066C62.3086 17.3673 62.0547 16.9613 61.9563 16.5624C61.8698 16.2118 61.7433 16.1062 60.9091 15.6882L60.2012 15.3334H59.5142C59.1364 15.3334 58.6205 15.3499 58.3678 15.3701C57.9365 15.4045 57.8961 15.4234 57.7069 15.6795C57.5961 15.8295 57.412 16.0015 57.2979 16.0616C57.1839 16.1217 57.0905 16.1965 57.0905 16.2279C57.0905 16.2592 56.9435 16.3842 56.7639 16.5056C56.5842 16.6271 56.3536 16.7967 56.2514 16.8825C56.1493 16.9684 56.0402 17.0238 56.0092 17.0057C55.9781 16.9876 56.0244 16.9265 56.1121 16.87C56.1998 16.8135 56.4018 16.6092 56.5609 16.4161C57.0379 15.8371 57.5007 15.3953 57.7265 15.3032C57.8828 15.2394 58.2283 15.2163 59.0266 15.2163C59.9232 15.2163 60.1845 15.2373 60.5164 15.3359ZM72.1672 15.2801C69.1789 15.3406 67.4195 15.3977 67.4788 15.4322C67.5052 15.4476 69.6678 15.4209 72.2844 15.373C74.9011 15.325 78.2616 15.2821 79.7522 15.2775C81.2428 15.273 82.4828 15.2574 82.5079 15.2428C82.5797 15.201 74.6675 15.2295 72.1672 15.2801ZM98.2749 15.2587C98.4546 15.2717 98.7486 15.2717 98.9283 15.2587C99.1079 15.2457 98.9609 15.2351 98.6016 15.2351C98.2423 15.2351 98.0953 15.2457 98.2749 15.2587ZM99.4308 15.2567C99.5276 15.2714 99.6859 15.2714 99.7826 15.2567C99.8794 15.242 99.8002 15.2299 99.6067 15.2299C99.4132 15.2299 99.3341 15.242 99.4308 15.2567ZM33.3699 15.3957C32.5683 15.4186 29.1309 15.4584 25.7311 15.484C22.3313 15.5097 19.6627 15.5494 19.8009 15.5724C20.1238 15.6261 29.4324 15.5801 32.7166 15.5085C37.6602 15.4008 41.0135 15.3843 44.5769 15.4504C46.567 15.4872 48.9642 15.5261 49.904 15.5367L51.6127 15.5561L50.2558 15.5077C49.5095 15.4811 48.1073 15.4315 47.1399 15.3975C45.2194 15.3299 35.7077 15.3287 33.3699 15.3957ZM60.6698 15.7481C61.4618 16.1039 61.6805 16.2941 61.8152 16.7447C61.9717 17.2682 62.1849 17.4572 62.7251 17.5514L63.1604 17.6274L62.9146 17.7375C62.7795 17.7981 62.3749 17.9132 62.0156 17.9933C59.945 18.4549 56.6122 18.2241 55.6407 17.5519L55.3718 17.3658L55.8542 17.2039C56.1196 17.1149 56.5402 16.8934 56.789 16.7117C57.0378 16.5299 57.3626 16.2955 57.5109 16.1907C57.6591 16.0858 57.8105 15.9301 57.8474 15.8447C57.8842 15.7593 57.9664 15.6643 58.0301 15.6337C58.2655 15.5206 58.867 15.4546 59.4786 15.4748C60.0405 15.4934 60.1678 15.5226 60.6698 15.7481ZM88.7696 15.5992C89.5259 15.641 91.3125 15.7033 92.7398 15.7377C95.9928 15.8161 99.0392 15.9206 104.029 16.1251C106.392 16.2218 107.57 16.2315 107.104 16.1503C106.943 16.1222 106.31 16.0833 105.697 16.0637C105.084 16.0442 103.836 15.9915 102.924 15.9468C100.724 15.8389 96.496 15.7048 91.8674 15.5963C87.4926 15.4937 86.87 15.4943 88.7696 15.5992ZM75.8861 15.9186C75.8861 15.9508 75.9513 15.9772 76.0309 15.9772C76.1106 15.9772 76.2037 15.9508 76.2379 15.9186C76.2721 15.8864 76.2069 15.8601 76.093 15.8601C75.9792 15.8601 75.8861 15.8864 75.8861 15.9186ZM79.1527 15.9066C79.2155 15.9431 81.2067 15.9776 84.4587 15.9984C87.3217 16.0167 89.6963 16.0426 89.7355 16.0559C89.7747 16.0693 90.4841 16.0986 91.3117 16.121C92.1393 16.1435 92.8486 16.1734 92.8878 16.1875C92.927 16.2016 92.9875 16.1864 93.0222 16.1537C93.0592 16.1188 92.9685 16.094 92.803 16.0938C92.6477 16.0935 91.6161 16.056 90.5105 16.0104C87.9737 15.9057 79.0103 15.8238 79.1527 15.9066ZM34.5592 15.9764C32.5874 15.9929 30.9365 16.0299 30.8905 16.0585C30.8418 16.0888 31.2016 16.0949 31.752 16.0731C32.2719 16.0525 34.7784 16.0357 37.322 16.0357C39.8657 16.0357 41.928 16.0253 41.905 16.0127C41.8198 15.9659 38.0385 15.9472 34.5592 15.9764ZM46.3358 15.9787C44.3805 16.0022 44.9525 16.0109 48.7481 16.0158C51.4845 16.0193 53.6556 16.0136 53.5726 16.0032C53.2618 15.9641 48.8056 15.949 46.3358 15.9787ZM70.559 15.9798C69.9786 16.0027 68.5877 16.0246 67.4683 16.0285C66.1866 16.033 65.4329 16.0574 65.4329 16.0942C65.4329 16.1706 67.3082 16.1679 69.9559 16.0878C71.0892 16.0535 72.8532 16.0058 73.8759 15.9819L75.7353 15.9383L73.6748 15.9383C72.5416 15.9383 71.1395 15.9569 70.559 15.9798ZM16.8191 16.0899C15.8701 16.1084 15.071 16.1366 15.0433 16.1527C15.0156 16.1688 17.2847 16.1741 20.0856 16.1644C23.1192 16.1539 25.2169 16.1243 25.2737 16.0912C25.3763 16.0315 19.8664 16.0307 16.8191 16.0899ZM54.1506 16.0744C54.2197 16.0907 54.3328 16.0907 54.4018 16.0744C54.471 16.0582 54.4144 16.0449 54.2762 16.0449C54.138 16.0449 54.0815 16.0582 54.1506 16.0744ZM14.3984 16.1931C14.4952 16.2078 14.6535 16.2078 14.7502 16.1931C14.847 16.1783 14.7678 16.1663 14.5743 16.1663C14.3809 16.1663 14.3017 16.1783 14.3984 16.1931ZM18.4758 16.3026C16.6137 16.3439 14.9855 16.3911 14.8574 16.4076C14.636 16.4361 15.6598 16.4265 20.1024 16.3584C21.1804 16.3419 23.3957 16.3136 25.0252 16.2955C26.6548 16.2774 28.0079 16.2511 28.0322 16.2369C28.1201 16.1858 21.7812 16.2293 18.4758 16.3026ZM43.019 16.2501C38.6841 16.3394 36.292 16.4079 35.0283 16.4787C34.1991 16.5252 32.1977 16.5805 30.5807 16.6015C28.9638 16.6226 27.6408 16.6618 27.6408 16.6888C27.6408 16.7545 29.3343 16.7387 32.6161 16.6423C35.3918 16.5608 36.1589 16.5535 35.1791 16.6177C34.8751 16.6377 38.5613 16.6557 43.3708 16.6578C48.1802 16.6599 52.4997 16.6779 52.9696 16.6979C53.4395 16.7178 54.1857 16.714 54.628 16.6895C56.0633 16.6099 50.1531 16.5406 42.6797 16.5494C38.8722 16.5539 35.774 16.548 35.7947 16.5364C35.9377 16.456 49.8518 16.2911 54.5526 16.3141C55.3187 16.3178 55.8844 16.2974 55.8844 16.2659C55.8844 16.2178 45.2234 16.2046 43.019 16.2501ZM77.9183 16.2514C77.5157 16.2644 77.2061 16.2936 77.2301 16.3163C77.2541 16.339 78.3976 16.3372 79.7711 16.3123C81.8882 16.274 86.1993 16.2996 87.0428 16.3556C87.181 16.3647 88.1082 16.3894 89.1033 16.4104C90.7277 16.4446 91.9884 16.4834 95.1088 16.5952C95.6885 16.616 96.0888 16.6081 96.0888 16.5759C96.0888 16.546 95.3991 16.5034 94.556 16.4812C93.713 16.459 91.6889 16.4005 90.0582 16.3511C87.2274 16.2653 79.4624 16.2015 77.9183 16.2514ZM24.1229 16.4535C22.3263 16.4798 20.5623 16.5271 20.203 16.5585C19.678 16.6044 19.8458 16.6097 21.0573 16.5853C21.8865 16.5685 24.6774 16.5358 27.2593 16.5125C29.8411 16.4893 31.9858 16.4515 32.0252 16.4285C32.1125 16.3776 28.5243 16.389 24.1229 16.4535ZM18.9729 16.6038C19.0979 16.6178 19.2788 16.6173 19.3749 16.6026C19.471 16.588 19.3687 16.5765 19.1476 16.5772C18.9265 16.5778 18.8478 16.5898 18.9729 16.6038ZM55.4823 16.6209C55.4823 16.6531 55.5728 16.6795 55.6834 16.6795C55.7939 16.6795 55.8844 16.6531 55.8844 16.6209C55.8844 16.5887 55.7939 16.5624 55.6834 16.5624C55.5728 16.5624 55.4823 16.5887 55.4823 16.6209ZM64.4278 16.62C64.1791 16.642 66.1013 16.6476 68.6995 16.6324C71.2978 16.6172 73.4424 16.5952 73.4654 16.5836C73.5426 16.5446 64.8863 16.5794 64.4278 16.62ZM74.857 16.6038C74.9821 16.6178 75.163 16.6173 75.2591 16.6026C75.3552 16.588 75.2529 16.5765 75.0317 16.5772C74.8106 16.5778 74.732 16.5898 74.857 16.6038ZM96.4657 16.6037C96.5901 16.6176 96.7937 16.6176 96.918 16.6037C97.0424 16.5898 96.9406 16.5783 96.6919 16.5783C96.4431 16.5783 96.3414 16.5898 96.4657 16.6037ZM26.0829 16.6795C26.0487 16.7116 26.1165 16.738 26.2336 16.738C26.3507 16.738 26.4186 16.7116 26.3844 16.6795C26.3502 16.6473 26.2824 16.6209 26.2336 16.6209C26.1849 16.6209 26.117 16.6473 26.0829 16.6795ZM23.0927 16.7231C22.3278 16.7352 21.9116 16.7641 21.9116 16.8054C21.9116 16.8716 23.7438 16.8325 24.9772 16.74L25.5803 16.6948L24.927 16.6997C24.5677 16.7024 23.7422 16.713 23.0927 16.7231ZM26.7613 16.7214C26.9133 16.7348 27.1621 16.7348 27.3141 16.7214C27.4662 16.708 27.3418 16.697 27.0377 16.697C26.7337 16.697 26.6093 16.708 26.7613 16.7214ZM84.9321 16.7333C84.8255 16.7767 85.6903 16.795 87.8842 16.7956C89.7019 16.7961 91.6794 16.831 92.6585 16.8797C93.5778 16.9255 95.2345 16.9924 96.3401 17.0284C97.4457 17.0643 99.0062 17.1197 99.8077 17.1515C103.009 17.2783 108.978 17.3758 108.845 17.2991C108.822 17.2858 107.266 17.2448 105.386 17.208C103.507 17.1711 101.788 17.1315 101.567 17.1199C101.346 17.1083 100.464 17.0812 99.6067 17.0598C98.7498 17.0383 97.955 17.0124 97.8404 17.0022C97.7258 16.992 97.0474 16.966 96.3328 16.9446C95.6181 16.9231 94.3098 16.8662 93.4253 16.818C91.4103 16.7083 85.147 16.6458 84.9321 16.7333ZM38.496 16.83C36.7896 16.9145 34.3374 16.9431 34.1636 16.8805C34.0937 16.8554 34.0686 16.8615 34.1041 16.8951C34.1431 16.9318 33.8066 16.9569 33.1899 16.9632C32.6532 16.9687 32.0168 16.9895 31.7757 17.0095C31.5119 17.0314 31.3117 17.0215 31.2727 16.9848C31.2286 16.9433 30.8226 16.9402 30.0023 16.9753C28.574 17.0362 23.9922 17.1542 21.8614 17.1849C18.0395 17.2399 10.7205 17.3976 9.95083 17.4415C8.9026 17.5012 12.8159 17.4579 15.6297 17.3786C16.68 17.349 18.5431 17.3244 19.7697 17.324C20.9964 17.3236 22.8056 17.2853 23.7902 17.2389C24.7747 17.1926 26.6206 17.1465 27.8921 17.1365C29.2808 17.1256 30.2327 17.095 30.2761 17.0599C30.3232 17.0218 30.4193 17.0269 30.5512 17.0745C30.6627 17.1147 30.8279 17.1476 30.9183 17.1476C31.06 17.1476 31.0636 17.1341 30.9448 17.0503C30.819 16.9615 30.828 16.9594 31.0467 17.0273C31.2291 17.0839 31.6678 17.0916 32.881 17.0595C34.3234 17.0213 34.5115 17.0277 34.8524 17.1263C35.228 17.235 35.213 17.2356 30.9074 17.2737C28.5303 17.2947 25.3416 17.3405 23.8214 17.3755C22.3011 17.4104 20.1527 17.4535 19.0471 17.4713C15.8098 17.5232 14.2319 17.5616 14.1838 17.5896C14.159 17.6041 14.4969 17.6156 14.9345 17.6152C15.9732 17.6145 24.7973 17.454 26.0326 17.4135C26.8926 17.3853 34.606 17.3188 36.6616 17.322C37.1743 17.3227 37.4909 17.2998 37.4909 17.2619C37.4909 17.2226 37.1207 17.2034 36.4606 17.2085C35.7598 17.214 35.3228 17.1896 35.0939 17.1323L34.7575 17.0481L35.2336 17.0101C35.4954 16.9892 36.1444 16.9723 36.6757 16.9727C37.2069 16.973 38.2975 16.9453 39.099 16.9112C39.9006 16.8771 42.2526 16.8281 44.3256 16.8024L48.0948 16.7555L44.0241 16.7567C41.6712 16.7573 39.3384 16.7883 38.496 16.83ZM48.4968 16.7965C48.531 16.8287 48.6494 16.855 48.76 16.855C48.8705 16.855 48.933 16.8287 48.8989 16.7965C48.8647 16.7643 48.7463 16.738 48.6357 16.738C48.5252 16.738 48.4626 16.7643 48.4968 16.7965ZM49.6339 16.8365C49.7064 16.8534 49.7931 16.8513 49.8265 16.8319C49.8599 16.8124 49.8006 16.7986 49.6946 16.8011C49.5775 16.8039 49.5537 16.8178 49.6339 16.8365ZM50.0359 16.8365C50.1085 16.8534 50.1952 16.8513 50.2286 16.8319C50.2619 16.8124 50.2026 16.7986 50.0966 16.8011C49.9795 16.8039 49.9557 16.8178 50.0359 16.8365ZM89.2289 17.0134C89.3533 17.0273 89.5569 17.0273 89.6812 17.0134C89.8056 16.9994 89.7039 16.988 89.4551 16.988C89.2063 16.988 89.1046 16.9994 89.2289 17.0134ZM95.9883 17.3798C97.4533 17.4103 101.026 17.4656 103.929 17.5027C106.831 17.5399 109.213 17.574 109.222 17.5785C109.232 17.5831 109.272 17.6635 109.313 17.7571L109.386 17.9274L107.889 17.8875C105.705 17.8292 96.573 17.7296 79.5045 17.5778C72.804 17.5182 74.206 17.4464 83.1731 17.3898C87.2087 17.3644 91.1437 17.3392 91.9176 17.3339C92.6915 17.3287 94.5234 17.3493 95.9883 17.3798ZM55.4023 17.6366C56.2496 18.1366 57.1627 18.312 59.1584 18.3581C61.1035 18.403 62.2878 18.2404 63.1691 17.8075L63.5687 17.6112L66.6367 17.6441C68.3241 17.6622 73.4135 17.716 77.9466 17.7636C82.4796 17.8112 89.2189 17.889 92.9227 17.9364C96.6266 17.9838 101.882 18.0345 104.602 18.0491L109.546 18.0755L109.577 17.8713L109.608 17.667L110.152 17.9779C110.755 18.3223 111.064 18.5836 111.065 18.7491C111.065 18.8438 111.009 18.8536 110.638 18.8239C109.979 18.771 105.931 18.6788 99.9585 18.5807C96.9733 18.5317 92.3825 18.4532 89.7566 18.4063C87.1308 18.3594 82.4269 18.2801 79.3035 18.2301C70.9223 18.0959 64.3062 17.9663 64.2178 17.9345C64.175 17.9191 64.0719 17.9632 63.9886 18.0325C63.4423 18.4865 60.8564 18.8958 58.9589 18.8285C57.4814 18.7761 55.3061 18.2756 54.5278 17.8089L54.2006 17.6128L51.2482 17.7003C49.6244 17.7484 46.8032 17.8286 44.9789 17.8786C43.1547 17.9285 40.3504 18.0078 38.7473 18.0547C35.4616 18.1508 31.1357 18.2738 26.3844 18.4062C24.6154 18.4555 21.9016 18.5352 20.3537 18.5833C13.5379 18.795 11.8204 18.8499 10.4031 18.901C9.57391 18.931 8.44316 18.9503 7.89035 18.944C6.96883 18.9336 6.883 18.9229 6.85837 18.8156C6.8174 18.637 7.1917 18.3307 7.56061 18.2409C7.74197 18.1968 7.95244 18.1171 8.02829 18.0638C8.14873 17.9793 8.43596 17.967 10.2898 17.9673C11.4578 17.9675 14.1999 17.9419 16.3835 17.9103C18.5671 17.8787 23.2937 17.8121 26.8869 17.7623C30.4802 17.7125 35.1389 17.6458 37.2396 17.614C39.3403 17.5822 43.2753 17.5294 45.984 17.4966C48.6928 17.4638 51.0448 17.4288 51.2106 17.4187C51.3765 17.4087 52.2903 17.3963 53.2413 17.3911L54.9704 17.3817L55.4023 17.6366ZM13.4185 17.6158C13.1508 17.6555 13.1712 17.6613 13.6003 17.6674C13.8996 17.6717 14.06 17.6521 14.0215 17.6158C13.9524 17.5507 13.8583 17.5507 13.4185 17.6158ZM12.5912 17.6564C12.689 17.6712 12.8246 17.6703 12.8927 17.6542C12.9607 17.6382 12.8807 17.6261 12.7149 17.6272C12.549 17.6284 12.4934 17.6415 12.5912 17.6564Z" fill="white"/>
</svg>
