<svg width="150" height="60" viewBox="0 0 150 60" fill="none" xmlns="http://www.w3.org/2000/svg">
<path d="M23.9644 42.0662C23.9644 42.8224 23.8043 43.5075 23.484 44.1213C23.1726 44.7263 22.7189 45.2422 22.1229 45.6693C21.5268 46.0963 20.8017 46.4255 19.9477 46.6568C19.1025 46.8881 18.1417 47.0037 17.0653 47.0037C16.8696 47.0037 16.6249 46.9993 16.3313 46.9904C16.0467 46.9904 15.7308 46.9859 15.3839 46.977C15.0458 46.9681 14.69 46.9592 14.3163 46.9503C13.9427 46.9414 13.5779 46.9281 13.2221 46.9103C12.3769 46.8836 11.4828 46.8525 10.5398 46.8169H9.47225V45.8427C10.0772 45.7182 10.5309 45.5848 10.8334 45.4424C11.1448 45.2912 11.3005 45.1533 11.3005 45.0287V31.2705C10.9624 31.3061 10.6377 31.3461 10.3263 31.3906C10.0149 31.4351 9.73025 31.4796 9.47225 31.5241L9.29877 30.4031C9.69911 30.3053 10.1706 30.2119 10.7133 30.1229C11.256 30.025 11.8253 29.9405 12.4214 29.8694C13.0263 29.7893 13.6313 29.727 14.2362 29.6825C14.8501 29.6292 15.4239 29.6025 15.9577 29.6025C16.9808 29.6025 17.8926 29.687 18.6933 29.856C19.5029 30.0161 20.1879 30.2519 20.7484 30.5633C21.3088 30.8746 21.7359 31.2527 22.0294 31.6976C22.3319 32.1424 22.4832 32.645 22.4832 33.2055C22.4832 34.1663 22.2252 34.9892 21.7092 35.6742C21.1932 36.3592 20.437 36.8574 19.4406 37.1688C20.1078 37.2756 20.7172 37.4757 21.2688 37.7693C21.8293 38.0629 22.3052 38.4276 22.6967 38.8636C23.097 39.2906 23.4084 39.7799 23.6308 40.3315C23.8532 40.8741 23.9644 41.4524 23.9644 42.0662ZM16.4381 38.2897C16.0289 38.2897 15.6908 38.3075 15.4239 38.3431C15.157 38.3787 14.8946 38.4187 14.6366 38.4632V45.1221C14.6366 45.1844 14.6588 45.2422 14.7033 45.2956C14.9613 45.4024 15.246 45.478 15.5574 45.5225C15.8776 45.5581 16.2157 45.5759 16.5715 45.5759C17.8615 45.5759 18.8312 45.2867 19.4806 44.7085C20.139 44.1213 20.4681 43.3251 20.4681 42.3198C20.4681 41.8305 20.4014 41.3456 20.268 40.8652C20.1434 40.3848 19.9255 39.9534 19.6141 39.5708C19.3027 39.1883 18.889 38.8814 18.373 38.65C17.8571 38.4098 17.2121 38.2897 16.4381 38.2897ZM15.117 31.017H14.8901C14.8101 31.017 14.7255 31.0214 14.6366 31.0303V36.9419H14.8901C15.7798 36.9419 16.4959 36.853 17.0386 36.6751C17.5902 36.4971 18.0172 36.2658 18.3197 35.9811C18.631 35.6876 18.8401 35.3584 18.9469 34.9936C19.0536 34.62 19.107 34.2419 19.107 33.8594C19.107 33.4145 19.0403 33.0187 18.9068 32.6717C18.7823 32.3158 18.5643 32.0178 18.2529 31.7776C17.9416 31.5285 17.5279 31.3417 17.0119 31.2171C16.5048 31.0837 15.8732 31.017 15.117 31.017ZM35.454 40.9453C35.454 40.2425 35.3784 39.5753 35.2272 38.9436C35.0848 38.3031 34.8802 37.7426 34.6133 37.2622C34.3464 36.7729 34.0217 36.3859 33.6392 36.1012C33.2655 35.8166 32.8519 35.6742 32.3981 35.6742C31.8466 35.6742 31.3884 35.7988 31.0237 36.0479C30.6589 36.2881 30.3698 36.6261 30.1563 37.062C29.9427 37.4891 29.7915 38.0006 29.7025 38.5967C29.6225 39.1838 29.5824 39.8199 29.5824 40.5049C29.5824 41.2077 29.6625 41.8661 29.8226 42.4799C29.9917 43.0938 30.2141 43.6276 30.4899 44.0813C30.7746 44.535 31.0993 44.8953 31.464 45.1622C31.8377 45.4202 32.2291 45.5492 32.6383 45.5492C33.1721 45.5492 33.6169 45.4469 33.9728 45.2422C34.3286 45.0376 34.6178 44.7396 34.8402 44.3482C35.0626 43.9567 35.2183 43.4763 35.3072 42.9069C35.4051 42.3376 35.454 41.6837 35.454 40.9453ZM38.8169 40.3448C38.8169 40.9409 38.7368 41.5236 38.5767 42.0929C38.4165 42.6623 38.1897 43.2005 37.8961 43.7076C37.6114 44.2147 37.2689 44.6862 36.8686 45.1221C36.4682 45.5492 36.0234 45.9184 35.5341 46.2297C35.0537 46.5411 34.5333 46.7813 33.9728 46.9503C33.4212 47.1283 32.8519 47.2172 32.2647 47.2172C31.3484 47.2172 30.5166 47.0571 29.7693 46.7368C29.022 46.4166 28.3859 45.9762 27.861 45.4157C27.3361 44.8552 26.9269 44.188 26.6333 43.414C26.3486 42.6401 26.2063 41.7994 26.2063 40.8919C26.2063 40.0112 26.3664 39.1571 26.6867 38.3298C27.0158 37.5024 27.4696 36.7685 28.0478 36.1279C28.635 35.4874 29.3289 34.9759 30.1296 34.5933C30.9391 34.2019 31.8243 34.0062 32.7851 34.0062C33.6926 34.0062 34.5155 34.1663 35.2539 34.4866C36.0012 34.8068 36.6372 35.2516 37.1621 35.821C37.6959 36.3815 38.1051 37.0487 38.3898 37.8227C38.6745 38.5967 38.8169 39.4374 38.8169 40.3448ZM49.8127 40.9453C49.8127 40.2425 49.7371 39.5753 49.5859 38.9436C49.4435 38.3031 49.2389 37.7426 48.972 37.2622C48.7051 36.7729 48.3804 36.3859 47.9979 36.1012C47.6242 35.8166 47.2106 35.6742 46.7568 35.6742C46.2053 35.6742 45.7471 35.7988 45.3824 36.0479C45.0176 36.2881 44.7285 36.6261 44.515 37.062C44.3014 37.4891 44.1502 38.0006 44.0612 38.5967C43.9812 39.1838 43.9411 39.8199 43.9411 40.5049C43.9411 41.2077 44.0212 41.8661 44.1813 42.4799C44.3504 43.0938 44.5728 43.6276 44.8486 44.0813C45.1333 44.535 45.458 44.8953 45.8227 45.1622C46.1964 45.4202 46.5878 45.5492 46.997 45.5492C47.5308 45.5492 47.9756 45.4469 48.3315 45.2422C48.6873 45.0376 48.9765 44.7396 49.1989 44.3482C49.4213 43.9567 49.577 43.4763 49.6659 42.9069C49.7638 42.3376 49.8127 41.6837 49.8127 40.9453ZM53.1756 40.3448C53.1756 40.9409 53.0955 41.5236 52.9354 42.0929C52.7752 42.6623 52.5484 43.2005 52.2548 43.7076C51.9701 44.2147 51.6276 44.6862 51.2273 45.1221C50.8269 45.5492 50.3821 45.9184 49.8928 46.2297C49.4124 46.5411 48.892 46.7813 48.3315 46.9503C47.7799 47.1283 47.2106 47.2172 46.6234 47.2172C45.7071 47.2172 44.8753 47.0571 44.128 46.7368C43.3807 46.4166 42.7446 45.9762 42.2197 45.4157C41.6948 44.8552 41.2856 44.188 40.992 43.414C40.7073 42.6401 40.565 41.7994 40.565 40.8919C40.565 40.0112 40.7251 39.1571 41.0454 38.3298C41.3746 37.5024 41.8283 36.7685 42.4065 36.1279C42.9937 35.4874 43.6876 34.9759 44.4883 34.5933C45.2978 34.2019 46.183 34.0062 47.1438 34.0062C48.0513 34.0062 48.8742 34.1663 49.6126 34.4866C50.3599 34.8068 50.996 35.2516 51.5208 35.821C52.0546 36.3815 52.4638 37.0487 52.7485 37.8227C53.0332 38.5967 53.1756 39.4374 53.1756 40.3448ZM54.6968 46.8169V45.8427C55.284 45.6915 55.7244 45.5581 56.0179 45.4424C56.3115 45.3268 56.4583 45.1889 56.4583 45.0287V29.9227C56.4583 29.5135 56.4361 29.1977 56.3916 28.9753C56.356 28.7529 56.2759 28.5883 56.1514 28.4815C56.0268 28.3659 55.8489 28.2903 55.6176 28.2547C55.3863 28.2191 55.0794 28.179 54.6968 28.1346V27.2004C55.5598 27.0759 56.3516 26.9336 57.0722 26.7734C57.8017 26.6133 58.4689 26.3998 59.0738 26.1329L59.661 26.68V39.6909L63.1706 36.555C63.4642 36.2881 63.651 36.079 63.7311 35.9278C63.82 35.7676 63.8334 35.6475 63.7711 35.5675C63.7088 35.4874 63.5887 35.4385 63.4108 35.4207C63.2329 35.394 63.0283 35.3806 62.797 35.3806V34.4065H68.762V35.3806C68.3616 35.4251 67.9657 35.5185 67.5743 35.6609C67.1918 35.8032 66.8092 36.0167 66.4267 36.3014L62.3699 39.3707L67.1873 44.8286C67.3119 44.9709 67.432 45.0866 67.5476 45.1755C67.6722 45.2556 67.81 45.3179 67.9613 45.3623C68.1125 45.3979 68.2816 45.4202 68.4684 45.4291C68.6641 45.4291 68.891 45.4202 69.149 45.4024L69.229 46.3765C68.971 46.4388 68.6774 46.5055 68.3483 46.5767C68.0191 46.639 67.6988 46.7012 67.3875 46.7635C67.085 46.8169 66.8092 46.8614 66.5601 46.897C66.3199 46.9325 66.1553 46.9503 66.0664 46.9503C65.6927 46.9503 65.3769 46.897 65.1189 46.7902C64.8609 46.6834 64.6341 46.5011 64.4383 46.2431L59.661 39.9178V45.0287C59.661 45.0999 59.6743 45.1622 59.701 45.2156C59.7366 45.2689 59.8033 45.3268 59.9012 45.389C59.9991 45.4424 60.1458 45.5047 60.3416 45.5759C60.5373 45.647 60.7997 45.736 61.1289 45.8427V46.8169H54.6968ZM88.8588 41.786C88.8588 42.1863 88.7965 42.5956 88.672 43.0137C88.5563 43.4318 88.3784 43.8455 88.1382 44.2547C87.898 44.6551 87.5955 45.0376 87.2308 45.4024C86.866 45.7582 86.4345 46.0696 85.9364 46.3365C85.4471 46.6034 84.891 46.8169 84.2683 46.977C83.6544 47.1372 82.9694 47.2172 82.2132 47.2172C81.893 47.2172 81.5238 47.1861 81.1056 47.1238C80.6964 47.0615 80.2738 46.9726 79.8379 46.8569C79.4109 46.7502 78.9883 46.6167 78.5702 46.4566C78.1609 46.2965 77.8006 46.1141 77.4893 45.9095C77.4448 45.8917 77.4092 45.8072 77.3825 45.6559C77.3558 45.4958 77.3336 45.3001 77.3158 45.0688C77.3069 44.8286 77.3024 44.5617 77.3024 44.2681C77.3113 43.9656 77.3247 43.6631 77.3425 43.3607C77.3692 43.0582 77.4003 42.7602 77.4359 42.4666C77.4804 42.173 77.5338 41.915 77.596 41.6926L78.5435 41.7593C78.7481 42.2842 78.9972 42.7646 79.2908 43.2005C79.5844 43.6365 79.9135 44.0101 80.2783 44.3215C80.643 44.6328 81.0345 44.8775 81.4526 45.0554C81.8707 45.2244 82.3066 45.309 82.7604 45.309C83.1607 45.309 83.5477 45.2511 83.9213 45.1355C84.295 45.0198 84.6241 44.8552 84.9088 44.6417C85.1935 44.4193 85.4204 44.148 85.5894 43.8277C85.7673 43.4986 85.8563 43.1205 85.8563 42.6934C85.8563 42.1508 85.7362 41.6837 85.496 41.2923C85.2558 40.8919 84.9355 40.5405 84.5352 40.238C84.1437 39.9267 83.6945 39.6464 83.1874 39.3973C82.6892 39.1482 82.1732 38.9036 81.6394 38.6634C81.1145 38.4143 80.5985 38.1563 80.0915 37.8894C79.5933 37.6136 79.144 37.2978 78.7437 36.9419C78.3522 36.5772 78.0364 36.1591 77.7962 35.6876C77.556 35.2161 77.4359 34.6556 77.4359 34.0062C77.4359 33.588 77.5515 33.1254 77.7829 32.6183C78.0231 32.1023 78.3878 31.6219 78.8771 31.1771C79.3753 30.7323 80.0114 30.3587 80.7854 30.0562C81.5594 29.7537 82.4846 29.6025 83.561 29.6025C84.0414 29.6025 84.5129 29.6336 84.9755 29.6959C85.4382 29.7581 85.8696 29.8427 86.27 29.9494C86.6703 30.0562 87.0217 30.1852 87.3242 30.3364C87.6356 30.4876 87.8713 30.6522 88.0314 30.8302C88.0759 30.8657 88.0848 30.9458 88.0581 31.0704C88.0403 31.1949 88.0003 31.3417 87.938 31.5107C87.8847 31.6798 87.809 31.8621 87.7112 32.0579C87.6222 32.2536 87.5288 32.4404 87.4309 32.6183C87.3331 32.7963 87.2352 32.9564 87.1374 33.0987C87.0395 33.2411 86.955 33.3434 86.8838 33.4057L86.0031 33.3256C85.8074 32.9075 85.5805 32.5605 85.3225 32.2847C85.0734 32 84.8065 31.7732 84.5218 31.6041C84.246 31.4351 83.9658 31.315 83.6811 31.2438C83.3964 31.1727 83.1296 31.1371 82.8805 31.1371C82.4356 31.1371 82.0531 31.1949 81.7328 31.3106C81.4215 31.4262 81.1635 31.5819 80.9588 31.7776C80.7542 31.9733 80.603 32.1957 80.5051 32.4448C80.4162 32.685 80.3717 32.9297 80.3717 33.1788C80.3717 33.5969 80.4918 33.9706 80.732 34.2997C80.9811 34.62 81.3014 34.9225 81.6928 35.2072C82.0931 35.4829 82.5468 35.7454 83.0539 35.9945C83.561 36.2436 84.0815 36.5016 84.6152 36.7685C85.149 37.0354 85.6695 37.3245 86.1766 37.6359C86.6836 37.9472 87.1329 38.2986 87.5244 38.6901C87.9247 39.0815 88.245 39.5308 88.4852 40.0379C88.7343 40.545 88.8588 41.1277 88.8588 41.786ZM98.8005 46.8169V45.8427C99.441 45.6737 99.8947 45.5269 100.162 45.4024C100.429 45.2778 100.562 45.1533 100.562 45.0287V39.1705C100.562 38.6278 100.531 38.183 100.469 37.836C100.415 37.4802 100.326 37.1999 100.202 36.9953C100.086 36.7907 99.9303 36.6484 99.7346 36.5683C99.5478 36.4793 99.3209 36.4349 99.054 36.4349C98.538 36.4349 98.0043 36.595 97.4527 36.9153C96.91 37.2355 96.2784 37.6937 95.5578 38.2897V45.0287C95.5578 45.1622 95.709 45.3001 96.0115 45.4424C96.3139 45.5848 96.7543 45.7182 97.3326 45.8427V46.8169H90.5936V45.8427C91.1808 45.6915 91.6211 45.5581 91.9147 45.4424C92.2083 45.3179 92.3551 45.18 92.3551 45.0287V29.896C92.3551 29.5224 92.3417 29.2333 92.315 29.0286C92.2972 28.8151 92.2305 28.6506 92.1149 28.5349C92.0081 28.4192 91.8346 28.3392 91.5944 28.2947C91.3542 28.2413 91.0206 28.1879 90.5936 28.1346V27.2004C91.0918 27.1293 91.5366 27.0581 91.928 26.9869C92.3284 26.9158 92.6976 26.8401 93.0356 26.7601C93.3737 26.6711 93.6984 26.5777 94.0098 26.4798C94.3212 26.382 94.6414 26.2663 94.9706 26.1329L95.5578 26.68V36.3815C96.5808 35.5452 97.5372 34.9403 98.4268 34.5666C99.3254 34.193 100.122 34.0062 100.815 34.0062C101.198 34.0062 101.567 34.0684 101.923 34.193C102.279 34.3086 102.59 34.5044 102.857 34.7801C103.133 35.047 103.351 35.3984 103.511 35.8344C103.68 36.2703 103.765 36.7996 103.765 37.4224V45.0287C103.765 45.091 103.791 45.1533 103.845 45.2156C103.898 45.2689 103.991 45.3268 104.125 45.389C104.258 45.4513 104.441 45.5225 104.672 45.6025C104.903 45.6737 105.192 45.7538 105.539 45.8427V46.8169H98.8005ZM112.652 35.6075C112.234 35.6075 111.874 35.6876 111.571 35.8477C111.269 36.0078 111.011 36.2391 110.797 36.5416C110.593 36.8441 110.428 37.2088 110.303 37.6359C110.188 38.0629 110.103 38.5433 110.05 39.0771H114.494C114.698 39.0771 114.832 39.0459 114.894 38.9837C114.965 38.9125 115.001 38.7835 115.001 38.5967C115.001 38.3298 114.965 38.0273 114.894 37.6892C114.823 37.3423 114.694 37.0176 114.507 36.7151C114.329 36.4037 114.089 36.1413 113.786 35.9278C113.484 35.7143 113.106 35.6075 112.652 35.6075ZM118.19 39.4774C118.11 39.5664 117.994 39.6642 117.843 39.771C117.692 39.8777 117.527 39.9801 117.349 40.0779C117.171 40.1758 116.989 40.2692 116.802 40.3581C116.624 40.4471 116.464 40.5183 116.322 40.5717H110.01C110.028 41.2122 110.112 41.8038 110.263 42.3465C110.424 42.8803 110.646 43.3429 110.931 43.7343C111.215 44.1257 111.558 44.4327 111.958 44.6551C112.367 44.8686 112.834 44.9754 113.359 44.9754C113.635 44.9754 113.902 44.962 114.16 44.9353C114.427 44.8997 114.712 44.8241 115.014 44.7085C115.325 44.5928 115.672 44.4327 116.055 44.2281C116.437 44.0145 116.891 43.7254 117.416 43.3607C117.469 43.3874 117.532 43.4407 117.603 43.5208C117.683 43.6009 117.754 43.6898 117.816 43.7877C117.888 43.8767 117.95 43.9612 118.003 44.0412C118.057 44.1213 118.092 44.1791 118.11 44.2147C117.496 44.8375 116.945 45.3445 116.455 45.736C115.966 46.1274 115.494 46.4344 115.041 46.6568C114.596 46.8703 114.151 47.0171 113.706 47.0971C113.261 47.1772 112.772 47.2172 112.238 47.2172C111.482 47.2172 110.766 47.066 110.09 46.7635C109.423 46.461 108.836 46.034 108.328 45.4824C107.83 44.9309 107.434 44.2681 107.141 43.4941C106.847 42.7201 106.7 41.8616 106.7 40.9186C106.7 39.7087 106.927 38.6323 107.381 37.6892C107.844 36.7373 108.533 35.9278 109.449 35.2605C109.681 35.0915 109.939 34.9314 110.223 34.7801C110.517 34.62 110.819 34.4866 111.131 34.3798C111.451 34.2641 111.78 34.1752 112.118 34.1129C112.456 34.0417 112.794 34.0062 113.132 34.0062C114.004 34.0062 114.756 34.1574 115.388 34.4599C116.028 34.7623 116.553 35.1671 116.962 35.6742C117.38 36.1724 117.687 36.7507 117.883 37.409C118.088 38.0673 118.19 38.7568 118.19 39.4774ZM119.778 46.8169V45.8427C120.161 45.7805 120.472 45.7182 120.712 45.6559C120.961 45.5848 121.157 45.518 121.299 45.4558C121.442 45.3846 121.54 45.3134 121.593 45.2422C121.646 45.1711 121.673 45.0999 121.673 45.0287V29.9227C121.673 29.5224 121.651 29.211 121.606 28.9886C121.562 28.7662 121.477 28.6016 121.353 28.4949C121.228 28.3792 121.05 28.3036 120.819 28.268C120.588 28.2235 120.285 28.179 119.912 28.1346V27.2004C120.356 27.1382 120.77 27.0759 121.153 27.0136C121.535 26.9425 121.9 26.8668 122.247 26.7868C122.594 26.7067 122.936 26.6133 123.274 26.5065C123.612 26.3998 123.955 26.2752 124.302 26.1329L124.876 26.68V45.0287C124.876 45.0999 124.907 45.1711 124.969 45.2422C125.031 45.3045 125.134 45.3712 125.276 45.4424C125.427 45.5136 125.623 45.5848 125.863 45.6559C126.112 45.7182 126.419 45.7805 126.784 45.8427V46.8169H119.778ZM139.181 27.414C139.181 27.5118 139.137 27.6319 139.048 27.7743C138.967 27.9077 138.861 28.0545 138.727 28.2146C138.594 28.3659 138.443 28.5216 138.274 28.6817C138.105 28.8418 137.94 28.9886 137.78 29.1221C137.62 29.2555 137.468 29.3756 137.326 29.4824C137.184 29.5802 137.068 29.6514 136.979 29.6959C136.552 29.1621 136.138 28.7796 135.738 28.5482C135.338 28.3169 134.995 28.2013 134.711 28.2013C134.479 28.2013 134.257 28.2725 134.043 28.4148C133.839 28.5571 133.656 28.8151 133.496 29.1888C133.336 29.5624 133.207 30.0784 133.109 30.7367C133.011 31.3951 132.962 32.2358 132.962 33.2589V34.4065H136.285L136.779 34.8869C136.699 35.0381 136.597 35.1983 136.472 35.3673C136.356 35.5274 136.236 35.6876 136.112 35.8477C135.996 35.9989 135.88 36.1368 135.765 36.2614C135.649 36.3859 135.551 36.4793 135.471 36.5416C135.267 36.4349 134.973 36.3325 134.59 36.2347C134.217 36.1279 133.674 36.0746 132.962 36.0746V45.0554C132.962 45.1088 133.002 45.1622 133.083 45.2156C133.172 45.2689 133.318 45.3268 133.523 45.389C133.736 45.4424 134.012 45.5091 134.35 45.5892C134.697 45.6604 135.133 45.7449 135.658 45.8427V46.8169H127.998V45.8427C128.612 45.736 129.057 45.607 129.333 45.4558C129.617 45.2956 129.76 45.1622 129.76 45.0554V36.0746H128.172L127.798 35.5942L128.839 34.4065H129.76V33.9928C129.76 33.2633 129.809 32.6005 129.907 32.0045C130.013 31.4084 130.16 30.8702 130.347 30.3898C130.543 29.9005 130.778 29.4601 131.054 29.0687C131.339 28.6683 131.659 28.2991 132.015 27.9611C132.344 27.6408 132.682 27.3695 133.029 27.1471C133.385 26.9158 133.732 26.7245 134.07 26.5733C134.417 26.422 134.751 26.3108 135.071 26.2396C135.4 26.1685 135.698 26.1329 135.965 26.1329C136.365 26.1329 136.757 26.1863 137.139 26.293C137.531 26.3998 137.873 26.5243 138.167 26.6667C138.469 26.8001 138.714 26.938 138.901 27.0803C139.088 27.2227 139.181 27.3339 139.181 27.414Z" fill="#453D83"/>
<path fill-rule="evenodd" clip-rule="evenodd" d="M106.304 5.91369C104.189 6.14527 101.684 6.62433 98.7016 7.36737C93.8686 8.57146 85.1832 12.0116 79.6002 14.9331C78.7016 15.4033 76.3847 17.0067 75.9926 17.4297C75.7978 17.6397 75.5554 17.9502 75.4538 18.1196C75.3522 18.2891 75.2513 18.4277 75.2296 18.4277C75.2079 18.4277 74.8022 18.1691 74.3281 17.8531C72.3717 16.549 67.4957 14.4512 62.5431 12.7829C58.0363 11.2646 55.8743 10.6062 54.0576 10.1984C53.2556 10.0183 52.4363 9.81226 52.2369 9.74045C52.0376 9.66861 51.8745 9.62867 51.8745 9.65163C51.8745 9.67463 51.6014 9.61297 51.2676 9.51463C50.9338 9.41632 50.5457 9.30326 50.4051 9.26344C49.0785 8.88758 42.9721 7.75756 40.786 7.48337C38.2955 7.17102 36.2559 7.41473 32.262 8.50188C30.9268 8.86533 28.5446 9.46653 26.968 9.83787C24.1463 10.5026 21.6403 11.2649 21.7037 11.4394C21.7215 11.4883 21.8334 11.5187 21.9522 11.5068C22.0711 11.4949 22.9445 11.445 23.8932 11.3958C24.8419 11.3466 25.7906 11.2838 26.0014 11.2563C26.4259 11.2008 24.7689 11.8645 22.2961 12.7405C21.4528 13.0392 20.6766 13.3336 20.5712 13.3949C20.4658 13.4561 20.1902 13.5505 19.9587 13.6046C19.5051 13.7106 18.7825 14.039 18.7825 14.1391C18.7825 14.1728 19.2568 14.1886 19.8366 14.1743L20.8906 14.1481L20.3796 14.3735C20.0985 14.4974 19.823 14.599 19.7673 14.5992C19.7116 14.5995 19.5966 14.6392 19.5117 14.6874C19.4269 14.7356 19.1706 14.8794 18.9422 15.0069C18.4678 15.2717 18.3841 15.5789 18.7863 15.5789C19.0418 15.5789 19.0415 15.5829 18.7634 15.8449C18.4187 16.1698 18.5076 16.2532 19.0634 16.1266L19.4852 16.0306L19.0389 16.2721C18.285 16.6802 17.2493 17.4372 17.2493 17.5801C17.2493 17.6813 17.3949 17.7155 17.8257 17.7155H18.4021L17.8276 18.2069C17.2181 18.7283 16.8659 19.1431 16.8659 19.3394C16.8659 19.4051 16.6072 19.6358 16.291 19.852C15.9748 20.0683 15.716 20.2819 15.716 20.3268C15.716 20.3717 15.9029 20.3841 16.1313 20.3544C16.4747 20.3096 16.5123 20.3193 16.349 20.41C16.1179 20.5383 15.716 20.93 15.716 21.0269C15.716 21.0637 15.9029 21.0695 16.1313 21.0397L16.5465 20.9855L16.1015 21.2687C15.7356 21.5015 15.6902 21.5667 15.846 21.6353C15.9502 21.6812 16.1144 21.7194 16.2108 21.7201C16.3522 21.7212 16.3553 21.7474 16.2271 21.855C16.1396 21.9285 15.9693 21.9886 15.8486 21.9886C15.7278 21.9886 15.2808 22.1099 14.855 22.2581C14.3198 22.4444 14.0576 22.5924 14.0053 22.7376C13.9502 22.8907 13.8095 22.9634 13.4866 23.0056C12.9788 23.072 12.676 23.326 12.1879 24.0949C12.009 24.3768 11.6864 24.7472 11.4711 24.9181C11.2557 25.089 10.9749 25.3936 10.847 25.595C10.7192 25.7964 10.4895 26.0388 10.3368 26.1337C9.95249 26.3723 9.68158 26.8562 9.77191 27.1427C9.83835 27.3534 9.78963 27.4003 9.3639 27.5348C8.53809 27.7959 8.06539 28.5027 8.46633 28.877C8.62817 29.0281 8.82246 29.043 10.4878 29.0323C12.7034 29.0179 23.117 28.7117 33.6036 28.3525C38.4137 28.1878 44.3443 27.9863 49.383 27.8164C55.4042 27.6134 60.4767 27.4337 64.7291 27.2727L68.576 27.1271L69.2648 27.4856C71.4305 28.6125 74.9097 29.1557 77.6837 28.7999C77.7891 28.7863 78.134 28.7465 78.4503 28.7113C79.2793 28.619 80.6107 28.2412 81.1579 27.9431L81.6295 27.686L83.7132 27.6854C84.8593 27.685 88.413 27.7439 91.6104 27.8161C98.6948 27.9762 108.04 28.173 117.164 28.3543C120.924 28.429 125.667 28.5316 127.705 28.5822C129.743 28.6327 133.724 28.6983 136.553 28.7278C142.214 28.7869 141.813 28.8275 141.569 28.2202C141.49 28.0246 141.042 27.6102 140.366 27.1074C139.774 26.6667 139.155 26.206 138.991 26.0836C138.827 25.9612 138.629 25.715 138.551 25.5366C138.384 25.1551 137.249 23.858 137.083 23.858C137.02 23.858 136.968 23.7947 136.968 23.7172C136.968 23.5314 135.853 22.7564 134.935 22.3042C134.533 22.1061 133.954 21.7943 133.648 21.6113C133.104 21.2853 133.097 21.2749 133.326 21.0988C133.455 21 133.622 20.9241 133.699 20.9302C134.465 20.9917 134.459 20.7682 133.678 20.2211C132.981 19.7328 131.932 19.1398 131.765 19.1398C131.702 19.1398 131.539 19.0805 131.403 19.0079C131.173 18.8854 131.187 18.8799 131.602 18.9314C131.848 18.9619 132.148 19.022 132.268 19.0649C132.581 19.1763 133.518 19.0561 133.518 18.9046C133.518 18.7162 132.767 18.2772 132.005 18.0211C131.63 17.8948 131.342 17.7776 131.367 17.7607C131.391 17.7439 131.684 17.7736 132.017 17.8268C132.351 17.8799 132.665 17.8948 132.715 17.8597C132.914 17.7215 132.478 17.4815 130.852 16.8333L129.156 16.1576L130.571 16.1324C131.349 16.1186 131.985 16.0832 131.985 16.0538C131.985 16.0245 131.867 15.9292 131.723 15.8422C131.56 15.7434 131.512 15.6621 131.597 15.6258C131.758 15.5563 131.641 15.4699 130.842 15.0653L130.274 14.7777H130.938C131.624 14.7777 131.818 14.6594 131.314 14.5484C131.156 14.5135 130.854 14.3968 130.644 14.2889C130.433 14.181 129.513 13.8207 128.599 13.4881C127.686 13.1556 126.105 12.5537 125.086 12.1507C124.067 11.7476 122.605 11.1755 121.837 10.8793C120.471 10.3523 120.45 10.3396 120.879 10.2943C122.023 10.1735 124.146 10.1086 125.533 10.1522C126.376 10.1787 127.086 10.1916 127.11 10.1809C127.242 10.1225 125.946 9.65905 124.923 9.39881C124.275 9.23376 123.457 9.01094 123.105 8.90366C120.44 8.08991 115.137 6.83157 112.948 6.49349C112.702 6.45551 111.811 6.29862 110.967 6.14488C109.162 5.81576 107.81 5.74873 106.304 5.91369ZM110.392 6.27527C115.833 7.18588 117.741 7.62014 124.064 9.38762C126.445 10.0533 126.476 10.0682 125.341 10.0069C124.357 9.95366 120.264 10.0848 117.995 10.2423C113.991 10.5201 106.829 11.6214 101.449 12.7864C94.815 14.2227 90.4641 15.4047 87.363 16.6129C85.7075 17.2579 82.1654 18.7898 81.3251 19.2241C80.9737 19.4057 79.9021 19.9429 78.9436 20.4177C77.1754 21.2939 76.7126 21.5666 75.8745 22.2264L75.4068 22.5945L75.3512 22.1358C75.3205 21.8834 75.3162 21.006 75.3415 20.1859C75.4068 18.0646 75.4438 18.0056 77.6704 16.4692C79.6864 15.078 82.0021 13.8856 86.4358 11.9556C89.5681 10.592 94.0591 8.93212 97.0406 8.03596C100.107 7.11419 104.648 6.21835 106.943 6.08221C107.399 6.05512 107.801 6.01503 107.834 5.99316C107.933 5.92927 109.083 6.0561 110.392 6.27527ZM40.8291 7.79174C46.2861 8.69336 48.696 9.19058 53.6632 10.4398C60.5328 12.1673 70.7712 15.9789 74.261 18.1081L75.2041 18.6834L75.0857 19.468C75.0207 19.8996 74.9605 20.7233 74.952 21.2985C74.9435 21.8737 74.9159 22.3444 74.8906 22.3445C74.8653 22.3446 74.3765 22.0372 73.8046 21.6614C70.2248 19.3096 64.9176 17.2769 56.7297 15.1215C55.9918 14.9273 55.128 14.6931 54.8101 14.6012C53.9082 14.3404 49.3507 13.4105 47.0193 13.0116C35.0179 10.9583 31.77 10.7062 23.3182 11.1718L22.5516 11.214L23.2544 10.9862C23.6409 10.8609 25.3945 10.4182 27.1513 10.0024C28.9081 9.58659 31.266 8.99298 32.3912 8.68327C34.0918 8.21516 35.9302 7.81551 37.245 7.62809C37.7838 7.55129 39.9809 7.65159 40.8291 7.79174ZM120.872 10.7556C122.691 11.5774 126.69 13.2043 128.406 13.8203C130.294 14.4979 130.278 14.5111 127.96 14.1923C125.518 13.8563 121.51 13.6182 118.186 13.6117C114.842 13.605 107.949 13.9122 106.943 14.1126C106.837 14.1336 106.09 14.2143 105.282 14.2921C103.318 14.4808 99.5263 15.0079 98.5738 15.2245C98.1522 15.3203 96.7755 15.5804 95.5145 15.8024C92.721 16.2941 89.4355 17.0926 87.0746 17.8535C81.8212 19.5467 79.1053 20.5847 77.4281 21.5404C76.5446 22.0438 76.5247 22.0507 77.1726 21.6285C78.5694 20.7183 84.9364 17.7953 88.1607 16.584C90.0335 15.8804 94.5228 14.6042 97.4239 13.9507C105.269 12.1835 111.936 11.0329 117.1 10.5547C120.06 10.2807 119.79 10.2664 120.872 10.7556ZM33.0925 11.3133C35.6947 11.5047 37.5585 11.7239 41.078 12.2526C47.132 13.1621 52.2721 14.1473 55.6149 15.0389C62.9473 16.9947 66.4184 18.1577 70.0396 19.8716C71.8036 20.7066 74.5969 22.2367 74.6101 22.3752C74.614 22.4165 74.3441 22.2933 74.0103 22.1015C72.2071 21.0652 67.8564 19.4041 63.7244 18.1744C61.5153 17.5169 57.8059 16.5806 55.9371 16.2087C52.6689 15.5584 47.0036 14.7661 42.8668 14.381C42.0235 14.3025 40.7874 14.1797 40.1198 14.1081C37.3786 13.8142 34.5701 13.7095 29.4347 13.7096C26.6328 13.7097 23.401 13.7528 22.2527 13.8055C21.1046 13.8582 20.1409 13.8845 20.1114 13.8639C20.0818 13.8433 20.8342 13.5396 21.7833 13.1889C22.7323 12.8383 23.9072 12.3736 24.394 12.1562C25.707 11.5698 26.5616 11.2896 27.2778 11.2107C28.0332 11.1275 31.3668 11.1864 33.0925 11.3133ZM35.5201 13.9836C37.2824 14.0698 40.4664 14.3401 44.4639 14.7429C47.4853 15.0473 52.5945 15.7839 55.547 16.3407C58.7374 16.9424 64.019 18.3608 67.4336 19.5329C67.9449 19.7084 68.3924 19.852 68.4279 19.852C68.4634 19.852 69.2141 20.1334 70.096 20.4774C71.7874 21.137 73.3106 21.822 74.1832 22.3153C74.4715 22.4783 74.7734 22.6117 74.854 22.6117C74.9346 22.6117 75.0005 22.6919 75.0005 22.7898C75.0005 22.9364 74.916 22.9676 74.5214 22.9665C74.1759 22.9655 74.0947 22.942 74.2302 22.8823C74.3336 22.8367 74.3911 22.7866 74.358 22.7709C74.3249 22.7552 73.5791 22.4945 72.7007 22.1917C70.8023 21.5371 68.1979 20.817 65.6628 20.2458C64.6497 20.0176 63.7346 19.8095 63.6291 19.7835C63.5237 19.7575 63.3413 19.723 63.2238 19.7067C62.8958 19.6614 61.0391 19.2756 59.4767 18.928C56.7049 18.3115 51.0586 17.4566 48.1692 17.216C47.853 17.1897 47.1055 17.1134 46.5082 17.0466C45.9109 16.9797 44.7322 16.8603 43.8889 16.7813C43.0457 16.7023 42.1832 16.6202 41.9724 16.5991C41.7616 16.5779 40.1088 16.5135 38.2996 16.456C34.424 16.3329 29.9013 16.4382 26.2569 16.7367C25.6947 16.7827 24.8898 16.8419 24.4682 16.8683C23.7023 16.9163 21.4813 17.0966 19.1378 17.3011L17.8961 17.4094L18.1796 17.1965C18.4633 16.9835 19.9701 16.1731 20.5712 15.9103C21.0439 15.7036 23.0692 15.4775 25.1709 15.3969C26.1898 15.3578 28.1159 15.2813 29.4511 15.2268C34.0532 15.0392 41.0359 15.2109 45.2944 15.6165C47.3996 15.817 55.3174 16.9262 57.4638 17.3214C59.2573 17.6515 62.3908 18.3733 64.4478 18.9301C66.6693 19.5313 71.0358 21.1002 72.8924 21.9642C73.6653 22.3239 74.0966 22.4938 73.8506 22.3417C72.6578 21.604 68.1088 19.8009 65.354 18.9739C63.0016 18.2677 59.6576 17.4777 57.0491 17.0119C54.5919 16.5731 47.5405 15.5677 45.8055 15.4088C40.9708 14.966 37.0974 14.823 29.9622 14.8238C24.6927 14.8244 22.773 14.8993 19.9324 15.2157C19.5459 15.2587 19.2141 15.2838 19.1952 15.2714C19.1435 15.2378 20.8889 14.4331 21.1639 14.3637C21.2947 14.3307 21.5515 14.2315 21.7345 14.1432C22.1271 13.954 22.734 13.9347 29.1956 13.906C31.5849 13.8954 34.4309 13.9303 35.5201 13.9836ZM120.742 13.9775C123.719 14.0672 125.806 14.2144 127.897 14.4822C128.701 14.5852 129.206 14.7136 129.845 14.9768C130.319 15.1723 130.708 15.3424 130.708 15.3547C130.708 15.3834 129.509 15.3329 127.641 15.2255C124.626 15.052 117.53 15.018 114.8 15.1639C113.395 15.239 111.354 15.325 110.265 15.3552C102.818 15.561 95.3902 16.5722 87.4309 18.464C84.9409 19.0558 81.9028 20.022 79.728 20.9138C77.4445 21.8501 77.2987 21.9187 76.3927 22.4821L75.5755 22.9903L76.4817 22.3688C77.9003 21.3957 79.8024 20.5871 83.8828 19.2222C90.0231 17.1684 91.5806 16.7916 99.8515 15.359C101.186 15.128 104.178 14.7216 105.473 14.5957C105.965 14.5479 107.144 14.4324 108.093 14.3389C109.702 14.1805 112.702 14.0367 117.164 13.9041C117.48 13.8947 119.09 13.9277 120.742 13.9775ZM27.3429 15.137C26.8862 15.1728 26.0237 15.2069 25.4264 15.2129C24.1486 15.2257 21.0067 15.5274 20.1971 15.7149C19.3664 15.9074 19.1737 15.89 19.5135 15.6532C19.8325 15.431 21.3626 15.2637 23.9571 15.1675C24.8004 15.1363 25.5143 15.0958 25.5435 15.0777C25.5728 15.0596 26.1766 15.0509 26.8851 15.0584C28.1439 15.0716 28.1544 15.0734 27.3429 15.137ZM127.258 15.4448C127.433 15.4589 128.247 15.4994 129.066 15.5348C130.182 15.5831 130.644 15.6402 130.913 15.7635L131.273 15.9279L130.319 15.8847C129.795 15.8609 128.59 15.8028 127.641 15.7554C125.154 15.6312 118.729 15.5833 116.27 15.6705C115.11 15.7116 112.35 15.7884 110.137 15.8411C107.923 15.8938 105.681 15.9753 105.154 16.0222C104.627 16.0691 103.879 16.1286 103.493 16.1545C103.106 16.1803 102.445 16.2272 102.024 16.2587C101.602 16.2903 101.286 16.2946 101.321 16.2684C101.42 16.1941 106.226 15.7697 107.581 15.7155C108.249 15.6888 109.686 15.6282 110.776 15.5809C111.865 15.5336 113.561 15.4688 114.545 15.4369C115.529 15.405 116.362 15.3596 116.397 15.336C116.461 15.2935 126.645 15.3955 127.258 15.4448ZM128.454 16.1724C129.353 16.4874 131.466 17.3669 131.549 17.4608C131.651 17.5761 131.018 17.5533 129.877 17.4007C128.247 17.1828 126.475 17.0261 121.7 16.6776C117.45 16.3674 117.025 16.3519 113.139 16.365C109.362 16.3777 104.297 16.5043 103.237 16.6125C102.991 16.6375 102.416 16.6982 101.96 16.7472C101.503 16.7962 100.899 16.8567 100.618 16.8816C98.4273 17.0762 96.0155 17.4176 91.8021 18.1294C88.0538 18.7627 83.7782 19.8645 81.2271 20.8546C80.3139 21.209 78.9887 21.7234 78.2822 21.9978C77.5757 22.2721 76.7783 22.6249 76.5102 22.7817C75.776 23.2112 75.9246 22.9568 76.6868 22.4793C78.4035 21.4039 83.5395 19.6217 87.7135 18.6532C90.852 17.9249 95.1894 17.0921 96.584 16.95C97.327 16.8743 98.4812 16.7552 99.1487 16.6853C99.8163 16.6154 101.254 16.5179 102.343 16.4687C103.432 16.4194 104.759 16.3384 105.291 16.2885C105.823 16.2387 107.548 16.177 109.124 16.1514C114.059 16.0714 116.97 16.0034 117.028 15.9667C117.059 15.9473 119.495 15.9339 122.441 15.937L127.799 15.9425L128.454 16.1724ZM39.6087 16.6933C41.4771 16.7446 44.1049 16.9302 45.9332 17.1399C46.5657 17.2124 47.8593 17.3554 48.808 17.4576C49.7567 17.5598 51.7978 17.8198 53.3438 18.0354C54.8898 18.251 56.2074 18.4274 56.2718 18.4275C56.3363 18.4276 56.3567 18.4501 56.3173 18.4776C56.2779 18.505 55.334 18.4045 54.2198 18.2542C53.1056 18.104 51.7914 17.9428 51.2995 17.8963C50.8076 17.8497 49.6577 17.7334 48.7441 17.6378C46.2107 17.3728 45.5446 17.3404 42.1641 17.3177C39.0453 17.2968 37.0335 17.3519 34.2424 17.5346C33.4343 17.5874 32.3419 17.6508 31.8148 17.6753C31.2878 17.6999 30.4254 17.7577 29.8983 17.8039C29.3713 17.85 28.5951 17.9123 28.1734 17.9423C27.3284 18.0024 25.5395 18.1758 23.5738 18.3883C22.8711 18.4643 21.7211 18.5881 21.0184 18.6634C20.3157 18.7387 19.4245 18.8528 19.038 18.9168C18.6515 18.9809 18.1134 19.0599 17.8422 19.0924L17.349 19.1516L17.7724 18.7409C18.2484 18.279 19.4646 17.4484 19.6648 17.4484C19.7369 17.4484 20.4159 17.3915 21.1737 17.3219C21.9316 17.2524 23.1841 17.1499 23.9571 17.0941C24.7301 17.0383 26.3687 16.9204 27.5985 16.832C28.8283 16.7435 30.9827 16.6636 32.3862 16.6543C33.7897 16.645 34.9683 16.6162 35.0054 16.5904C35.0425 16.5645 35.7053 16.5665 36.4783 16.5947C37.2514 16.6229 38.66 16.6672 39.6087 16.6933ZM118.186 16.6986C118.882 16.7388 121.652 16.9269 123.872 17.0847C124.504 17.1297 125.539 17.1893 126.172 17.2172C127.636 17.2819 130.346 17.5805 130.714 17.7179C130.869 17.7757 131.434 18.044 131.97 18.3141L132.943 18.8051L132.305 18.7558C131.953 18.7287 131.235 18.648 130.708 18.5763C127.209 18.1007 123.557 17.743 121.444 17.6689C120.601 17.6393 119.344 17.5776 118.652 17.5317C117.02 17.4238 108.806 17.4264 106.495 17.5356C105.512 17.5821 103.988 17.6453 103.11 17.6762C98.8436 17.8259 92.7208 18.5336 88.9273 19.3155C88.2597 19.4531 87.1385 19.6756 86.4358 19.81C84.4161 20.1963 83.1142 20.5407 81.3265 21.1619C79.2443 21.8853 79.3765 21.7616 81.5167 20.9839C84.8458 19.7742 89.4443 18.6931 94.4852 17.935C95.0474 17.8505 95.7948 17.7285 96.1462 17.6639C97.1199 17.485 98.7214 17.2749 99.7876 17.1861C100.315 17.1422 101.666 17.023 102.79 16.9212C105.918 16.6379 114.893 16.5081 118.186 16.6986ZM38.4588 17.6267C36.3542 17.8388 32.3226 18.153 30.9843 18.2093C30.3519 18.2359 29.1157 18.3189 28.2373 18.3937C23.3823 18.8071 21.7964 19.0159 18.5892 19.6639C17.4306 19.898 16.4826 20.0788 16.4826 20.0657C16.4826 20.0527 16.74 19.8951 17.0546 19.7155C17.684 19.3561 17.8786 19.3161 20.5712 18.9928C26.6468 18.2633 29.4113 18.0278 35.6479 17.7081C36.7371 17.6523 37.6434 17.5972 37.6619 17.5857C37.6803 17.5742 38.0253 17.5628 38.4285 17.5604L39.1615 17.5559L38.4588 17.6267ZM46.7637 17.7019C47.2205 17.7524 48.1404 17.839 48.808 17.8944C50.0495 17.9974 53.4476 18.3764 54.3659 18.5142C54.647 18.5564 55.3657 18.6598 55.963 18.7441C57.6546 18.9826 61.9669 19.7128 64.0125 20.107C66.7383 20.6323 71.8793 21.9242 72.2534 22.1778C72.3236 22.2254 71.9786 22.1572 71.4868 22.0261C67.9695 21.0892 64.842 20.5426 57.4963 19.581C56.3368 19.4292 54.9569 19.2468 54.4298 19.1756C49.0246 18.446 45.7071 18.2703 41.1419 18.4718C39.4202 18.5478 36.6317 18.6649 34.9452 18.7319C31.2759 18.8779 28.9005 19.0173 27.0874 19.1933C26.3495 19.2649 25.1134 19.3846 24.3404 19.4594C20.8922 19.7928 19.7942 19.9512 18.2015 20.3449C17.3047 20.5665 16.5181 20.7356 16.4536 20.7207C16.3891 20.7057 16.5636 20.5661 16.8415 20.4106C17.7778 19.8863 21.9146 19.153 26.0014 18.7868C28.6829 18.5465 28.7646 18.5404 30.8125 18.4282C31.8205 18.373 33.7665 18.2257 35.1368 18.1009C38.6633 17.7798 39.8265 17.7302 42.8591 17.7719C44.3306 17.7921 45.4901 17.7776 45.4359 17.7398C45.3817 17.702 44.0915 17.6463 42.5688 17.6161L39.8004 17.5613L42.8668 17.5857C44.5533 17.5991 46.307 17.6514 46.7637 17.7019ZM45.776 17.7772C45.9003 17.7998 46.0728 17.7983 46.1593 17.7739C46.2458 17.7495 46.1441 17.731 45.9332 17.7328C45.7224 17.7347 45.6516 17.7546 45.776 17.7772ZM122.914 18.0155C125.321 18.1921 127.556 18.3879 128.942 18.5435C130.126 18.6765 130.497 18.8071 132.213 19.6954C132.935 20.0692 133.011 20.1311 132.688 20.0869C131.811 19.9668 129.1 19.7071 127.897 19.6278C127.44 19.5977 125.974 19.4762 124.639 19.358C121.471 19.0774 121.437 19.0748 118.825 18.917C117.595 18.8427 115.899 18.7322 115.056 18.6715C112.821 18.5107 104.589 18.5473 101.512 18.7317C100.177 18.8117 98.2799 18.9198 97.2961 18.9718C96.3123 19.0238 94.6737 19.1795 93.6547 19.3178C92.6357 19.4561 91.1984 19.6367 90.4605 19.7192C87.2073 20.0829 82.0783 21.1796 80.105 21.9335C79.0232 22.3468 77.894 22.7026 78.0839 22.5703C78.2227 22.4735 79.8923 21.8568 81.4528 21.3258C82.3664 21.015 83.775 20.6191 84.5832 20.4461C87.737 19.7709 92.3969 18.9612 94.4213 18.7368C95.1592 18.6549 96.1941 18.5324 96.7211 18.4646C98.292 18.2623 100.595 18.0884 103.173 17.9773C104.509 17.9198 105.63 17.8536 105.665 17.8302C105.7 17.8068 109.179 17.8083 113.395 17.8336C118.965 17.867 121.568 17.9168 122.914 18.0155ZM47.722 18.6954C50.4747 18.9066 54.3633 19.3795 61.3293 20.3503C63.5121 20.6545 64.1257 20.7496 67.015 21.2315C68.4842 21.4765 73.8997 22.6962 73.8065 22.7611C73.777 22.7817 72.5243 22.5413 71.0228 22.2268C69.5212 21.9123 67.6027 21.5472 66.7595 21.4154C65.9162 21.2835 64.7375 21.0997 64.1402 21.0068C62.8581 20.8074 59.494 20.4406 57.6879 20.3033C54.8882 20.0904 52.3435 20.0182 49.5107 20.0713C39.2835 20.2632 32.1143 20.4798 31.822 20.6056C31.7117 20.6531 28.2944 20.7383 24.5959 20.7857C22.8391 20.8082 20.7118 20.8723 19.8685 20.9283C19.0252 20.9842 18.134 21.0382 17.8881 21.0484C17.6421 21.0585 17.2972 21.0973 17.1215 21.1345C16.8147 21.1994 16.8173 21.1931 17.1854 20.9754C18.2022 20.3741 20.3041 19.9695 23.9571 19.6721C24.5895 19.6206 25.1932 19.5618 25.2987 19.5413C26.2373 19.3595 30.5486 19.105 35.9034 18.9153C38.0467 18.8394 40.2891 18.7441 40.8864 18.7036C42.4548 18.5973 46.3811 18.5925 47.722 18.6954ZM57.3339 18.6595C57.2915 18.6891 57.1812 18.6922 57.089 18.6665C56.9871 18.6381 57.0174 18.617 57.1662 18.6127C57.3009 18.6089 57.3763 18.6299 57.3339 18.6595ZM112.564 18.8707C113.794 18.9122 115.433 18.989 116.206 19.0414C116.979 19.0937 118.617 19.1978 119.847 19.2726C121.077 19.3474 122.744 19.4675 123.552 19.5393C126.168 19.7717 128.607 19.9411 129.339 19.9411C129.732 19.9411 130.087 19.9784 130.127 20.024C130.235 20.1451 126.54 20.0519 122.275 19.826C119.082 19.6569 117.697 19.6341 111.031 19.6413C106.85 19.6459 102.222 19.6968 100.746 19.7545C97.826 19.8687 92.9875 20.162 91.8659 20.2928C91.4794 20.3378 90.5595 20.3993 89.8217 20.4293C88.5883 20.4794 87.2383 20.5808 86.1164 20.7076C84.518 20.8882 87.9804 20.2279 89.8924 19.9875C90.9457 19.855 92.9912 19.6159 94.8685 19.4058C95.2901 19.3586 96.8138 19.2588 98.2544 19.1839C99.695 19.109 101.046 19.022 101.257 18.9905C102.267 18.8395 109.402 18.7639 112.564 18.8707ZM123.808 20.0626C125.225 20.1475 127.575 20.2049 129.677 20.2061C133.098 20.2081 133.19 20.2128 133.478 20.4017C133.879 20.664 133.85 20.7347 133.359 20.6968C133.13 20.6792 130.442 20.6215 127.386 20.5684C124.329 20.5154 119.7 20.4326 117.1 20.3844C105.166 20.1633 96.7304 20.3138 89.3065 20.8802C88.3556 20.9527 87.4644 21.0268 87.3261 21.0449C87.1878 21.0629 86.6434 21.1045 86.1164 21.1373C84.5491 21.2348 83.7876 21.2924 83.1458 21.362C82.812 21.3982 82.5389 21.3938 82.5389 21.3521C82.5389 21.3105 82.6616 21.2764 82.8115 21.2764C82.9615 21.2764 83.2921 21.2385 83.5462 21.1922C84.8718 20.9508 86.5659 20.7889 89.1828 20.6535C91.2969 20.5441 91.9747 20.4981 93.1445 20.3846C93.6018 20.3402 94.5217 20.2803 95.1888 20.2513C95.8559 20.2224 96.9479 20.1557 97.6155 20.1032C99.8279 19.9292 103.971 19.8727 112.756 19.897C119.376 19.9154 122.007 19.9548 123.808 20.0626ZM55.8992 20.4237C58.9731 20.6059 62.2985 20.9523 64.9068 21.3621C68.4189 21.9138 70.0292 22.1882 69.9754 22.2256C69.9425 22.2486 69.6942 22.2263 69.4236 22.1761C68.9169 22.0821 64.1706 21.4155 63.3736 21.3264C63.1277 21.2989 62.4665 21.2548 61.9043 21.2284C61.3421 21.2019 60.2536 21.14 59.4855 21.0908C56.5073 20.8997 35.5582 21.0068 32.6453 21.2279C32.3642 21.2493 31.703 21.2936 31.176 21.3265C30.649 21.3594 30.074 21.4074 29.8983 21.4331C29.4283 21.5021 16.3639 21.5162 16.4247 21.4477C16.4824 21.3827 17.9303 21.1702 18.0995 21.202C18.1589 21.2131 18.5237 21.1948 18.9102 21.1612C20.2597 21.044 21.3049 21.0137 25.682 20.9655C28.1064 20.9388 30.3487 20.8985 30.6649 20.876C33.7156 20.659 35.9477 20.5738 41.2058 20.4739C43.9464 20.4219 47.1662 20.3441 48.3608 20.3012C50.8725 20.2108 52.8492 20.243 55.8992 20.4237ZM122.466 20.6393C131.529 20.802 133.136 20.8468 133.059 20.9342C133.014 20.9848 131.923 20.9939 130.281 20.9573C126.495 20.8729 111.663 20.8613 111.842 20.9429C111.923 20.9798 108.338 21.0059 103.876 21.001C95.9871 20.9921 94.8492 21.0105 92.4409 21.1855C91.8084 21.2315 90.8598 21.2938 90.3327 21.324C89.8057 21.3542 89.1445 21.3922 88.8634 21.4084C88.5823 21.4247 87.7774 21.4628 87.0746 21.4932C84.7185 21.595 82.8673 21.7374 81.6786 21.9082C80.3689 22.0963 80.2153 22.1075 80.4946 21.9949C80.9536 21.8097 83.5096 21.4624 85.0942 21.3699C86.0429 21.3145 86.9916 21.2502 87.2024 21.2272C87.4132 21.2041 88.4481 21.1269 89.5022 21.0557C90.5563 20.9845 91.6487 20.9064 91.9298 20.882C92.2109 20.8577 93.0734 20.8158 93.8464 20.789C96.2823 20.7044 99.9662 20.5546 100.299 20.5266C101.004 20.4671 117.565 20.5512 122.466 20.6393ZM114.518 21.0748C114.151 21.0928 113.519 21.0929 113.112 21.0752C112.705 21.0575 113.005 21.0428 113.778 21.0426C114.551 21.0424 114.884 21.0569 114.518 21.0748ZM126.421 21.0685C130.197 21.1147 131.279 21.1534 131.393 21.246C131.473 21.3111 131.731 21.5073 131.967 21.6819C132.203 21.8564 132.375 22.0125 132.35 22.0287C132.325 22.0448 131.068 21.9867 129.558 21.8995C126.374 21.7158 122.736 21.5857 120.997 21.5933C114.4 21.6221 103.196 21.6257 103.13 21.599C102.952 21.5276 87.6663 21.7137 86.8191 21.7976C86.3272 21.8463 85.4935 21.9114 84.9665 21.9423C83.6286 22.0208 81.0418 22.2505 80.4341 22.3449C80.155 22.3882 79.9038 22.4078 79.876 22.3885C79.8483 22.3691 79.9905 22.3273 80.192 22.2956C80.3935 22.2638 80.7597 22.2042 81.0056 22.1631C82.1839 21.9662 85.7931 21.7133 90.5244 21.4962C91.1568 21.4672 92.163 21.4029 92.7603 21.3533C94.0923 21.2429 98.8432 21.1161 100.53 21.1461C101.211 21.1582 105.017 21.1914 108.987 21.2199C116.485 21.2737 122.223 21.3449 124.639 21.4142C127.879 21.5071 131.539 21.5341 130.516 21.4575C129.09 21.3507 124.445 21.1864 122.53 21.175C121.652 21.1698 120.33 21.1371 119.592 21.1024L118.25 21.0392L119.922 21.0243C120.842 21.016 123.766 21.0359 126.421 21.0685ZM59.9324 21.3527C60.8061 21.4054 61.9234 21.4689 62.4153 21.4937C62.9073 21.5186 63.626 21.579 64.0125 21.6278C64.399 21.6767 64.9164 21.7401 65.1624 21.7686C65.697 21.8307 70.17 22.4638 71.1675 22.6186C71.554 22.6786 71.7949 22.7458 71.7028 22.7679C71.6107 22.7901 71.2944 22.7663 71.0001 22.7151C70.0576 22.5513 67.975 22.342 65.998 22.2124C63.1876 22.0283 55.84 21.9511 51.9383 22.0648C50.1113 22.1181 43.9017 22.1855 38.1394 22.2146C32.377 22.2437 26.9724 22.306 26.1291 22.3531C25.2859 22.4001 23.8772 22.4781 22.9988 22.5264C22.1204 22.5748 20.9705 22.6534 20.4435 22.701C16.3335 23.0728 14.3106 23.1608 14.3106 22.9678C14.3106 22.7917 14.8056 22.5397 15.5145 22.3549C15.9117 22.2513 16.2892 22.1666 16.3533 22.1666C16.4175 22.1666 16.5159 22.1156 16.5721 22.0532C16.6283 21.9908 16.8371 21.8676 17.036 21.7793C17.3754 21.6288 17.7277 21.6225 22.7217 21.6778C27.0392 21.7256 28.4925 21.7102 30.4094 21.5964C33.2957 21.425 36.5752 21.2803 38.2033 21.2526C41.7664 21.1919 58.5475 21.2692 59.9324 21.3527ZM132.696 21.4616C132.902 21.6124 133.472 21.9429 133.962 22.196C134.715 22.5852 134.808 22.6607 134.564 22.6851C134.405 22.7011 133.055 22.6112 131.565 22.4855C128.165 22.1987 122.158 21.9886 117.358 21.9886C115.33 21.9886 113.696 21.9727 113.725 21.9533C113.97 21.7909 122.485 21.7509 126.3 21.8943C129.511 22.015 132.251 22.1576 132.528 22.2185C132.884 22.2968 132.791 22.1417 132.241 21.7429C131.96 21.5391 131.73 21.3307 131.73 21.2798C131.73 21.0849 132.337 21.1991 132.696 21.4616ZM79.6002 21.765C79.6002 21.8339 77.5362 22.5387 77.4699 22.4924C77.4196 22.4575 79.4064 21.7215 79.5511 21.7215C79.5781 21.7215 79.6002 21.7411 79.6002 21.765ZM105.238 21.8396C105.285 21.8726 101.793 21.8904 97.4771 21.8791C90.8729 21.8619 90.2978 21.8514 93.8464 21.8124C99.4164 21.7512 105.131 21.7648 105.238 21.8396ZM88.2884 21.8996C88.2884 21.9485 88.0728 21.9838 87.8093 21.978C87.3324 21.9676 87.332 21.9672 87.7135 21.8996C88.2667 21.8015 88.2884 21.8015 88.2884 21.8996ZM112.948 22.1592C113.8 22.1972 112.476 22.2245 109.322 22.2341C106.59 22.2423 104.323 22.2706 104.286 22.2969C104.248 22.3231 105.908 22.3468 107.975 22.3493C110.043 22.3519 112.74 22.3905 113.97 22.435C115.2 22.4795 117.758 22.5565 119.656 22.6061C125.119 22.7489 128.976 22.877 130.771 22.9753C131.685 23.0254 132.864 23.0896 133.391 23.1182C133.918 23.1468 134.32 23.1495 134.285 23.1243C134.25 23.099 133.79 23.0512 133.263 23.0181C132.736 22.9849 132.19 22.9391 132.049 22.9162C131.538 22.8331 125.818 22.6103 121.828 22.5182C119.579 22.4662 116.992 22.3917 116.078 22.3526C114.452 22.2829 114.478 22.2812 117.292 22.2704C121.328 22.2549 127.7 22.4034 130.196 22.5712C131.356 22.6491 132.965 22.7361 133.772 22.7646L135.239 22.8164L135.88 23.2552L136.521 23.694L135.179 23.6397C134.442 23.6098 132.458 23.5662 130.771 23.5428C129.085 23.5193 125.808 23.4611 123.489 23.4134C121.17 23.3656 115.708 23.3328 111.351 23.3405L103.429 23.3545L112.053 23.4194C116.797 23.4551 121.713 23.5272 122.978 23.5796C124.242 23.632 127.8 23.7208 130.882 23.7769C137.094 23.8899 136.693 23.8439 137.168 24.4987C137.285 24.6605 137.481 24.8729 137.603 24.9708C137.907 25.215 138.019 25.4605 137.827 25.4601C137.741 25.4599 137.153 25.4035 136.521 25.3346C133.718 25.0297 127.625 24.7154 122.85 24.6295C119.796 24.5745 120.882 24.6972 125.086 24.882C129.192 25.0625 129.784 25.0941 130.963 25.1953C131.49 25.2405 132.41 25.2843 133.007 25.2925C133.605 25.3008 134.668 25.3606 135.371 25.4253C136.074 25.4901 136.944 25.5445 137.305 25.5463C137.872 25.549 137.971 25.5761 138.034 25.7459C138.075 25.8539 138.096 25.9458 138.081 25.9502C137.993 25.976 133.161 25.819 131.666 25.7417C128.722 25.5895 124.319 25.5129 124.319 25.6139C124.319 25.6694 125.445 25.7272 127.29 25.7663C128.924 25.8009 130.979 25.867 131.857 25.913C132.736 25.959 134.547 26.0188 135.882 26.0458C137.217 26.0728 138.378 26.1101 138.461 26.1287C138.544 26.1473 138.681 26.2514 138.764 26.3599L138.915 26.5571L134.652 26.5004C132.307 26.4691 128.232 26.3983 125.597 26.3429C119.767 26.2203 100.655 26.2882 95.124 26.4511C90.6197 26.5838 90.2414 26.5866 84.3648 26.5296L79.8661 26.486L79.7116 26.285C79.6267 26.1744 79.5812 26.0672 79.6106 26.0469C79.64 26.0266 81.3506 25.9611 83.4119 25.9015C85.9691 25.8275 91.286 25.8039 100.15 25.8271C107.294 25.8458 112.449 25.8348 111.606 25.8027C108.212 25.6737 91.5906 25.6198 86.0525 25.7199C82.9605 25.7758 80.2225 25.8367 79.9682 25.8552L79.5057 25.889L79.4316 25.3883C79.3908 25.113 79.3731 24.8768 79.3923 24.8635C79.4114 24.8501 82.9446 24.8377 87.2436 24.8359C92.0836 24.8339 95.0602 24.8005 95.0602 24.7482C95.0602 24.6958 92.0759 24.6687 87.1782 24.6769C79.6423 24.6895 79.2902 24.6828 79.1607 24.5259C79.0862 24.4356 78.8317 24.2084 78.5951 24.0209C78.3585 23.8334 78.1921 23.68 78.2251 23.68C78.4497 23.68 84.4142 23.2855 85.0303 23.2299C85.7164 23.168 85.6828 23.1641 84.7109 23.193C82.9727 23.2446 78.5388 23.4886 78.2495 23.5486C78.0722 23.5853 77.7599 23.506 77.3031 23.3081L76.6214 23.0128L77.3122 22.9047C77.6922 22.8452 78.3481 22.773 78.7697 22.7441C79.1913 22.7152 80.0825 22.6311 80.7501 22.5573C82.9438 22.3145 86.0558 22.2347 95.699 22.174C108.722 22.0921 111.39 22.0898 112.948 22.1592ZM62.1598 22.2928C66.2859 22.3409 68.6831 22.5205 72.4892 23.0667C73.1094 23.1557 73.1961 23.1895 73.0003 23.266C72.7385 23.3683 71.9792 23.3542 71.2952 23.2344C70.7334 23.1359 68.2219 22.911 66.3762 22.794C65.6032 22.745 64.482 22.6609 63.8847 22.6071C62.6404 22.4951 52.3855 22.4196 52.3855 22.5224C52.3855 22.5597 54.556 22.611 57.2088 22.6364C60.7353 22.6701 62.7706 22.733 64.7791 22.8703C66.2899 22.9735 68.1481 23.0989 68.9082 23.1487C69.6684 23.1986 70.5596 23.2759 70.8886 23.3206C71.2177 23.3653 71.7634 23.4272 72.1015 23.4582C72.4395 23.4891 72.6967 23.5547 72.6732 23.6039C72.6497 23.6531 72.5744 23.6928 72.5059 23.6922C72.0086 23.6875 67.949 23.4158 64.2748 23.1412C61.3859 22.9254 54.9203 22.8343 42.4835 22.8343C29.5191 22.8343 27.3545 22.8724 22.2322 23.1905C21.143 23.2582 19.6481 23.3379 18.9102 23.3677C17.2754 23.4338 16.7179 23.4961 16.812 23.6022C16.8514 23.6466 16.9282 23.6637 16.9827 23.6402C17.0372 23.6168 17.9963 23.5562 19.114 23.5057C20.2317 23.4551 22.2386 23.3539 23.5738 23.2806C24.909 23.2074 26.9788 23.1035 28.1734 23.0496C31.4722 22.9009 47.2176 22.8457 52.7688 22.9634C59.3213 23.1023 62.969 23.2073 63.5014 23.2722C63.7473 23.3023 64.6673 23.3644 65.5457 23.4103C66.4241 23.4562 67.7465 23.5339 68.4843 23.583C69.9659 23.6816 71.5518 23.7621 72.0938 23.7663C72.3228 23.7681 72.4452 23.8166 72.4452 23.9057C72.4452 24.0184 72.3965 24.0242 72.1676 23.9389C71.8171 23.8082 61.7666 23.7252 61.6541 23.8521C61.6085 23.9034 63.2691 23.9414 65.9584 23.9506C68.3667 23.9588 70.7767 23.9915 71.3141 24.0231L72.2912 24.0806L71.7613 24.8184C71.4698 25.2241 71.0589 25.6874 70.8481 25.8479L70.4648 26.1397L68.4205 26.1575C65.615 26.182 56.7513 26.3373 54.877 26.3948C54.0337 26.4207 51.5902 26.4637 49.4469 26.4903C47.3036 26.5169 42.7039 26.5944 39.2254 26.6626C35.7469 26.7308 29.2499 26.8503 24.7876 26.9282C20.3253 27.0061 15.4668 27.1083 13.9909 27.1554C12.5151 27.2024 11.0345 27.2409 10.7009 27.2409C10.1155 27.2409 10.0942 27.2318 10.0942 26.9807C10.0942 26.833 10.2323 26.6061 10.4134 26.4561L10.7326 26.1918L13.0007 26.1283C14.2482 26.0933 15.4413 26.0504 15.6521 26.0329C15.863 26.0154 17.459 25.9733 19.199 25.9393C20.9389 25.9054 22.3294 25.8546 22.2889 25.8264C22.2094 25.771 16.1208 25.7972 15.988 25.8535C15.9438 25.8722 14.7962 25.9167 13.4378 25.9524L10.9678 26.0173L11.3139 25.5415C11.5042 25.2798 11.8294 24.9554 12.0364 24.8206L12.413 24.5755L14.9908 24.524C16.4086 24.4956 18.6898 24.4147 20.0602 24.3443C22.8438 24.2011 30.5432 24.0173 32.9009 24.0379C35.3233 24.0589 45.7986 23.9359 45.8694 23.8856C46.0136 23.7829 25.1177 23.9572 21.8489 24.0859C19.9867 24.1592 18.3768 24.2419 18.2714 24.2697C18.0851 24.3187 12.4992 24.4714 12.4166 24.4297C12.3447 24.3934 13.0318 23.4354 13.199 23.3387C13.2887 23.2868 14.3116 23.2274 15.5277 23.2036C16.7205 23.1801 18.4151 23.0986 19.2935 23.0225C24.0182 22.6129 26.0042 22.5392 33.9869 22.4778C43.1872 22.407 56.7728 22.2553 56.8194 22.2228C56.8425 22.2067 57.2774 22.2068 57.7857 22.223C58.2941 22.2393 60.2625 22.2707 62.1598 22.2928ZM76.0227 22.4644C76.0227 22.4813 75.8933 22.5714 75.7352 22.6647L75.4477 22.8343L75.6911 22.634C75.9199 22.4458 76.0227 22.3932 76.0227 22.4644ZM95.8319 22.8084C94.0428 22.8471 91.9729 22.9156 91.2322 22.9605C89.9373 23.0391 89.9616 23.0408 91.8659 23.0047C97.7251 22.8937 108.625 22.867 111.862 22.9556C113.829 23.0095 117.308 23.0701 119.592 23.0903C122.454 23.1156 123.168 23.1057 121.892 23.0586C120.873 23.021 118.918 22.9849 117.547 22.9786C116.177 22.9722 113.992 22.9276 112.692 22.8795C109.519 22.762 99.8593 22.7213 95.8319 22.8084ZM73.1479 22.9749L73.4034 23.0456L73.1479 23.0444C73.0073 23.0437 72.6624 22.9885 72.3813 22.9218L71.8702 22.8004L72.3813 22.8523C72.6624 22.8808 73.0073 22.936 73.1479 22.9749ZM89.055 23.0568C89.055 23.1058 89.1734 23.1459 89.3181 23.1459C89.4628 23.1459 89.5457 23.1058 89.5022 23.0568C89.4588 23.0079 89.3404 22.9678 89.2392 22.9678C89.1379 22.9678 89.055 23.0079 89.055 23.0568ZM76.9279 23.3278C77.5117 23.5353 78.3386 24.0329 78.7203 24.4064C78.863 24.546 79.0837 25.0106 79.2106 25.4387C79.3375 25.8669 79.4834 26.2877 79.535 26.3739C79.6061 26.4929 79.5806 26.5179 79.4293 26.4775C79.2061 26.4178 78.8833 25.8002 78.7582 25.1934C78.6483 24.6601 78.4875 24.4994 77.4271 23.8636L76.5272 23.3239H75.6539C75.1736 23.3239 74.5179 23.349 74.1967 23.3797C73.6484 23.432 73.5969 23.4608 73.3564 23.8504C73.2156 24.0786 72.9816 24.3401 72.8366 24.4316C72.6916 24.523 72.5729 24.6369 72.5729 24.6845C72.5729 24.7322 72.3861 24.9223 72.1577 25.107C71.9293 25.2917 71.6362 25.5497 71.5063 25.6803C71.3764 25.8109 71.2378 25.8952 71.1983 25.8677C71.1588 25.8402 71.2177 25.7473 71.3292 25.6613C71.4406 25.5753 71.6974 25.2646 71.8996 24.9708C72.5061 24.0901 73.0943 23.418 73.3814 23.2779C73.58 23.181 74.0193 23.1459 75.034 23.1459C76.1738 23.1459 76.5059 23.1778 76.9279 23.3278ZM91.7382 23.2428C87.9395 23.3349 85.703 23.4217 85.7783 23.4742C85.812 23.4976 88.561 23.4571 91.8872 23.3841C95.2135 23.3112 99.4853 23.2458 101.38 23.239C103.275 23.2321 104.851 23.2083 104.883 23.1861C104.974 23.1225 94.9166 23.1659 91.7382 23.2428ZM124.926 23.2103C125.154 23.23 125.528 23.23 125.756 23.2103C125.985 23.1905 125.798 23.1744 125.341 23.1744C124.884 23.1744 124.698 23.1905 124.926 23.2103ZM126.395 23.2072C126.518 23.2296 126.72 23.2296 126.843 23.2072C126.966 23.1848 126.865 23.1665 126.619 23.1665C126.373 23.1665 126.272 23.1848 126.395 23.2072ZM42.4196 23.4187C41.4007 23.4536 37.031 23.5141 32.7092 23.553C28.3875 23.592 24.9952 23.6525 25.1709 23.6875C25.5814 23.7692 37.4143 23.6991 41.5891 23.5903C47.8734 23.4264 52.1361 23.4014 56.6658 23.5018C59.1956 23.5579 62.2429 23.6171 63.4375 23.6332L65.6096 23.6627L63.8847 23.5891C62.936 23.5486 61.1536 23.4732 59.9239 23.4214C57.4825 23.3187 45.3914 23.3168 42.4196 23.4187ZM77.1229 23.9547C78.1297 24.4959 78.4076 24.7853 78.5789 25.4708C78.7779 26.267 79.0489 26.5545 79.7355 26.6978L80.2889 26.8133L79.9765 26.9809C79.8047 27.073 79.2903 27.2481 78.8336 27.37C76.2015 28.0721 71.9648 27.7211 70.73 26.6986L70.3881 26.4155L71.0014 26.1693C71.3387 26.0338 71.8734 25.6969 72.1896 25.4204C72.5059 25.144 72.9188 24.7874 73.1073 24.6279C73.2957 24.4684 73.4882 24.2316 73.535 24.1017C73.5818 23.9717 73.6864 23.8272 73.7673 23.7807C74.0665 23.6086 74.8311 23.5082 75.6086 23.539C76.3229 23.5672 76.4848 23.6117 77.1229 23.9547ZM112.843 23.7283C113.804 23.7918 116.075 23.8867 117.89 23.939C122.025 24.0582 125.898 24.2172 132.241 24.5282C135.244 24.6754 136.742 24.6901 136.149 24.5665C135.945 24.5238 135.14 24.4646 134.36 24.4349C133.581 24.4051 131.995 24.325 130.835 24.257C128.04 24.0928 122.665 23.8889 116.781 23.7238C111.22 23.5677 110.428 23.5686 112.843 23.7283ZM96.4656 24.2141C96.4656 24.2631 96.5484 24.3032 96.6497 24.3032C96.751 24.3032 96.8694 24.2631 96.9128 24.2141C96.9562 24.1652 96.8734 24.1251 96.7287 24.1251C96.584 24.1251 96.4656 24.1652 96.4656 24.2141ZM100.618 24.1959C100.698 24.2514 103.229 24.3038 107.363 24.3354C111.002 24.3633 114.021 24.4027 114.071 24.423C114.121 24.4433 115.022 24.4879 116.074 24.522C117.127 24.5562 118.028 24.6017 118.078 24.6231C118.128 24.6446 118.205 24.6214 118.249 24.5717C118.296 24.5187 118.181 24.4809 117.97 24.4805C117.773 24.4801 116.461 24.423 115.056 24.3537C111.831 24.1945 100.437 24.0699 100.618 24.1959ZM43.9314 24.3019C41.4249 24.3271 39.3263 24.3833 39.2679 24.4268C39.2059 24.473 39.6633 24.4822 40.363 24.4491C41.0238 24.4178 44.21 24.3922 47.4435 24.3922C50.6769 24.3922 53.2986 24.3764 53.2693 24.3572C53.161 24.286 48.3542 24.2576 43.9314 24.3019ZM58.9017 24.3055C56.4162 24.3412 57.1433 24.3546 61.9682 24.3619C65.4467 24.3672 68.2064 24.3586 68.101 24.3427C67.7059 24.2833 62.0412 24.2603 58.9017 24.3055ZM89.6939 24.3072C88.956 24.3419 87.188 24.3753 85.765 24.3813C84.1357 24.3882 83.1777 24.4252 83.1777 24.4812C83.1777 24.5974 85.5615 24.5933 88.9273 24.4714C90.3679 24.4192 92.6102 24.3468 93.9102 24.3103L96.274 24.2441L93.6547 24.2441C92.2141 24.244 90.4317 24.2724 89.6939 24.3072ZM21.3804 24.4747C20.1741 24.5028 19.1582 24.5457 19.1231 24.5702C19.0879 24.5947 21.9722 24.6027 25.5328 24.5879C29.3891 24.572 32.0556 24.5269 32.1279 24.4766C32.2583 24.3859 25.2541 24.3846 21.3804 24.4747ZM68.8357 24.4511C68.9236 24.4758 69.0673 24.4758 69.1551 24.4511C69.243 24.4265 69.1711 24.4063 68.9954 24.4063C68.8197 24.4063 68.7479 24.4265 68.8357 24.4511ZM18.3033 24.6316C18.4263 24.654 18.6276 24.654 18.7505 24.6316C18.8735 24.6092 18.7729 24.5909 18.5269 24.5909C18.281 24.5909 18.1804 24.6092 18.3033 24.6316ZM23.4864 24.7982C21.1194 24.861 19.0495 24.9329 18.8868 24.9579C18.6053 25.0012 19.9068 24.9866 25.5542 24.8831C26.9245 24.8579 29.7405 24.8149 31.812 24.7874C33.8835 24.7599 35.6036 24.7198 35.6344 24.6983C35.7461 24.6205 27.6882 24.6868 23.4864 24.7982ZM54.6854 24.7183C49.1749 24.8542 46.1342 24.9583 44.5278 25.0661C43.4737 25.1368 40.9295 25.2209 38.874 25.2529C36.8186 25.2849 35.1368 25.3446 35.1368 25.3856C35.1368 25.4856 37.2896 25.4616 41.4613 25.315C44.9898 25.191 45.965 25.1798 44.7194 25.2776C44.3329 25.3079 49.0188 25.3354 55.1326 25.3386C61.2463 25.3418 66.7371 25.3691 67.3344 25.3994C67.9317 25.4297 68.8804 25.424 69.4426 25.3867C71.2671 25.2656 63.7542 25.1602 54.2541 25.1736C49.4141 25.1805 45.4756 25.1715 45.502 25.1538C45.6838 25.0316 63.3712 24.7808 69.3468 24.8157C70.3206 24.8214 71.0397 24.7902 71.0397 24.7424C71.0397 24.6691 57.4876 24.6491 54.6854 24.7183ZM99.0489 24.7203C98.5372 24.74 98.1435 24.7844 98.1741 24.819C98.2046 24.8536 99.6582 24.8509 101.404 24.813C104.095 24.7547 109.576 24.7936 110.648 24.8788C110.824 24.8927 112.002 24.9302 113.267 24.9621C115.332 25.0142 116.935 25.0732 120.901 25.2433C121.638 25.2749 122.147 25.2629 122.147 25.214C122.147 25.1685 121.27 25.1037 120.199 25.0699C119.127 25.0362 116.554 24.9471 114.481 24.8719C110.882 24.7415 101.012 24.6444 99.0489 24.7203ZM30.6649 25.0277C28.3811 25.0678 26.1387 25.1397 25.682 25.1875C25.0146 25.2573 25.228 25.2653 26.768 25.2282C27.8221 25.2027 31.3698 25.153 34.6518 25.1175C37.9339 25.0821 40.6601 25.0246 40.7102 24.9897C40.8213 24.9123 36.2599 24.9296 30.6649 25.0277ZM24.1183 25.2564C24.2772 25.2776 24.5072 25.2768 24.6294 25.2545C24.7515 25.2323 24.6215 25.2148 24.3404 25.2159C24.0593 25.2168 23.9593 25.2351 24.1183 25.2564ZM70.5286 25.2824C70.5286 25.3314 70.6436 25.3714 70.7842 25.3714C70.9247 25.3714 71.0397 25.3314 71.0397 25.2824C71.0397 25.2335 70.9247 25.1934 70.7842 25.1934C70.6436 25.1934 70.5286 25.2335 70.5286 25.2824ZM81.9 25.281C81.5838 25.3144 84.0274 25.3229 87.3302 25.2998C90.633 25.2767 93.3593 25.2433 93.3885 25.2256C93.4866 25.1663 82.4828 25.2193 81.9 25.281ZM95.1575 25.2564C95.3164 25.2776 95.5464 25.2768 95.6685 25.2545C95.7907 25.2323 95.6607 25.2148 95.3796 25.2159C95.0985 25.2168 94.9985 25.2351 95.1575 25.2564ZM122.626 25.2562C122.784 25.2774 123.043 25.2774 123.201 25.2562C123.359 25.235 123.23 25.2176 122.914 25.2176C122.597 25.2176 122.468 25.235 122.626 25.2562ZM33.1564 25.3714C33.113 25.4204 33.1992 25.4605 33.3481 25.4605C33.4969 25.4605 33.5832 25.4204 33.5397 25.3714C33.4963 25.3225 33.41 25.2824 33.3481 25.2824C33.2861 25.2824 33.1998 25.3225 33.1564 25.3714ZM29.3553 25.4379C28.383 25.4562 27.854 25.5003 27.854 25.563C27.854 25.6637 30.183 25.6043 31.751 25.4636L32.5176 25.3948L31.6871 25.4022C31.2303 25.4064 30.181 25.4224 29.3553 25.4379ZM34.0188 25.4352C34.2121 25.4556 34.5283 25.4556 34.7216 25.4352C34.9148 25.4148 34.7567 25.3981 34.3702 25.3981C33.9837 25.3981 33.8256 25.4148 34.0188 25.4352ZM107.965 25.4534C107.829 25.5194 108.929 25.5472 111.717 25.5481C114.028 25.5489 116.542 25.6019 117.786 25.6761C118.955 25.7457 121.061 25.8474 122.466 25.9022C123.872 25.9569 125.856 26.0412 126.874 26.0894C130.944 26.2823 138.532 26.4306 138.363 26.314C138.334 26.2938 136.355 26.2315 133.966 26.1754C131.576 26.1193 129.392 26.059 129.11 26.0414C128.829 26.0237 127.708 25.9826 126.619 25.95C125.53 25.9173 124.519 25.8779 124.374 25.8624C124.228 25.8468 123.366 25.8074 122.457 25.7747C121.549 25.7421 119.886 25.6554 118.761 25.5822C116.2 25.4153 108.238 25.3203 107.965 25.4534ZM48.9358 25.6005C46.7667 25.729 43.6495 25.7725 43.4285 25.6773C43.3397 25.6391 43.3077 25.6484 43.353 25.6994C43.4025 25.7553 42.9747 25.7934 42.1908 25.803C41.5085 25.8114 40.6995 25.843 40.3931 25.8735C40.0578 25.9067 39.8032 25.8918 39.7537 25.8359C39.6976 25.7728 39.1815 25.7681 38.1387 25.8214C36.3231 25.9141 30.4988 26.0936 27.7901 26.1403C22.9318 26.2239 13.628 26.4638 12.6496 26.5305C11.3171 26.6215 16.2916 26.5556 19.8685 26.435C21.2037 26.3899 23.5719 26.3526 25.1312 26.3519C26.6906 26.3512 28.9904 26.293 30.242 26.2225C31.4935 26.152 33.84 26.0819 35.4562 26.0667C37.2216 26.0501 38.4316 26.0036 38.4868 25.9501C38.5467 25.8922 38.6688 25.8999 38.8365 25.9723C38.9782 26.0336 39.1882 26.0836 39.3032 26.0836C39.4832 26.0836 39.4879 26.0631 39.3369 25.9355C39.1769 25.8004 39.1883 25.7973 39.4663 25.9006C39.6982 25.9867 40.2559 25.9984 41.7981 25.9495C43.6317 25.8914 43.8708 25.9011 44.3042 26.0512C44.7815 26.2165 44.7626 26.2174 39.2893 26.2753C36.2676 26.3073 32.2141 26.377 30.2816 26.4302C28.3491 26.4833 25.6181 26.5489 24.2126 26.5759C20.0974 26.6549 18.0916 26.7133 18.0305 26.7559C17.999 26.7779 18.4285 26.7954 18.9848 26.7949C20.3051 26.7937 31.5222 26.5497 33.0925 26.488C34.1858 26.4451 43.9909 26.344 46.604 26.3488C47.2556 26.3499 47.6581 26.315 47.6581 26.2574C47.6581 26.1976 47.1876 26.1684 46.3485 26.1762C45.4576 26.1845 44.9021 26.1474 44.6111 26.0603L44.1835 25.9322L44.7887 25.8744C45.1216 25.8426 45.9465 25.8169 46.6219 25.8174C47.2972 25.8179 48.6834 25.7759 49.7024 25.724C50.7214 25.6721 53.7111 25.5976 56.3464 25.5584L61.1377 25.4871L55.963 25.4889C52.9721 25.4899 50.0067 25.537 48.9358 25.6005ZM61.6487 25.5495C61.6922 25.5984 61.8427 25.6385 61.9832 25.6385C62.1238 25.6385 62.2033 25.5984 62.1598 25.5495C62.1164 25.5005 61.9659 25.4605 61.8253 25.4605C61.6848 25.4605 61.6053 25.5005 61.6487 25.5495ZM63.0941 25.6103C63.1863 25.636 63.2966 25.6328 63.339 25.6033C63.3814 25.5737 63.306 25.5527 63.1713 25.5565C63.0225 25.5608 62.9922 25.5819 63.0941 25.6103ZM63.6052 25.6103C63.6974 25.636 63.8076 25.6328 63.8501 25.6033C63.8925 25.5737 63.8171 25.5527 63.6824 25.5565C63.5335 25.5608 63.5033 25.5819 63.6052 25.6103ZM113.427 25.8794C113.585 25.9006 113.844 25.9006 114.002 25.8794C114.16 25.8582 114.031 25.8408 113.714 25.8408C113.398 25.8408 113.269 25.8582 113.427 25.8794ZM122.019 26.4367C123.881 26.4831 128.424 26.5673 132.113 26.6237C135.802 26.6802 138.831 26.7321 138.842 26.739C138.854 26.746 138.906 26.8682 138.957 27.0107L139.051 27.2698L137.147 27.209C134.371 27.1204 122.763 26.9688 101.065 26.7379C92.5476 26.6473 94.3299 26.538 105.729 26.452C110.859 26.4133 115.861 26.375 116.845 26.367C117.828 26.359 120.157 26.3903 122.019 26.4367ZM70.4268 26.8273C71.504 27.588 72.6646 27.8547 75.2016 27.9249C77.6742 27.9932 79.1797 27.7459 80.2999 27.0874L80.8079 26.7887L84.7079 26.8388C86.8529 26.8663 93.3225 26.9481 99.0849 27.0205C104.847 27.093 113.414 27.2113 118.122 27.2834C122.831 27.3556 129.511 27.4327 132.968 27.4548L139.254 27.495L139.293 27.1843L139.332 26.8736L140.024 27.3466C140.79 27.8704 141.183 28.2679 141.184 28.5196C141.184 28.6636 141.113 28.6786 140.642 28.6333C139.805 28.553 134.658 28.4127 127.066 28.2635C123.271 28.1889 117.436 28.0695 114.098 27.9982C110.76 27.9269 104.78 27.8062 100.81 27.7302C90.1557 27.5261 81.7454 27.3289 81.6331 27.2805C81.5787 27.2571 81.4475 27.3241 81.3416 27.4295C80.6472 28.1202 77.3601 28.7428 74.948 28.6405C73.0699 28.5608 70.3046 27.7994 69.3152 27.0895L68.8993 26.7912L65.1463 26.9243C63.0821 26.9974 59.4958 27.1195 57.1768 27.1954C54.8579 27.2714 51.2931 27.392 49.2552 27.4633C45.0785 27.6096 39.5795 27.7967 33.5397 27.9981C31.291 28.073 27.8412 28.1942 25.8736 28.2674C17.2094 28.5895 15.0261 28.6729 13.2245 28.7507C12.1705 28.7963 10.7331 28.8257 10.0303 28.8162C8.85892 28.8003 8.7498 28.784 8.7185 28.6208C8.66641 28.3492 9.14222 27.8832 9.61118 27.7467C9.84171 27.6795 10.1093 27.5583 10.2057 27.4773C10.3588 27.3487 10.7239 27.33 13.0805 27.3305C14.5652 27.3308 18.051 27.2917 20.8268 27.2437C23.6025 27.1957 29.6108 27.0944 34.1786 27.0187C38.7463 26.9429 44.6683 26.8414 47.3387 26.793C50.009 26.7447 55.0112 26.6643 58.4545 26.6144C61.8979 26.5645 64.8877 26.5112 65.0985 26.4959C65.3093 26.4807 66.4709 26.4618 67.6798 26.454L69.8779 26.4397L70.4268 26.8273ZM17.0576 26.7958C16.7173 26.8561 16.7432 26.8649 17.2887 26.8743C17.6692 26.8808 17.8731 26.8509 17.8242 26.7958C17.7363 26.6967 17.6167 26.6967 17.0576 26.7958ZM16.0059 26.8575C16.1303 26.8801 16.3027 26.8786 16.3892 26.8542C16.4757 26.8298 16.374 26.8113 16.1632 26.8132C15.9524 26.815 15.8816 26.8349 16.0059 26.8575Z" fill="#453D83"/>
</svg>
